{
.appVersion = "3516";
.formatVersion = 3;
axes = (
{
name = Weight;
tag = wght;
}
);
classes = (
{
automatic = 1;

glyphs = (
{
color = 4;
glyphname = A;
kernLeft = A;
kernRight = A;
layers = (
{
anchors = (
{
name = bottom;
pos = (237,0);
},
{
name = ogonek;
pos = (452,0);
},
{
name = top;
pos = (332,603);
}
);
background = {
anchors = (
{
name = top;
pos = (332,603);
}
);
};
layerId = "D9712079-C16A-42CB-8BA4-BD9ECFFACF10";
shapes = (
{
closed = 1;
nodes = (
(90,0,l),
(182,229,l),
(318,545,l),
(324,545,l),
(346,232,l),
(376,0,l),
(466,0,l),
(391,600,l),
(379,612,l),
(275,603,l),
(2,0,l)
);
},
{
closed = 1;
nodes = (
(171,0,l),
(179,46,l),
(77,73,l),
(-35,38,l),
(-41,0,l)
);
},
{
closed = 1;
nodes = (
(509,0,l),
(515,38,l),
(412,75,l),
(304,46,l),
(297,0,l)
);
},
{
closed = 1;
nodes = (
(389,203,l),
(385,256,l),
(154,256,l),
(132,203,l)
);
}
);
width = 552;
},
{
anchors = (
{
name = bottom;
pos = (193,0);
},
{
name = ogonek;
pos = (366,0);
},
{
name = top;
pos = (282,591);
}
);
layerId = "16B79A64-180D-495F-8650-CA27198DF3EF";
shapes = (
{
closed = 1;
nodes = (
(25,0,l),
(124,229,l),
(274,579,l),
(280,579,l),
(316,232,l),
(340,0,l),
(368,0,l),
(302,591,l),
(293,600,l),
(256,591,l),
(-2,0,l)
);
},
{
closed = 1;
nodes = (
(95,0,l),
(98,18,l),
(24,28,l),
(-54,15,l),
(-57,0,l)
);
},
{
closed = 1;
nodes = (
(425,0,l),
(428,15,l),
(350,28,l),
(276,18,l),
(273,0,l)
);
},
{
closed = 1;
nodes = (
(329,218,l),
(327,239,l),
(105,239,l),
(95,218,l)
);
}
);
width = 438;
},
{
anchors = (
{
name = bottom;
pos = (276,0);
},
{
name = ogonek;
pos = (523,0);
},
{
name = top;
pos = (384,613);
}
);
layerId = "E259E77F-022A-45EF-A0F1-1168268390B3";
shapes = (
{
closed = 1;
nodes = (
(145,0,l),
(238,239,l),
(340,478,l),
(349,478,l),
(362,242,l),
(380,0,l),
(560,0,l),
(493,603,l),
(474,622,l),
(292,613,l),
(-13,0,l)
);
},
{
closed = 1;
nodes = (
(246,0,l),
(259,80,l),
(129,108,l),
(-42,72,l),
(-53,0,l)
);
},
{
closed = 1;
nodes = (
(597,0,l),
(608,72,l),
(448,108,l),
(311,80,l),
(298,0,l)
);
},
{
closed = 1;
nodes = (
(410,168,l),
(425,261,l),
(183,261,l),
(168,168,l)
);
}
);
width = 624;
}
);
unicode = 65;
},
{
color = 4;
glyphname = AE;
kernLeft = A;
kernRight = E;
layers = (
{
anchors = (
{
name = top;
pos = (457,603);
}
);
layerId = "D9712079-C16A-42CB-8BA4-BD9ECFFACF10";
shapes = (
{
closed = 1;
nodes = (
(54,0,l),
(390,603,l),
(323,603,l),
(-34,0,l)
);
},
{
closed = 1;
nodes = (
(143,0,l),
(151,46,l),
(49,73,l),
(-63,38,l),
(-69,0,l)
);
},
{
closed = 1;
nodes = (
(621,0,l),
(621,44,l),
(328,69,l),
(233,38,l),
(227,0,l)
);
},
{
closed = 1;
nodes = (
(361,203,l),
(357,256,l),
(126,256,l),
(104,203,l)
);
},
{
closed = 1;
nodes = (
(376,0,l),
(481,603,l),
(390,603,l),
(285,0,l)
);
},
{
closed = 1;
nodes = (
(621,0,l),
(652,179,l),
(602,180,l),
(543,0,l)
);
},
{
closed = 1;
nodes = (
(566,290,l),
(574,337,l),
(416,343,l),
(406,284,l)
);
},
{
closed = 1;
nodes = (
(650,560,l),
(658,603,l),
(232,603,l),
(225,565,l),
(315,536,l)
);
},
{
closed = 1;
nodes = (
(666,428,l),
(698,603,l),
(621,603,l),
(616,428,l)
);
}
);
width = 680;
},
{
anchors = (
{
name = top;
pos = (462,591);
}
);
layerId = "16B79A64-180D-495F-8650-CA27198DF3EF";
shapes = (
{
closed = 1;
nodes = (
(25,0,l),
(375,591,l),
(349,591,l),
(-4,0,l)
);
},
{
closed = 1;
nodes = (
(93,0,l),
(96,18,l),
(22,28,l),
(-56,15,l),
(-59,0,l)
);
},
{
closed = 1;
nodes = (
(539,0,l),
(542,19,l),
(293,28,l),
(215,18,l),
(212,0,l)
);
},
{
closed = 1;
nodes = (
(327,218,l),
(325,239,l),
(155,239,l),
(145,218,l)
);
},
{
closed = 1;
nodes = (
(298,0,l),
(401,591,l),
(373,591,l),
(270,0,l)
);
},
{
closed = 1;
nodes = (
(548,0,l),
(571,136,l),
(552,137,l),
(516,0,l)
);
},
{
closed = 1;
nodes = (
(506,298,l),
(509,317,l),
(349,321,l),
(344,294,l)
);
},
{
closed = 1;
nodes = (
(612,570,l),
(615,591,l),
(270,591,l),
(267,573,l),
(345,563,l)
);
},
{
closed = 1;
nodes = (
(615,465,l),
(636,591,l),
(604,591,l),
(596,465,l)
);
}
);
width = 622;
},
{
anchors = (
{
name = top;
pos = (495,613);
}
);
layerId = "E259E77F-022A-45EF-A0F1-1168268390B3";
shapes = (
{
closed = 1;
nodes = (
(49,0,l),
(420,613,l),
(310,613,l),
(-109,0,l)
);
},
{
closed = 1;
nodes = (
(156,0,l),
(169,80,l),
(39,108,l),
(-132,72,l),
(-143,0,l)
);
},
{
closed = 1;
nodes = (
(660,0,l),
(674,82,l),
(391,108,l),
(221,72,l),
(209,0,l)
);
},
{
closed = 1;
nodes = (
(320,168,l),
(335,261,l),
(93,261,l),
(78,168,l)
);
},
{
closed = 1;
nodes = (
(449,0,l),
(554,613,l),
(372,613,l),
(267,0,l)
);
},
{
closed = 1;
nodes = (
(704,0,l),
(739,235,l),
(650,235,l),
(586,0,l)
);
},
{
closed = 1;
nodes = (
(624,269,l),
(640,362,l),
(480,368,l),
(464,263,l)
);
},
{
closed = 1;
nodes = (
(725,532,l),
(739,613,l),
(161,613,l),
(150,541,l),
(297,506,l)
);
},
{
closed = 1;
nodes = (
(765,384,l),
(802,613,l),
(685,613,l),
(676,384,l)
);
}
);
width = 772;
}
);
metricRight = E;
unicode = 198;
},
{
color = 4;
glyphname = B;
kernLeft = H;
kernRight = B;
layers = (
{
layerId = "D9712079-C16A-42CB-8BA4-BD9ECFFACF10";
shapes = (
{
closed = 1;
nodes = (
(252,0,ls),
(376,0,o),
(458,80,o),
(458,201,cs),
(458,262,o),
(416,302,o),
(355,313,c),
(356,319,l),
(433,356,o),
(468,404,o),
(468,497,cs),
(468,577,o),
(422,603,o),
(342,603,cs),
(105,603,l),
(98,565,l),
(178,537,l),
(192,539,o),
(335,556,o),
(347,556,cs),
(367,556,o),
(376,541,o),
(376,509,cs),
(376,446,o),
(364,330,o),
(280,330,cs),
(178,330,l),
(168,273,l),
(297,273,ls),
(338,273,o),
(367,270,o),
(367,222,cs),
(367,166,o),
(343,47,o),
(287,47,cs),
(273,47,o),
(117,66,o),
(105,68,c),
(9,38,l),
(3,0,l)
);
},
{
closed = 1;
nodes = (
(151,0,l),
(256,603,l),
(165,603,l),
(60,0,l)
);
}
);
width = 481;
},
{
layerId = "16B79A64-180D-495F-8650-CA27198DF3EF";
shapes = (
{
closed = 1;
nodes = (
(220,0,ls),
(317,0,o),
(389,89,o),
(389,202,cs),
(389,263,o),
(351,295,o),
(295,303,c),
(296,307,l),
(361,329,o),
(406,413,o),
(406,499,cs),
(406,574,o),
(358,591,o),
(283,591,cs),
(112,591,l),
(109,576,l),
(188,563,l),
(232,565,o),
(295,567,o),
(307,567,cs),
(348,567,o),
(377,547,o),
(377,502,cs),
(377,418,o),
(337,315,o),
(259,315,cs),
(146,315,l),
(141,289,l),
(267,289,ls),
(332,289,o),
(358,255,o),
(358,205,cs),
(358,99,o),
(298,24,o),
(226,24,cs),
(212,24,o),
(136,24,o),
(93,28,c),
(15,15,l),
(12,0,l)
);
},
{
closed = 1;
nodes = (
(98,0,l),
(201,591,l),
(173,591,l),
(70,0,l)
);
}
);
width = 426;
},
{
background = {
shapes = (
{
closed = 1;
nodes = (
(229,257,l),
(336,257,ls),
(377,257,o),
(406,259,o),
(406,216,cs),
(406,160,o),
(386,75,o),
(330,75,cs),
(316,75,o),
(242,96,o),
(195,108,c),
(23,73,l),
(12,0,l),
(370,0,ls),
(509,0,o),
(593,85,o),
(593,206,cs),
(593,267,o),
(550,306,o),
(489,317,c),
(490,324,l),
(567,357,o),
(605,406,o),
(605,499,cs),
(605,576,o),
(538,613,o),
(458,613,cs),
(114,613,l),
(103,541,l),
(263,505,l),
(319,524,o),
(375,542,o),
(387,542,cs),
(408,542,o),
(419,524,o),
(419,492,cs),
(419,423,o),
(411,353,o),
(321,353,cs),
(244,353,l)
);
},
{
closed = 1;
nodes = (
(357,613,l),
(175,613,l),
(70,0,l),
(252,0,l)
);
}
);
};
layerId = "E259E77F-022A-45EF-A0F1-1168268390B3";
shapes = (
{
closed = 1;
nodes = (
(333,0,ls),
(472,0,o),
(556,85,o),
(556,206,cs),
(556,267,o),
(513,306,o),
(452,317,c),
(453,324,l),
(530,357,o),
(568,406,o),
(568,499,cs),
(568,576,o),
(501,613,o),
(421,613,cs),
(77,613,l),
(66,541,l),
(226,505,l),
(282,524,o),
(342,542,o),
(354,542,cs),
(375,542,o),
(386,524,o),
(386,492,cs),
(386,423,o),
(378,351,o),
(288,351,cs),
(207,351,l),
(192,257,l),
(299,257,ls),
(340,257,o),
(369,257,o),
(369,216,cs),
(369,160,o),
(349,79,o),
(293,79,cs),
(279,79,o),
(205,96,o),
(158,108,c),
(-14,73,l),
(-25,0,l)
);
},
{
closed = 1;
nodes = (
(215,0,l),
(320,613,l),
(138,613,l),
(33,0,l)
);
}
);
width = 569;
}
);
metricLeft = H;
unicode = 66;
},
{
color = 4;
glyphname = C;
kernLeft = O;
kernRight = C;
layers = (
{
anchors = (
{
name = bottom;
pos = (251,0);
},
{
name = top;
pos = (336,603);
}
);
background = {
shapes = (
{
closed = 1;
nodes = (
(227,-9,o),
(363,4,o),
(400,14,c),
(401,65,l),
(270,65,ls),
(219,65,o),
(174,79,o),
(174,196,cs),
(174,339,o),
(222,513,o),
(278,537,cs),
(285,540,o),
(298,542,o),
(313,542,cs),
(347,542,o),
(393,540,o),
(423,534,c),
(502,601,l),
(445,606,o),
(351,611,o),
(332,611,cs),
(306,611,o),
(188,535,o),
(149,494,c),
(110,418,o),
(80,284,o),
(80,193,cs),
(80,53,o),
(141,-9,o),
(212,-9,cs)
);
},
{
closed = 1;
nodes = (
(400,14,l),
(429,184,l),
(379,185,l),
(324,14,l)
);
},
{
closed = 1;
nodes = (
(410,428,l),
(462,428,l),
(502,601,l),
(420,601,l)
);
}
);
};
layerId = "D9712079-C16A-42CB-8BA4-BD9ECFFACF10";
shapes = (
{
closed = 1;
nodes = (
(190,-9,o),
(332,4,o),
(369,14,c),
(370,65,l),
(233,65,ls),
(182,65,o),
(137,79,o),
(137,196,cs),
(137,339,o),
(185,513,o),
(241,537,cs),
(248,540,o),
(261,542,o),
(276,542,cs),
(310,542,o),
(362,540,o),
(392,534,c),
(471,601,l),
(414,606,o),
(314,611,o),
(295,611,cs),
(269,611,o),
(151,535,o),
(112,494,c),
(73,418,o),
(43,284,o),
(43,193,cs),
(43,53,o),
(104,-9,o),
(175,-9,cs)
);
},
{
closed = 1;
nodes = (
(369,14,l),
(398,184,l),
(348,185,l),
(293,14,l)
);
},
{
closed = 1;
nodes = (
(431,428,l),
(471,601,l),
(389,601,l),
(379,428,l)
);
}
);
width = 435;
},
{
anchors = (
{
name = bottom;
pos = (229,0);
},
{
name = top;
pos = (315,591);
}
);
layerId = "16B79A64-180D-495F-8650-CA27198DF3EF";
shapes = (
{
closed = 1;
nodes = (
(202,-9,o),
(301,-2,o),
(331,1,c),
(332,21,l),
(179,22,ls),
(131,22,o),
(84,79,o),
(84,205,cs),
(84,444,o),
(181,511,o),
(223,540,cs),
(246,556,o),
(274,572,o),
(301,572,cs),
(326,572,o),
(370,568,o),
(407,562,c),
(427,591,l),
(378,597,o),
(314,601,o),
(295,601,cs),
(264,601,o),
(181,547,o),
(132,491,c),
(86,426,o),
(52,319,o),
(52,204,cs),
(52,102,o),
(84,-9,o),
(186,-9,cs)
);
},
{
closed = 1;
nodes = (
(331,1,l),
(353,137,l),
(334,138,l),
(299,1,l)
);
},
{
closed = 1;
nodes = (
(403,455,l),
(427,591,l),
(393,591,l),
(384,455,l)
);
}
);
width = 393;
},
{
anchors = (
{
name = bottom;
pos = (269,0);
},
{
name = top;
pos = (361,613);
}
);
layerId = "E259E77F-022A-45EF-A0F1-1168268390B3";
shapes = (
{
closed = 1;
nodes = (
(225,-9,o),
(398,4,o),
(435,14,c),
(436,101,l),
(310,101,ls),
(259,101,o),
(216,112,o),
(216,189,cs),
(216,263,o),
(259,502,o),
(300,520,cs),
(316,527,o),
(331,529,o),
(346,529,cs),
(375,529,o),
(417,520,o),
(447,510,c),
(533,616,l),
(476,621,o),
(373,625,o),
(354,625,cs),
(319,625,o),
(171,557,o),
(97,508,c),
(63,427,o),
(25,280,o),
(25,189,cs),
(25,39,o),
(139,-9,o),
(210,-9,cs)
);
},
{
closed = 1;
nodes = (
(435,14,l),
(466,224,l),
(379,224,l),
(310,14,l)
);
},
{
closed = 1;
nodes = (
(488,391,l),
(533,616,l),
(410,616,l),
(395,391,l)
);
}
);
width = 498;
}
);
metricLeft = O;
unicode = 67;
},
{
color = 4;
glyphname = D;
kernLeft = H;
kernRight = O;
layers = (
{
anchors = (
{
name = bottom;
pos = (201,0);
},
{
name = center;
pos = (186,308);
},
{
name = top;
pos = (339,603);
}
);
layerId = "D9712079-C16A-42CB-8BA4-BD9ECFFACF10";
shapes = (
{
closed = 1;
nodes = (
(272,0,ls),
(448,0,o),
(534,222,o),
(534,416,cs),
(534,550,o),
(454,603,o),
(371,603,cs),
(105,603,l),
(98,565,l),
(185,535,l),
(197,537,o),
(362,551,o),
(382,551,cs),
(421,551,o),
(439,499,o),
(439,420,cs),
(439,290,o),
(382,52,o),
(295,52,cs),
(276,52,o),
(121,68,o),
(111,70,c),
(9,38,l),
(3,0,l)
);
},
{
closed = 1;
nodes = (
(152,0,l),
(253,603,l),
(165,603,l),
(62,0,l)
);
}
);
width = 550;
},
{
anchors = (
{
name = bottom;
pos = (167,0);
},
{
name = center;
pos = (154,308);
},
{
name = top;
pos = (309,591);
}
);
layerId = "16B79A64-180D-495F-8650-CA27198DF3EF";
shapes = (
{
closed = 1;
nodes = (
(211,0,ls),
(382,0,o),
(464,207,o),
(464,404,cs),
(464,538,o),
(401,591,o),
(318,591,cs),
(112,591,l),
(109,576,l),
(184,563,l),
(224,565,o),
(297,568,o),
(317,568,cs),
(386,568,o),
(434,517,o),
(434,408,cs),
(434,156,o),
(314,24,o),
(222,24,cs),
(203,24,o),
(133,25,o),
(93,28,c),
(15,15,l),
(12,0,l)
);
},
{
closed = 1;
nodes = (
(98,0,l),
(199,579,l),
(171,579,l),
(70,0,l)
);
}
);
width = 482;
},
{
anchors = (
{
name = bottom;
pos = (228,0);
},
{
name = center;
pos = (197,308);
},
{
name = top;
pos = (367,613);
}
);
background = {
shapes = (
{
closed = 1;
nodes = (
(226,506,l),
(288,524,o),
(348,536,o),
(363,536,cs),
(402,536,o),
(419,516,o),
(419,437,cs),
(419,307,o),
(369,80,o),
(282,80,cs),
(263,80,o),
(190,94,o),
(140,108,c),
(-14,72,l),
(-25,0,l),
(347,0,ls),
(523,0,o),
(610,227,o),
(610,421,cs),
(610,560,o),
(531,613,o),
(448,613,cs),
(77,613,l),
(66,541,l)
);
},
{
closed = 1;
nodes = (
(320,613,l),
(138,613,l),
(33,0,l),
(215,0,l)
);
}
);
};
layerId = "E259E77F-022A-45EF-A0F1-1168268390B3";
shapes = (
{
closed = 1;
nodes = (
(347,0,ls),
(523,0,o),
(610,227,o),
(610,421,cs),
(610,560,o),
(531,613,o),
(448,613,cs),
(77,613,l),
(66,541,l),
(226,506,l),
(288,524,o),
(348,536,o),
(363,536,cs),
(402,536,o),
(419,516,o),
(419,437,cs),
(419,307,o),
(369,84,o),
(282,84,cs),
(263,84,o),
(190,97,o),
(140,108,c),
(-14,72,l),
(-25,0,l)
);
},
{
closed = 1;
nodes = (
(215,0,l),
(320,613,l),
(138,613,l),
(33,0,l)
);
}
);
width = 608;
}
);
metricLeft = H;
metricRight = O;
unicode = 68;
},
{
color = 4;
glyphname = E;
kernLeft = H;
kernRight = E;
layers = (
{
anchors = (
{
name = bottom;
pos = (235,0);
},
{
name = ogonek;
pos = (397,0);
},
{
name = top;
pos = (302,603);
}
);
layerId = "D9712079-C16A-42CB-8BA4-BD9ECFFACF10";
shapes = (
{
closed = 1;
nodes = (
(152,0,l),
(257,603,l),
(166,603,l),
(61,0,l)
);
},
{
closed = 1;
nodes = (
(397,0,l),
(397,46,l),
(104,69,l),
(9,38,l),
(3,0,l)
);
},
{
closed = 1;
nodes = (
(397,0,l),
(428,179,l),
(378,180,l),
(319,0,l)
);
},
{
closed = 1;
nodes = (
(342,290,l),
(350,337,l),
(192,343,l),
(182,284,l)
);
},
{
closed = 1;
nodes = (
(466,560,l),
(474,603,l),
(105,603,l),
(98,565,l),
(188,534,l)
);
},
{
closed = 1;
nodes = (
(442,428,l),
(474,603,l),
(397,603,l),
(392,428,l)
);
}
);
width = 456;
},
{
anchors = (
{
name = bottom;
pos = (213,0);
},
{
name = ogonek;
pos = (348,0);
},
{
name = top;
pos = (294,591);
}
);
layerId = "16B79A64-180D-495F-8650-CA27198DF3EF";
shapes = (
{
closed = 1;
nodes = (
(98,0,l),
(201,591,l),
(173,591,l),
(70,0,l)
);
},
{
closed = 1;
nodes = (
(339,0,l),
(342,19,l),
(93,28,l),
(15,15,l),
(12,0,l)
);
},
{
closed = 1;
nodes = (
(348,0,l),
(371,136,l),
(352,137,l),
(316,0,l)
);
},
{
closed = 1;
nodes = (
(306,304,l),
(309,323,l),
(149,327,l),
(144,300,l)
);
},
{
closed = 1;
nodes = (
(412,570,l),
(415,591,l),
(112,591,l),
(109,576,l),
(187,563,l)
);
},
{
closed = 1;
nodes = (
(415,465,l),
(436,591,l),
(404,591,l),
(396,465,l)
);
}
);
width = 422;
},
{
anchors = (
{
name = bottom;
pos = (250,0);
},
{
name = ogonek;
pos = (459,0);
},
{
name = top;
pos = (320,613);
}
);
layerId = "E259E77F-022A-45EF-A0F1-1168268390B3";
shapes = (
{
closed = 1;
nodes = (
(215,0,l),
(320,613,l),
(138,613,l),
(33,0,l)
);
},
{
closed = 1;
nodes = (
(416,0,l),
(430,82,l),
(157,108,l),
(-13,72,l),
(-25,0,l)
);
},
{
closed = 1;
nodes = (
(459,0,l),
(494,235,l),
(405,235,l),
(341,0,l)
);
},
{
closed = 1;
nodes = (
(380,269,l),
(396,362,l),
(246,368,l),
(230,263,l)
);
},
{
closed = 1;
nodes = (
(481,532,l),
(495,613,l),
(77,613,l),
(66,541,l),
(213,506,l)
);
},
{
closed = 1;
nodes = (
(520,384,l),
(557,613,l),
(440,613,l),
(431,384,l)
);
}
);
width = 527;
}
);
metricLeft = H;
unicode = 69;
},
{
color = 4;
glyphname = Schwa;
kernLeft = O;
kernRight = O;
layers = (
{
background = {
shapes = (
{
closed = 1;
nodes = (
(106,408,l),
(158,408,l),
(206,575,l),
(124,575,l)
);
},
{
closed = 1;
nodes = (
(294,-9,o),
(405,66,o),
(446,109,c),
(477,176,o),
(513,323,o),
(513,404,cs),
(513,547,o),
(430,611,o),
(337,611,cs),
(312,611,o),
(191,590,o),
(124,575,c),
(129,506,l),
(191,519,o),
(312,549,o),
(326,549,cs),
(380,549,o),
(418,516,o),
(418,417,cs),
(418,334,o),
(383,167,o),
(353,94,c),
(333,77,o),
(274,54,o),
(266,53,c),
(258,52,o),
(250,52,o),
(243,52,cs),
(166,52,o),
(140,100,o),
(140,176,cs),
(140,194,o),
(142,215,o),
(144,237,c),
(415,265,l),
(422,308,l),
(55,281,l),
(49,247,o),
(47,217,o),
(47,191,cs),
(47,24,o),
(151,-9,o),
(259,-9,cs)
);
}
);
};
layerId = "D9712079-C16A-42CB-8BA4-BD9ECFFACF10";
shapes = (
{
closed = 1;
nodes = (
(294,-9,o),
(405,66,o),
(446,109,c),
(477,176,o),
(513,323,o),
(513,404,cs),
(513,547,o),
(430,611,o),
(337,611,cs),
(312,611,o),
(191,590,o),
(124,575,c),
(129,506,l),
(191,519,o),
(312,549,o),
(326,549,cs),
(380,549,o),
(418,516,o),
(418,417,cs),
(418,334,o),
(383,167,o),
(353,94,c),
(331,77,o),
(280,52,o),
(243,52,cs),
(166,52,o),
(140,100,o),
(140,176,cs),
(140,194,o),
(142,215,o),
(144,237,c),
(415,265,l),
(422,308,l),
(55,281,l),
(49,247,o),
(47,217,o),
(47,191,cs),
(47,24,o),
(151,-9,o),
(259,-9,cs)
);
},
{
closed = 1;
nodes = (
(158,408,l),
(206,575,l),
(124,575,l),
(106,408,l)
);
}
);
width = 527;
},
{
background = {
shapes = (
{
closed = 1;
nodes = (
(279,-9,o),
(369,58,o),
(410,101,c),
(460,184,o),
(487,304,o),
(487,388,cs),
(487,519,o),
(426,611,o),
(333,611,cs),
(308,611,o),
(187,595,o),
(120,585,c),
(125,549,l),
(187,561,o),
(306,582,o),
(320,582,cs),
(396,582,o),
(455,516,o),
(455,387,cs),
(455,302,o),
(433,190,o),
(389,114,c),
(363,82,o),
(297,36,o),
(270,26,c),
(258,21,o),
(246,20,o),
(236,20,cs),
(131,20,o),
(93,95,o),
(93,212,cs),
(93,225,o),
(93,238,o),
(94,252,c),
(454,281,l),
(458,301,l),
(65,274,l),
(62,249,o),
(61,226,o),
(61,204,cs),
(61,72,o),
(112,-9,o),
(244,-9,cs)
);
},
{
closed = 1;
nodes = (
(129,449,l),
(154,585,l),
(120,585,l),
(110,449,l)
);
}
);
};
layerId = "16B79A64-180D-495F-8650-CA27198DF3EF";
shapes = (
{
closed = 1;
nodes = (
(279,-9,o),
(369,58,o),
(410,101,c),
(460,184,o),
(487,304,o),
(487,388,cs),
(487,519,o),
(426,611,o),
(333,611,cs),
(308,611,o),
(187,595,o),
(120,585,c),
(125,549,l),
(187,561,o),
(306,582,o),
(320,582,cs),
(396,582,o),
(455,516,o),
(455,387,cs),
(455,302,o),
(433,190,o),
(389,114,c),
(359,80,o),
(285,20,o),
(236,20,cs),
(131,20,o),
(93,95,o),
(93,212,cs),
(93,225,o),
(93,238,o),
(94,252,c),
(454,281,l),
(458,301,l),
(65,274,l),
(62,249,o),
(61,226,o),
(61,204,cs),
(61,72,o),
(112,-9,o),
(244,-9,cs)
);
},
{
closed = 1;
nodes = (
(129,449,l),
(154,585,l),
(120,585,l),
(110,449,l)
);
}
);
width = 505;
},
{
layerId = "E259E77F-022A-45EF-A0F1-1168268390B3";
shapes = (
{
closed = 1;
nodes = (
(296,-13,o),
(440,48,o),
(516,105,c),
(550,188,o),
(587,329,o),
(587,423,cs),
(587,574,o),
(491,625,o),
(339,625,cs),
(314,625,o),
(185,613,o),
(98,602,c),
(136,494,l),
(200,508,o),
(303,529,o),
(317,529,cs),
(371,529,o),
(396,516,o),
(396,417,cs),
(396,341,o),
(367,172,o),
(338,102,c),
(323,93,o),
(289,79,o),
(284,79,cs),
(212,79,o),
(202,113,o),
(202,189,cs),
(202,199,o),
(202,209,o),
(202,220,c),
(431,243,l),
(438,330,l),
(22,300,l),
(14,260,o),
(10,223,o),
(10,190,cs),
(10,61,o),
(77,-13,o),
(259,-13,cs)
);
},
{
closed = 1;
nodes = (
(161,377,l),
(221,602,l),
(98,602,l),
(68,377,l)
);
}
);
width = 582;
}
);
metricRight = O;
unicode = 399;
},
{
color = 4;
glyphname = F;
kernLeft = H;
kernRight = F;
layers = (
{
background = {
shapes = (
{
closed = 1;
nodes = (
(45,38,l),
(39,0,l),
(291,0,l),
(299,44,l),
(199,63,l),
(237,278,l),
(377,283,l),
(386,330,l),
(247,335,l),
(282,540,l),
(294,542,o),
(406,552,o),
(432,554,c),
(428,428,l),
(478,428,l),
(510,603,l),
(141,603,l),
(134,565,l),
(192,545,l),
(107,58,l)
);
}
);
};
layerId = "D9712079-C16A-42CB-8BA4-BD9ECFFACF10";
shapes = (
{
closed = 1;
nodes = (
(152,0,l),
(257,603,l),
(166,603,l),
(61,0,l)
);
},
{
closed = 1;
nodes = (
(255,0,l),
(263,44,l),
(114,72,l),
(9,38,l),
(3,0,l)
);
},
{
closed = 1;
nodes = (
(342,278,l),
(350,325,l),
(192,331,l),
(182,272,l)
);
},
{
closed = 1;
nodes = (
(461,560,l),
(469,603,l),
(105,603,l),
(98,565,l),
(188,534,l)
);
},
{
closed = 1;
nodes = (
(437,428,l),
(469,603,l),
(392,603,l),
(387,428,l)
);
}
);
width = 417;
},
{
layerId = "16B79A64-180D-495F-8650-CA27198DF3EF";
shapes = (
{
closed = 1;
nodes = (
(98,0,l),
(201,591,l),
(173,591,l),
(70,0,l)
);
},
{
closed = 1;
nodes = (
(184,0,l),
(187,18,l),
(93,28,l),
(15,15,l),
(12,0,l)
);
},
{
closed = 1;
nodes = (
(307,293,l),
(310,312,l),
(150,316,l),
(145,289,l)
);
},
{
closed = 1;
nodes = (
(408,570,l),
(411,591,l),
(112,591,l),
(109,576,l),
(187,563,l)
);
},
{
closed = 1;
nodes = (
(411,465,l),
(432,591,l),
(400,591,l),
(392,465,l)
);
}
);
width = 385;
},
{
background = {
shapes = (
{
closed = 1;
nodes = (
(250,506,l),
(513,532,l),
(527,613,l),
(114,613,l),
(103,541,l)
);
},
{
closed = 1;
nodes = (
(357,613,l),
(175,613,l),
(70,0,l),
(252,0,l)
);
},
{
closed = 1;
nodes = (
(463,385,l),
(551,385,l),
(590,613,l),
(551,709,o),
(472,613,l)
);
},
{
closed = 1;
nodes = (
(268,255,l),
(418,261,l),
(434,354,l),
(284,360,l)
);
},
{
closed = 1;
nodes = (
(23,72,l),
(12,0,l),
(351,0,l),
(364,80,l),
(194,108,l)
);
}
);
};
layerId = "E259E77F-022A-45EF-A0F1-1168268390B3";
shapes = (
{
closed = 1;
nodes = (
(215,0,l),
(320,613,l),
(138,613,l),
(33,0,l)
);
},
{
closed = 1;
nodes = (
(314,0,l),
(327,80,l),
(157,108,l),
(-14,72,l),
(-25,0,l)
);
},
{
closed = 1;
nodes = (
(381,252,l),
(397,345,l),
(247,351,l),
(231,246,l)
);
},
{
closed = 1;
nodes = (
(476,532,l),
(490,613,l),
(77,613,l),
(66,541,l),
(213,506,l)
);
},
{
closed = 1;
nodes = (
(515,389,l),
(552,613,l),
(435,613,l),
(426,389,l)
);
}
);
width = 501;
}
);
metricLeft = H;
unicode = 70;
},
{
color = 4;
glyphname = G;
kernLeft = O;
kernRight = G;
layers = (
{
anchors = (
{
name = bottom;
pos = (235,0);
},
{
name = top;
pos = (332,603);
}
);
background = {
shapes = (
{
closed = 1;
nodes = (
(262,-9,o),
(407,38,o),
(440,59,c),
(472,252,l),
(390,252,l),
(359,69,l),
(258,59,l),
(194,59,o),
(172,95,o),
(172,196,cs),
(172,339,o),
(220,513,o),
(276,537,cs),
(283,540,o),
(296,542,o),
(311,542,cs),
(353,542,o),
(411,536,o),
(440,530,c),
(520,599,l),
(464,604,o),
(349,611,o),
(330,611,cs),
(304,611,o),
(186,535,o),
(147,494,c),
(108,418,o),
(78,284,o),
(78,193,cs),
(78,53,o),
(147,-9,o),
(243,-9,cs)
);
},
{
closed = 1;
nodes = (
(522,252,l),
(529,291,l),
(307,291,l),
(299,245,l),
(410,223,l)
);
},
{
closed = 1;
nodes = (
(428,427,l),
(480,427,l),
(520,599,l),
(438,599,l)
);
}
);
};
layerId = "D9712079-C16A-42CB-8BA4-BD9ECFFACF10";
shapes = (
{
closed = 1;
nodes = (
(227,-9,o),
(378,38,o),
(411,59,c),
(443,252,l),
(361,252,l),
(330,69,l),
(223,59,l),
(159,59,o),
(137,95,o),
(137,196,cs),
(137,339,o),
(185,513,o),
(241,537,cs),
(248,540,o),
(261,542,o),
(276,542,cs),
(318,542,o),
(382,536,o),
(411,530,c),
(491,599,l),
(435,604,o),
(314,611,o),
(295,611,cs),
(269,611,o),
(151,535,o),
(112,494,c),
(73,418,o),
(43,284,o),
(43,193,cs),
(43,53,o),
(112,-9,o),
(208,-9,cs)
);
},
{
closed = 1;
nodes = (
(493,252,l),
(500,291,l),
(278,291,l),
(270,245,l),
(381,223,l)
);
},
{
closed = 1;
nodes = (
(451,427,l),
(491,599,l),
(409,599,l),
(399,427,l)
);
}
);
width = 511;
},
{
anchors = (
{
name = bottom;
pos = (217,0);
},
{
name = top;
pos = (314,591);
}
);
background = {
shapes = (
{
closed = 1;
nodes = (
(237,-9,o),
(313,4,o),
(374,17,c),
(417,270,l),
(392,270,l),
(352,31,l),
(224,18,l),
(153,18,o),
(119,87,o),
(119,205,cs),
(119,444,o),
(216,510,o),
(258,540,cs),
(281,556,o),
(309,572,o),
(336,572,cs),
(361,572,o),
(403,567,o),
(442,560,c),
(474,591,l),
(418,596,o),
(349,601,o),
(330,601,cs),
(299,601,o),
(216,547,o),
(167,491,c),
(121,426,o),
(87,319,o),
(87,204,cs),
(87,75,o),
(127,-9,o),
(218,-9,cs)
);
},
{
closed = 1;
nodes = (
(479,269,l),
(482,287,l),
(320,287,l),
(317,269,l),
(401,263,l)
);
},
{
closed = 1;
nodes = (
(430,455,l),
(449,455,l),
(474,591,l),
(440,591,l)
);
}
);
};
layerId = "16B79A64-180D-495F-8650-CA27198DF3EF";
shapes = (
{
closed = 1;
nodes = (
(202,-9,o),
(288,4,o),
(349,17,c),
(392,270,l),
(367,270,l),
(327,31,l),
(189,18,l),
(118,18,o),
(84,87,o),
(84,205,cs),
(84,444,o),
(181,511,o),
(223,540,cs),
(246,556,o),
(274,572,o),
(301,572,cs),
(326,572,o),
(373,567,o),
(412,560,c),
(444,591,l),
(388,596,o),
(314,601,o),
(295,601,cs),
(264,601,o),
(181,547,o),
(132,491,c),
(86,426,o),
(52,319,o),
(52,204,cs),
(52,75,o),
(92,-9,o),
(183,-9,cs)
);
},
{
closed = 1;
nodes = (
(454,269,l),
(457,287,l),
(295,287,l),
(292,269,l),
(376,263,l)
);
},
{
closed = 1;
nodes = (
(419,455,l),
(444,591,l),
(410,591,l),
(400,455,l)
);
}
);
width = 462;
},
{
anchors = (
{
name = bottom;
pos = (278,0);
},
{
name = top;
pos = (362,613);
}
);
layerId = "E259E77F-022A-45EF-A0F1-1168268390B3";
shapes = (
{
closed = 1;
nodes = (
(275,-9,o),
(419,31,o),
(492,59,c),
(524,252,l),
(370,252,l),
(345,106,l),
(294,99,ls),
(248,93,o),
(216,112,o),
(216,189,cs),
(216,263,o),
(259,502,o),
(300,520,cs),
(316,527,o),
(331,529,o),
(346,529,cs),
(384,529,o),
(433,516,o),
(465,504,c),
(566,616,l),
(509,621,o),
(373,625,o),
(354,625,cs),
(319,625,o),
(171,557,o),
(97,508,c),
(63,427,o),
(25,280,o),
(25,189,cs),
(25,39,o),
(169,-9,o),
(240,-9,cs)
);
},
{
closed = 1;
nodes = (
(569,242,l),
(580,315,l),
(309,315,l),
(297,235,l),
(408,213,l)
);
},
{
closed = 1;
nodes = (
(521,391,l),
(566,616,l),
(443,616,l),
(428,391,l)
);
}
);
width = 568;
}
);
metricLeft = O;
unicode = 71;
},
{
color = 4;
glyphname = H;
kernLeft = H;
kernRight = H;
layers = (
{
anchors = (
{
name = bottom;
pos = (259,0);
},
{
name = center;
pos = (338,448);
},
{
name = top;
pos = (365,603);
}
);
layerId = "D9712079-C16A-42CB-8BA4-BD9ECFFACF10";
shapes = (
{
closed = 1;
nodes = (
(459,0,l),
(564,603,l),
(473,603,l),
(368,0,l)
);
},
{
closed = 1;
nodes = (
(216,0,l),
(224,46,l),
(122,74,l),
(9,38,l),
(3,0,l)
);
},
{
closed = 1;
nodes = (
(520,0,l),
(526,38,l),
(422,74,l),
(315,46,l),
(307,0,l)
);
},
{
closed = 1;
nodes = (
(152,0,l),
(257,603,l),
(166,603,l),
(61,0,l)
);
},
{
closed = 1;
nodes = (
(448,284,l),
(457,337,l),
(180,337,l),
(171,284,l)
);
},
{
closed = 1;
nodes = (
(310,557,l),
(318,603,l),
(105,603,l),
(99,565,l),
(203,529,l)
);
},
{
closed = 1;
nodes = (
(616,565,l),
(622,603,l),
(409,603,l),
(401,557,l),
(503,529,l)
);
}
);
width = 597;
},
{
anchors = (
{
name = bottom;
pos = (232,0);
},
{
name = center;
pos = (309,444);
},
{
name = top;
pos = (337,591);
}
);
layerId = "16B79A64-180D-495F-8650-CA27198DF3EF";
shapes = (
{
closed = 1;
nodes = (
(394,0,l),
(497,591,l),
(469,591,l),
(366,0,l)
);
},
{
closed = 1;
nodes = (
(164,0,l),
(167,18,l),
(93,28,l),
(15,15,l),
(12,0,l)
);
},
{
closed = 1;
nodes = (
(455,0,l),
(458,15,l),
(380,28,l),
(306,18,l),
(303,0,l)
);
},
{
closed = 1;
nodes = (
(98,0,l),
(201,591,l),
(173,591,l),
(70,0,l)
);
},
{
closed = 1;
nodes = (
(421,294,l),
(426,317,l),
(149,317,l),
(144,294,l)
);
},
{
closed = 1;
nodes = (
(261,573,l),
(264,591,l),
(112,591,l),
(109,576,l),
(187,563,l)
);
},
{
closed = 1;
nodes = (
(552,576,l),
(555,591,l),
(403,591,l),
(400,573,l),
(474,563,l)
);
}
);
width = 540;
},
{
anchors = (
{
name = bottom;
pos = (289,0);
},
{
name = center;
pos = (368,449);
},
{
name = top;
pos = (392,613);
}
);
layerId = "E259E77F-022A-45EF-A0F1-1168268390B3";
shapes = (
{
closed = 1;
nodes = (
(545,0,l),
(650,613,l),
(468,613,l),
(363,0,l)
);
},
{
closed = 1;
nodes = (
(274,0,l),
(287,80,l),
(157,108,l),
(-14,72,l),
(-25,0,l)
);
},
{
closed = 1;
nodes = (
(606,0,l),
(617,72,l),
(457,108,l),
(320,80,l),
(307,0,l)
);
},
{
closed = 1;
nodes = (
(215,0,l),
(320,613,l),
(138,613,l),
(33,0,l)
);
},
{
closed = 1;
nodes = (
(458,264,l),
(473,357,l),
(231,357,l),
(216,264,l)
);
},
{
closed = 1;
nodes = (
(363,533,l),
(376,613,l),
(77,613,l),
(66,541,l),
(226,505,l)
);
},
{
closed = 1;
nodes = (
(697,541,l),
(708,613,l),
(409,613,l),
(396,533,l),
(526,505,l)
);
}
);
width = 657;
}
);
unicode = 72;
},
{
color = 4;
glyphname = I;
kernLeft = H;
kernRight = H;
layers = (
{
anchors = (
{
name = bottom;
pos = (110,0);
},
{
name = ogonek;
pos = (216,0);
},
{
name = top;
pos = (214,603);
}
);
layerId = "D9712079-C16A-42CB-8BA4-BD9ECFFACF10";
shapes = (
{
closed = 1;
nodes = (
(152,0,l),
(257,603,l),
(166,603,l),
(61,0,l)
);
},
{
closed = 1;
nodes = (
(216,0,l),
(224,46,l),
(122,74,l),
(9,38,l),
(3,0,l)
);
},
{
closed = 1;
nodes = (
(310,557,l),
(318,603,l),
(105,603,l),
(99,565,l),
(203,529,l)
);
}
);
width = 293;
},
{
anchors = (
{
name = bottom;
pos = (85,0);
},
{
name = ogonek;
pos = (164,0);
},
{
name = top;
pos = (192,591);
}
);
layerId = "16B79A64-180D-495F-8650-CA27198DF3EF";
shapes = (
{
closed = 1;
nodes = (
(98,0,l),
(201,591,l),
(173,591,l),
(70,0,l)
);
},
{
closed = 1;
nodes = (
(164,0,l),
(167,18,l),
(93,28,l),
(15,15,l),
(12,0,l)
);
},
{
closed = 1;
nodes = (
(261,573,l),
(264,591,l),
(112,591,l),
(109,576,l),
(187,563,l)
);
}
);
width = 249;
},
{
anchors = (
{
name = bottom;
pos = (125,0);
},
{
name = ogonek;
pos = (279,0);
},
{
name = top;
pos = (231,613);
}
);
layerId = "E259E77F-022A-45EF-A0F1-1168268390B3";
shapes = (
{
closed = 1;
nodes = (
(215,0,l),
(320,613,l),
(138,613,l),
(33,0,l)
);
},
{
closed = 1;
nodes = (
(279,0,l),
(292,80,l),
(157,108,l),
(-14,72,l),
(-25,0,l)
);
},
{
closed = 1;
nodes = (
(368,533,l),
(381,613,l),
(77,613,l),
(66,541,l),
(226,505,l)
);
}
);
width = 330;
}
);
metricLeft = H;
metricRight = H;
unicode = 73;
},
{
color = 4;
glyphname = J;
kernLeft = J;
kernRight = J;
layers = (
{
anchors = (
{
name = top;
pos = (213,603);
}
);
layerId = "D9712079-C16A-42CB-8BA4-BD9ECFFACF10";
shapes = (
{
closed = 1;
nodes = (
(32,-123,o),
(148,-24,o),
(159,38,cs),
(244,540,l),
(156,545,l),
(75,70,ls),
(69,35,o),
(54,-43,o),
(24,-49,cs),
(9,-52,o),
(-48,-52,o),
(-74,-52,c),
(-89,-99,l),
(-56,-110,o),
(-13,-123,o),
(2,-123,cs)
);
},
{
closed = 1;
nodes = (
(310,557,l),
(318,603,l),
(105,603,l),
(99,565,l),
(203,529,l)
);
}
);
width = 281;
},
{
anchors = (
{
name = top;
pos = (187,591);
}
);
layerId = "16B79A64-180D-495F-8650-CA27198DF3EF";
shapes = (
{
closed = 1;
nodes = (
(48,-99,o),
(91,-39,o),
(101,17,cs),
(196,572,l),
(169,577,l),
(73,21,ls),
(64,-29,o),
(43,-68,o),
(27,-71,cs),
(14,-73,o),
(-40,-73,o),
(-66,-73,c),
(-69,-90,l),
(-44,-94,o),
(12,-99,o),
(18,-99,cs)
);
},
{
closed = 1;
nodes = (
(259,573,l),
(262,591,l),
(110,591,l),
(107,576,l),
(185,563,l)
);
}
);
width = 243;
},
{
anchors = (
{
name = top;
pos = (225,613);
}
);
layerId = "E259E77F-022A-45EF-A0F1-1168268390B3";
shapes = (
{
closed = 1;
nodes = (
(69,-153,o),
(207,-23,o),
(218,44,cs),
(303,550,l),
(122,555,l),
(40,80,ls),
(34,45,o),
(19,-34,o),
(-1,-39,cs),
(-14,-42,o),
(-93,-42,o),
(-119,-42,c),
(-137,-120,l),
(-96,-131,o),
(-1,-153,o),
(34,-153,cs)
);
},
{
closed = 1;
nodes = (
(362,533,l),
(375,613,l),
(71,613,l),
(60,541,l),
(220,505,l)
);
}
);
width = 319;
}
);
unicode = 74;
},
{
color = 4;
glyphname = K;
kernLeft = H;
kernRight = K;
layers = (
{
anchors = (
{
name = bottom;
pos = (271,0);
}
);
layerId = "D9712079-C16A-42CB-8BA4-BD9ECFFACF10";
shapes = (
{
closed = 1;
nodes = (
(152,0,l),
(257,603,l),
(166,603,l),
(61,0,l)
);
},
{
closed = 1;
nodes = (
(216,0,l),
(224,46,l),
(122,74,l),
(9,38,l),
(3,0,l)
);
},
{
closed = 1;
nodes = (
(504,0,l),
(510,42,l),
(465,58,l),
(432,106,o),
(340,257,o),
(308,320,c),
(236,320,l),
(231,292,l),
(264,219,o),
(344,63,o),
(374,0,c)
);
},
{
closed = 1;
nodes = (
(310,557,l),
(318,603,l),
(105,603,l),
(99,565,l),
(203,529,l)
);
},
{
closed = 1;
nodes = (
(563,603,l),
(473,603,l),
(236,320,l),
(261,268,l)
);
},
{
closed = 1;
nodes = (
(574,565,l),
(580,603,l),
(368,603,l),
(360,557,l),
(461,529,l)
);
}
);
width = 516;
},
{
anchors = (
{
name = bottom;
pos = (233,0);
}
);
background = {
shapes = (
{
closed = 1;
nodes = (
(258,261,o),
(264,267,o),
(264,275,cs),
(264,283,o),
(258,289,o),
(250,289,cs),
(242,289,o),
(236,283,o),
(236,275,cs),
(236,267,o),
(242,261,o),
(250,261,cs)
);
},
{
closed = 1;
nodes = (
(380,29,o),
(386,35,o),
(386,43,cs),
(386,51,o),
(380,57,o),
(372,57,cs),
(364,57,o),
(358,51,o),
(358,43,cs),
(358,35,o),
(364,29,o),
(372,29,cs)
);
},
{
closed = 1;
nodes = (
(258,326,o),
(264,332,o),
(264,340,cs),
(264,348,o),
(258,354,o),
(250,354,cs),
(242,354,o),
(236,348,o),
(236,340,cs),
(236,332,o),
(242,326,o),
(250,326,cs)
);
},
{
closed = 1;
nodes = (
(478,545,o),
(484,551,o),
(484,559,cs),
(484,567,o),
(478,573,o),
(470,573,cs),
(462,573,o),
(456,567,o),
(456,559,cs),
(456,551,o),
(462,545,o),
(470,545,cs)
);
}
);
};
layerId = "16B79A64-180D-495F-8650-CA27198DF3EF";
shapes = (
{
closed = 1;
nodes = (
(98,0,l),
(201,591,l),
(173,591,l),
(70,0,l)
);
},
{
closed = 1;
nodes = (
(164,0,l),
(167,18,l),
(93,28,l),
(15,15,l),
(12,0,l)
);
},
{
closed = 1;
nodes = (
(443,0,l),
(446,19,l),
(377,28,l),
(343,75,o),
(236,257,o),
(203,320,c),
(181,320,l),
(179,304,l),
(220,231,o),
(319,63,o),
(354,0,c)
);
},
{
closed = 1;
nodes = (
(261,573,l),
(264,591,l),
(112,591,l),
(109,576,l),
(187,563,l)
);
},
{
closed = 1;
nodes = (
(486,591,l),
(451,591,l),
(181,320,l),
(191,303,l)
);
},
{
closed = 1;
nodes = (
(523,573,l),
(526,591,l),
(374,591,l),
(371,570,l),
(445,563,l)
);
}
);
width = 460;
},
{
anchors = (
{
name = bottom;
pos = (314,0);
}
);
background = {
shapes = (
{
closed = 1;
nodes = (
(357,613,l),
(175,613,l),
(70,0,l),
(252,0,l)
);
},
{
closed = 1;
nodes = (
(263,505,l),
(395,533,l),
(408,613,l),
(114,613,l),
(103,541,l)
);
},
{
closed = 1;
nodes = (
(23,72,l),
(12,0,l),
(311,0,l),
(324,80,l),
(194,108,l)
);
},
{
closed = 1;
nodes = (
(403,268,l),
(714,613,l),
(569,613,l),
(328,335,l)
);
},
{
closed = 1;
nodes = (
(703,541,l),
(714,613,l),
(445,613,l),
(432,533,l),
(532,505,l)
);
},
{
closed = 1;
nodes = (
(624,0,l),
(635,72,l),
(582,100,l),
(554,153,o),
(498,276,o),
(465,350,c),
(328,335,l),
(319,278,l),
(341,205,o),
(386,73,o),
(413,0,c)
);
}
);
};
layerId = "E259E77F-022A-45EF-A0F1-1168268390B3";
shapes = (
{
closed = 1;
nodes = (
(215,0,l),
(320,613,l),
(138,613,l),
(33,0,l)
);
},
{
closed = 1;
nodes = (
(274,0,l),
(287,80,l),
(157,108,l),
(-14,72,l),
(-25,0,l)
);
},
{
closed = 1;
nodes = (
(587,0,l),
(598,72,l),
(539,101,l),
(513,154,o),
(460,276,o),
(428,350,c),
(291,335,l),
(282,278,l),
(304,205,o),
(349,73,o),
(376,0,c)
);
},
{
closed = 1;
nodes = (
(358,533,l),
(371,613,l),
(77,613,l),
(66,541,l),
(226,505,l)
);
},
{
closed = 1;
nodes = (
(677,613,l),
(532,613,l),
(291,335,l),
(366,268,l)
);
},
{
closed = 1;
nodes = (
(666,541,l),
(677,613,l),
(408,613,l),
(395,533,l),
(495,505,l)
);
}
);
width = 613;
}
);
metricLeft = H;
unicode = 75;
},
{
color = 4;
glyphname = L;
kernLeft = H;
kernRight = L;
layers = (
{
anchors = (
{
name = bottom;
pos = (224,0);
},
{
name = center;
pos = (207,298);
},
{
name = top;
pos = (220,603);
},
{
name = topright;
pos = (382,448);
}
);
background = {
shapes = (
{
closed = 1;
nodes = (
(45,38,l),
(39,0,l),
(433,0,l),
(464,179,l),
(414,179,l),
(371,49,l),
(325,52,o),
(244,58,o),
(199,63,c),
(107,58,l)
);
}
);
};
guides = (
{
pos = (434,681);
}
);
layerId = "D9712079-C16A-42CB-8BA4-BD9ECFFACF10";
shapes = (
{
closed = 1;
nodes = (
(152,0,l),
(257,603,l),
(166,603,l),
(61,0,l)
);
},
{
closed = 1;
nodes = (
(397,0,l),
(397,44,l),
(104,69,l),
(9,38,l),
(3,0,l)
);
},
{
closed = 1;
nodes = (
(397,0,l),
(431,199,l),
(381,200,l),
(319,0,l)
);
},
{
closed = 1;
nodes = (
(330,557,l),
(338,603,l),
(105,603,l),
(99,565,l),
(203,529,l)
);
}
);
width = 450;
},
{
anchors = (
{
name = bottom;
pos = (203,0);
},
{
name = center;
pos = (175,305);
},
{
name = top;
pos = (191,591);
},
{
name = topright;
pos = (342,440);
}
);
background = {
shapes = (
{
closed = 1;
nodes = (
(307,591,l),
(303,570,l),
(234,564,l),
(143,27,l),
(341,27,l),
(370,142,l),
(388,142,l),
(367,0,l),
(55,0,l),
(58,20,l),
(114,25,l),
(205,566,l),
(152,573,l),
(155,591,l)
);
}
);
};
guides = (
{
pos = (434,637);
}
);
layerId = "16B79A64-180D-495F-8650-CA27198DF3EF";
shapes = (
{
closed = 1;
nodes = (
(98,0,l),
(201,591,l),
(173,591,l),
(70,0,l)
);
},
{
closed = 1;
nodes = (
(319,0,l),
(322,19,l),
(93,28,l),
(15,15,l),
(12,0,l)
);
},
{
closed = 1;
nodes = (
(328,0,l),
(353,147,l),
(334,148,l),
(296,0,l)
);
},
{
closed = 1;
nodes = (
(261,573,l),
(264,591,l),
(112,591,l),
(109,576,l),
(187,563,l)
);
}
);
width = 388;
},
{
anchors = (
{
name = bottom;
pos = (246,0);
},
{
name = center;
pos = (209,307);
},
{
name = top;
pos = (229,613);
},
{
name = topright;
pos = (393,462);
}
);
background = {
shapes = (
{
closed = 1;
nodes = (
(215,0,l),
(320,613,l),
(138,613,l),
(33,0,l)
);
},
{
closed = 1;
nodes = (
(416,0,l),
(430,87,l),
(157,108,l),
(-13,72,l),
(-25,0,l)
);
},
{
closed = 1;
nodes = (
(459,0,l),
(499,263,l),
(412,263,l),
(331,0,l)
);
},
{
closed = 1;
nodes = (
(393,533,l),
(406,613,l),
(77,613,l),
(66,541,l),
(226,505,l)
);
}
);
};
guides = (
{
pos = (434,743);
}
);
layerId = "E259E77F-022A-45EF-A0F1-1168268390B3";
shapes = (
{
closed = 1;
nodes = (
(215,0,l),
(320,613,l),
(138,613,l),
(33,0,l)
);
},
{
closed = 1;
nodes = (
(416,0,l),
(430,87,l),
(157,108,l),
(-13,72,l),
(-25,0,l)
);
},
{
closed = 1;
nodes = (
(459,0,l),
(491,219,l),
(398,219,l),
(331,0,l)
);
},
{
closed = 1;
nodes = (
(393,533,l),
(406,613,l),
(77,613,l),
(66,541,l),
(226,505,l)
);
}
);
width = 511;
}
);
metricLeft = H;
unicode = 76;
},
{
glyphname = Lslash;
kernLeft = H;
kernRight = L;
layers = (
{
background = {
shapes = (
{
closed = 1;
nodes = (
(323,401,l),
(327,419,l),
(319,422,l),
(50,268,l),
(46,251,l),
(55,248,l)
);
}
);
};
layerId = "16B79A64-180D-495F-8650-CA27198DF3EF";
shapes = (
{
ref = L;
},
{
pos = (29,-30);
ref = slashshortcomb.case;
}
);
width = 388;
},
{
background = {
shapes = (
{
closed = 1;
nodes = (
(358,378,l),
(366,428,l),
(353,431,l),
(59,309,l),
(51,258,l),
(63,255,l)
);
}
);
};
layerId = "D9712079-C16A-42CB-8BA4-BD9ECFFACF10";
shapes = (
{
ref = L;
},
{
pos = (22,-54);
ref = slashshortcomb.case;
}
);
width = 450;
},
{
background = {
shapes = (
{
closed = 1;
nodes = (
(398,328,l),
(416,428,l),
(393,441,l),
(55,319,l),
(37,218,l),
(61,205,l)
);
}
);
};
layerId = "E259E77F-022A-45EF-A0F1-1168268390B3";
shapes = (
{
ref = L;
},
{
pos = (7,-21);
ref = slashshortcomb.case;
}
);
width = 511;
}
);
unicode = 321;
},
{
color = 4;
glyphname = M;
kernLeft = M;
kernRight = M;
layers = (
{
background = {
shapes = (
{
closed = 1;
nodes = (
(529,276,o),
(545,292,o),
(545,311,cs),
(545,329,o),
(529,345,o),
(510,345,cs),
(492,345,o),
(476,329,o),
(476,311,cs),
(476,292,o),
(492,276,o),
(510,276,cs)
);
},
{
closed = 1;
nodes = (
(181,256,o),
(197,272,o),
(197,291,cs),
(197,309,o),
(181,325,o),
(162,325,cs),
(144,325,o),
(128,309,o),
(128,291,cs),
(128,272,o),
(144,256,o),
(162,256,cs)
);
},
{
closed = 1;
nodes = (
(668,220,o),
(687,239,o),
(687,263,cs),
(687,286,o),
(668,305,o),
(645,305,cs),
(621,305,o),
(602,286,o),
(602,263,cs),
(602,239,o),
(621,220,o),
(645,220,cs)
);
},
{
closed = 1;
nodes = (
(336,220,o),
(355,239,o),
(355,263,cs),
(355,286,o),
(336,305,o),
(313,305,cs),
(289,305,o),
(270,286,o),
(270,263,cs),
(270,239,o),
(289,220,o),
(313,220,cs)
);
},
{
closed = 1;
nodes = (
(308,603,l),
(128,603,l),
(121,565,l),
(226,529,l)
);
},
{
closed = 1;
nodes = (
(664,525,l),
(786,565,l),
(793,603,l),
(607,603,l)
);
},
{
closed = 1;
nodes = (
(653,0,l),
(733,603,l),
(607,603,l),
(386,121,l),
(375,121,l),
(308,603,l),
(191,603,l),
(67,0,l),
(150,0,l),
(242,491,l),
(249,491,l),
(249,491,o),
(264,347,o),
(272,295,cs),
(310,42,l),
(324,34,l),
(421,48,l),
(544,301,ls),
(575,365,o),
(630,491,o),
(630,491,c),
(637,491,l),
(562,0,l)
);
},
{
closed = 1;
nodes = (
(17,38,l),
(11,0,l),
(215,0,l),
(223,46,l),
(125,73,l)
);
},
{
closed = 1;
nodes = (
(712,0,l),
(718,38,l),
(614,74,l),
(508,46,l),
(500,0,l)
);
}
);
};
layerId = "D9712079-C16A-42CB-8BA4-BD9ECFFACF10";
shapes = (
{
closed = 1;
nodes = (
(110,0,l),
(208,499,l),
(215,499,l),
(221,434,o),
(231,333,o),
(237,295,cs),
(275,42,l),
(289,34,l),
(388,48,l),
(511,301,ls),
(530,340,o),
(575,442,o),
(602,499,c),
(609,499,l),
(534,0,l),
(625,0,l),
(705,603,l),
(582,603,l),
(358,121,l),
(347,121,l),
(280,603,l),
(166,603,l),
(42,0,l)
);
},
{
closed = 1;
nodes = (
(187,0,l),
(195,46,l),
(97,73,l),
(-8,38,l),
(-14,0,l)
);
},
{
closed = 1;
nodes = (
(684,0,l),
(690,38,l),
(586,74,l),
(480,46,l),
(472,0,l)
);
},
{
closed = 1;
nodes = (
(280,603,l),
(103,603,l),
(96,565,l),
(198,529,l)
);
},
{
closed = 1;
nodes = (
(758,565,l),
(765,603,l),
(582,603,l),
(636,525,l)
);
}
);
width = 745;
},
{
background = {
shapes = (
{
closed = 1;
nodes = (
(250,591,l),
(144,591,l),
(141,573,l),
(219,563,l)
);
},
{
closed = 1;
nodes = (
(572,563,l),
(650,573,l),
(653,591,l),
(549,591,l)
);
},
{
closed = 1;
nodes = (
(508,0,l),
(595,591,l),
(549,591,l),
(317,62,l),
(308,62,l),
(250,591,l),
(205,591,l),
(93,0,l),
(120,0,l),
(222,549,l),
(229,549,l),
(229,549,o),
(254,306,o),
(260,254,cs),
(285,42,l),
(299,34,l),
(337,48,l),
(434,262,ls),
(463,326,o),
(557,549,o),
(557,549,c),
(564,549,l),
(480,0,l)
);
},
{
closed = 1;
nodes = (
(116,28,l),
(40,18,l),
(37,0,l),
(185,0,l),
(188,21,l)
);
},
{
closed = 1;
nodes = (
(493,28,l),
(419,21,l),
(416,0,l),
(568,0,l),
(571,18,l)
);
}
);
};
layerId = "16B79A64-180D-495F-8650-CA27198DF3EF";
shapes = (
{
closed = 1;
nodes = (
(83,0,l),
(189,554,l),
(197,554,l),
(207,447,o),
(223,292,o),
(227,254,cs),
(252,42,l),
(266,34,l),
(300,48,l),
(397,262,ls),
(426,326,o),
(524,554,o),
(525,554,c),
(532,554,l),
(447,0,l),
(475,0,l),
(562,591,l),
(518,591,l),
(285,61,l),
(276,61,l),
(217,591,l),
(174,591,l),
(62,0,l)
);
},
{
closed = 1;
nodes = (
(152,0,l),
(155,18,l),
(83,28,l),
(9,15,l),
(6,0,l)
);
},
{
closed = 1;
nodes = (
(535,0,l),
(538,15,l),
(460,28,l),
(386,18,l),
(383,0,l)
);
},
{
closed = 1;
nodes = (
(217,591,l),
(113,591,l),
(110,576,l),
(186,563,l)
);
},
{
closed = 1;
nodes = (
(617,576,l),
(620,591,l),
(518,591,l),
(539,563,l)
);
}
);
width = 609;
},
{
background = {
shapes = (
{
closed = 1;
nodes = (
(399,613,l),
(120,613,l),
(109,541,l),
(269,505,l)
);
},
{
closed = 1;
nodes = (
(727,505,l),
(898,541,l),
(908,613,l),
(614,613,l)
);
},
{
closed = 1;
nodes = (
(775,0,l),
(848,613,l),
(614,613,l),
(467,283,l),
(448,283,l),
(399,613,l),
(185,613,l),
(48,0,l),
(208,0,l),
(275,363,l),
(290,363,l),
(291,332,o),
(296,285,o),
(303,248,cs),
(345,38,l),
(384,26,l),
(473,44,l),
(595,288,ls),
(605,308,o),
(618,333,o),
(627,361,c),
(642,361,l),
(597,0,l)
);
},
{
closed = 1;
nodes = (
(-1,72,l),
(-12,0,l),
(272,0,l),
(285,80,l),
(170,108,l)
);
},
{
closed = 1;
nodes = (
(683,108,l),
(551,80,l),
(538,0,l),
(832,0,l),
(843,72,l)
);
},
{
closed = 1;
nodes = (
(570,246,o),
(596,272,o),
(596,303,cs),
(596,334,o),
(570,360,o),
(539,360,cs),
(507,360,o),
(481,334,o),
(481,303,cs),
(481,272,o),
(507,246,o),
(539,246,cs)
);
},
{
closed = 1;
nodes = (
(206,246,o),
(232,272,o),
(232,303,cs),
(232,334,o),
(206,360,o),
(175,360,cs),
(143,360,o),
(117,334,o),
(117,303,cs),
(117,272,o),
(143,246,o),
(175,246,cs)
);
},
{
closed = 1;
nodes = (
(766,174,o),
(806,214,o),
(806,262,cs),
(806,310,o),
(766,350,o),
(718,350,cs),
(670,350,o),
(630,310,o),
(630,262,cs),
(630,214,o),
(670,174,o),
(718,174,cs)
);
},
{
closed = 1;
nodes = (
(419,174,o),
(459,214,o),
(459,262,cs),
(459,310,o),
(419,350,o),
(371,350,cs),
(323,350,o),
(283,310,o),
(283,262,cs),
(283,214,o),
(323,174,o),
(371,174,cs)
);
}
);
};
layerId = "E259E77F-022A-45EF-A0F1-1168268390B3";
shapes = (
{
closed = 1;
nodes = (
(144,0,l),
(216,383,l),
(231,383,l),
(235,352,o),
(242,305,o),
(248,268,cs),
(285,38,l),
(324,26,l),
(441,44,l),
(568,309,ls),
(578,329,o),
(590,354,o),
(600,382,c),
(615,382,l),
(565,0,l),
(743,0,l),
(816,613,l),
(587,613,l),
(440,283,l),
(421,283,l),
(372,613,l),
(158,613,l),
(21,0,l)
);
},
{
closed = 1;
nodes = (
(230,0,l),
(243,80,l),
(138,108,l),
(-28,72,l),
(-39,0,l)
);
},
{
closed = 1;
nodes = (
(800,0,l),
(811,72,l),
(651,108,l),
(519,80,l),
(506,0,l)
);
},
{
closed = 1;
nodes = (
(372,613,l),
(93,613,l),
(82,541,l),
(237,505,l)
);
},
{
closed = 1;
nodes = (
(866,541,l),
(876,613,l),
(587,613,l),
(695,505,l)
);
}
);
width = 841;
}
);
unicode = 77;
},
{
color = 4;
glyphname = N;
kernLeft = H;
kernRight = N;
layers = (
{
anchors = (
{
name = bottom;
pos = (274,0);
},
{
name = top;
pos = (359,603);
}
);
layerId = "D9712079-C16A-42CB-8BA4-BD9ECFFACF10";
shapes = (
{
closed = 1;
nodes = (
(460,7,l),
(564,603,l),
(478,603,l),
(402,81,l),
(395,81,l),
(384,146,o),
(367,242,o),
(360,268,cs),
(277,603,l),
(166,603,l),
(61,0,l),
(147,0,l),
(219,496,l),
(226,496,l),
(237,432,o),
(255,333,o),
(264,295,cs),
(337,1,l),
(351,-7,l)
);
},
{
closed = 1;
nodes = (
(208,0,l),
(216,46,l),
(114,74,l),
(9,38,l),
(3,0,l)
);
},
{
closed = 1;
nodes = (
(277,603,l),
(105,603,l),
(98,565,l),
(203,529,l)
);
},
{
closed = 1;
nodes = (
(616,565,l),
(622,603,l),
(416,603,l),
(408,557,l),
(502,529,l)
);
}
);
width = 591;
},
{
anchors = (
{
name = bottom;
pos = (237,0);
},
{
name = top;
pos = (329,591);
}
);
layerId = "16B79A64-180D-495F-8650-CA27198DF3EF";
shapes = (
{
closed = 1;
nodes = (
(394,7,l),
(496,591,l),
(470,591,l),
(372,25,l),
(366,25,l),
(343,114,o),
(311,242,o),
(304,268,cs),
(219,591,l),
(172,591,l),
(69,0,l),
(99,0,l),
(194,563,l),
(200,563,l),
(223,470,o),
(258,333,o),
(268,295,cs),
(346,1,l),
(360,-7,l)
);
},
{
closed = 1;
nodes = (
(164,0,l),
(167,18,l),
(93,28,l),
(15,15,l),
(12,0,l)
);
},
{
closed = 1;
nodes = (
(219,591,l),
(112,591,l),
(109,576,l),
(187,563,l)
);
},
{
closed = 1;
nodes = (
(552,576,l),
(555,591,l),
(403,591,l),
(400,573,l),
(474,563,l)
);
}
);
width = 530;
},
{
anchors = (
{
name = bottom;
pos = (315,0);
},
{
name = top;
pos = (391,613);
}
);
layerId = "E259E77F-022A-45EF-A0F1-1168268390B3";
shapes = (
{
closed = 1;
nodes = (
(544,7,l),
(648,613,l),
(490,613,l),
(435,262,l),
(423,262,l),
(410,307,o),
(380,391,o),
(369,428,cs),
(312,613,l),
(138,613,l),
(33,0,l),
(197,0,l),
(238,324,l),
(251,324,l),
(262,282,o),
(294,199,o),
(311,155,cs),
(367,11,l),
(394,-7,l)
);
},
{
closed = 1;
nodes = (
(264,0,l),
(277,80,l),
(157,108,l),
(-14,72,l),
(-25,0,l)
);
},
{
closed = 1;
nodes = (
(312,613,l),
(77,613,l),
(66,541,l),
(253,505,l)
);
},
{
closed = 1;
nodes = (
(694,541,l),
(705,613,l),
(419,613,l),
(406,533,l),
(536,505,l)
);
}
);
width = 651;
}
);
metricLeft = H;
unicode = 78;
},
{
color = 4;
glyphname = Nhookleft;
kernLeft = J;
kernRight = N;
layers = (
{
layerId = "D9712079-C16A-42CB-8BA4-BD9ECFFACF10";
shapes = (
{
closed = 1;
nodes = (
(27,-153,o),
(141,-54,o),
(150,8,cs),
(221,496,l),
(228,496,l),
(239,432,o),
(257,333,o),
(266,295,cs),
(339,1,l),
(353,-7,l),
(462,7,l),
(566,603,l),
(480,603,l),
(404,81,l),
(397,81,l),
(362,268,l),
(279,603,l),
(168,603,l),
(70,40,ls),
(64,5,o),
(49,-73,o),
(19,-79,cs),
(4,-82,o),
(-53,-82,o),
(-79,-82,c),
(-94,-129,l),
(-61,-138,o),
(-18,-153,o),
(-3,-153,cs)
);
},
{
closed = 1;
nodes = (
(279,603,l),
(107,603,l),
(100,565,l),
(205,529,l)
);
},
{
closed = 1;
nodes = (
(618,565,l),
(624,603,l),
(418,603,l),
(410,557,l),
(504,529,l)
);
}
);
width = 593;
},
{
layerId = "16B79A64-180D-495F-8650-CA27198DF3EF";
shapes = (
{
closed = 1;
nodes = (
(43,-129,o),
(88,-69,o),
(97,-13,cs),
(194,563,l),
(200,563,l),
(223,470,o),
(258,333,o),
(268,295,cs),
(346,1,l),
(360,-7,l),
(394,7,l),
(496,591,l),
(470,591,l),
(372,25,l),
(366,25,l),
(304,268,l),
(219,591,l),
(172,591,l),
(68,-9,ls),
(59,-59,o),
(38,-98,o),
(22,-101,cs),
(7,-104,o),
(-45,-103,o),
(-71,-103,c),
(-74,-120,l),
(-49,-124,o),
(7,-129,o),
(13,-129,cs)
);
},
{
closed = 1;
nodes = (
(219,591,l),
(112,591,l),
(109,573,l),
(187,563,l)
);
},
{
closed = 1;
nodes = (
(552,573,l),
(555,591,l),
(403,591,l),
(400,570,l),
(474,563,l)
);
}
);
width = 530;
},
{
layerId = "E259E77F-022A-45EF-A0F1-1168268390B3";
shapes = (
{
closed = 1;
nodes = (
(64,-184,o),
(184,-54,o),
(192,13,cs),
(231,324,l),
(244,324,l),
(255,282,o),
(287,199,o),
(304,155,cs),
(360,11,l),
(387,-7,l),
(537,7,l),
(641,613,l),
(483,613,l),
(428,262,l),
(416,262,l),
(362,428,l),
(305,613,l),
(131,613,l),
(35,49,ls),
(29,14,o),
(14,-65,o),
(-6,-70,cs),
(-21,-74,o),
(-98,-73,o),
(-124,-73,c),
(-142,-151,l),
(-101,-162,o),
(-6,-184,o),
(29,-184,cs)
);
},
{
closed = 1;
nodes = (
(305,613,l),
(70,613,l),
(59,541,l),
(246,505,l)
);
},
{
closed = 1;
nodes = (
(687,541,l),
(698,613,l),
(412,613,l),
(399,533,l),
(529,505,l)
);
}
);
width = 644;
}
);
metricLeft = J;
metricRight = N;
unicode = 413;
},
{
color = 4;
glyphname = Eng;
kernLeft = H;
kernRight = J;
layers = (
{
layerId = "D9712079-C16A-42CB-8BA4-BD9ECFFACF10";
shapes = (
{
closed = 1;
nodes = (
(460,7,l),
(564,603,l),
(478,603,l),
(413,146,l),
(406,146,l),
(394,204,o),
(376,290,o),
(368,316,cs),
(277,603,l),
(166,603,l),
(61,0,l),
(147,0,l),
(219,496,l),
(226,496,l),
(242,432,o),
(268,333,o),
(280,295,cs),
(380,-15,l)
);
},
{
closed = 1;
nodes = (
(208,0,l),
(216,46,l),
(114,74,l),
(9,38,l),
(3,0,l)
);
},
{
closed = 1;
nodes = (
(349,-153,o),
(449,-55,o),
(460,7,c),
(392,40,l),
(386,5,o),
(371,-73,o),
(341,-79,cs),
(326,-82,o),
(269,-82,o),
(243,-82,c),
(228,-129,l),
(261,-138,o),
(304,-153,o),
(319,-153,cs)
);
},
{
closed = 1;
nodes = (
(277,603,l),
(105,603,l),
(98,565,l),
(203,529,l)
);
},
{
closed = 1;
nodes = (
(616,565,l),
(622,603,l),
(416,603,l),
(408,557,l),
(502,529,l)
);
}
);
width = 586;
},
{
layerId = "16B79A64-180D-495F-8650-CA27198DF3EF";
shapes = (
{
closed = 1;
nodes = (
(393,7,l),
(495,591,l),
(469,591,l),
(377,45,l),
(371,45,l),
(350,126,o),
(318,242,o),
(311,268,cs),
(218,591,l),
(171,591,l),
(68,0,l),
(98,0,l),
(193,563,l),
(199,563,l),
(224,470,o),
(260,333,o),
(272,295,cs),
(365,-9,l)
);
},
{
closed = 1;
nodes = (
(163,0,l),
(166,21,l),
(92,28,l),
(14,18,l),
(11,0,l)
);
},
{
closed = 1;
nodes = (
(342,-129,o),
(382,-71,o),
(393,7,c),
(371,24,l),
(358,-48,o),
(341,-97,o),
(319,-101,cs),
(304,-104,o),
(252,-103,o),
(226,-103,c),
(223,-120,l),
(248,-124,o),
(304,-129,o),
(310,-129,cs)
);
},
{
closed = 1;
nodes = (
(218,591,l),
(111,591,l),
(108,573,l),
(186,563,l)
);
},
{
closed = 1;
nodes = (
(551,573,l),
(554,591,l),
(402,591,l),
(399,570,l),
(473,563,l)
);
}
);
width = 535;
},
{
layerId = "E259E77F-022A-45EF-A0F1-1168268390B3";
shapes = (
{
closed = 1;
nodes = (
(544,7,l),
(648,613,l),
(490,613,l),
(438,255,l),
(426,255,l),
(416,300,o),
(392,392,o),
(379,428,cs),
(312,613,l),
(138,613,l),
(33,0,l),
(197,0,l),
(238,324,l),
(251,324,l),
(267,282,o),
(300,198,o),
(320,155,cs),
(394,-7,l)
);
},
{
closed = 1;
nodes = (
(264,0,l),
(277,80,l),
(157,108,l),
(-14,72,l),
(-25,0,l)
);
},
{
closed = 1;
nodes = (
(427,-184,o),
(533,-60,o),
(544,7,c),
(398,49,l),
(392,14,o),
(377,-65,o),
(357,-70,cs),
(342,-74,o),
(265,-73,o),
(239,-73,c),
(221,-151,l),
(262,-162,o),
(357,-184,o),
(392,-184,cs)
);
},
{
closed = 1;
nodes = (
(312,613,l),
(77,613,l),
(66,541,l),
(253,505,l)
);
},
{
closed = 1;
nodes = (
(694,541,l),
(705,613,l),
(419,613,l),
(406,533,l),
(536,505,l)
);
}
);
width = 649;
}
);
metricLeft = H;
metricRight = J;
unicode = 330;
},
{
color = 4;
glyphname = O;
kernLeft = O;
kernRight = O;
layers = (
{
anchors = (
{
name = bottom;
pos = (226,0);
},
{
name = center;
pos = (280,307);
},
{
name = ogonek;
pos = (288,0);
},
{
name = top;
pos = (327,603);
},
{
name = topright;
pos = (374,603);
}
);
background = {
shapes = (
{
closed = 1;
nodes = (
(324,-9,o),
(438,62,o),
(479,108,c),
(513,192,o),
(547,315,o),
(547,409,cs),
(547,550,o),
(474,611,o),
(332,611,cs),
(306,611,o),
(188,535,o),
(149,494,c),
(115,413,o),
(80,284,o),
(80,193,cs),
(80,53,o),
(153,-9,o),
(295,-9,cs)
);
},
{
closed = 1;
nodes = (
(210,51,o),
(174,84,o),
(174,179,cs),
(174,266,o),
(214,488,o),
(269,543,c),
(289,548,o),
(315,552,o),
(343,552,cs),
(402,552,o),
(452,529,o),
(452,427,cs),
(452,340,o),
(419,177,o),
(387,94,c),
(381,86,o),
(312,51,o),
(297,51,cs)
);
}
);
};
layerId = "D9712079-C16A-42CB-8BA4-BD9ECFFACF10";
shapes = (
{
closed = 1;
nodes = (
(289,-9,o),
(403,62,o),
(444,108,c),
(478,192,o),
(512,315,o),
(512,409,cs),
(512,550,o),
(439,611,o),
(297,611,cs),
(272,611,o),
(151,538,o),
(116,495,c),
(79,435,o),
(45,299,o),
(45,203,cs),
(45,56,o),
(111,-9,o),
(260,-9,cs)
);
},
{
closed = 1;
nodes = (
(165,51,o),
(139,91,o),
(139,196,cs),
(139,339,o),
(186,514,o),
(243,537,cs),
(263,545,o),
(281,548,o),
(308,548,cs),
(379,548,o),
(417,515,o),
(417,427,cs),
(417,340,o),
(384,177,o),
(352,94,c),
(346,86,o),
(277,51,o),
(262,51,cs)
);
}
);
width = 526;
},
{
anchors = (
{
name = bottom;
pos = (214,0);
},
{
name = center;
pos = (269,307);
},
{
name = ogonek;
pos = (264,0);
},
{
name = top;
pos = (312,591);
},
{
name = topright;
pos = (365,591);
}
);
background = {
shapes = (
{
closed = 1;
nodes = (
(106,175,o),
(112,181,o),
(112,189,cs),
(112,197,o),
(106,203,o),
(98,203,cs),
(90,203,o),
(84,197,o),
(84,189,cs),
(84,181,o),
(90,175,o),
(98,175,cs)
);
},
{
closed = 1;
nodes = (
(255,542,o),
(259,546,o),
(259,552,cs),
(259,558,o),
(255,562,o),
(249,562,cs),
(243,562,o),
(239,558,o),
(239,552,cs),
(239,546,o),
(243,542,o),
(249,542,cs)
);
},
{
closed = 1;
nodes = (
(315,8,o),
(319,12,o),
(319,18,cs),
(319,24,o),
(315,28,o),
(309,28,cs),
(303,28,o),
(299,24,o),
(299,18,cs),
(299,12,o),
(303,8,o),
(309,8,cs)
);
},
{
closed = 1;
nodes = (
(388,57,o),
(392,61,o),
(392,67,cs),
(392,73,o),
(388,77,o),
(382,77,cs),
(376,77,o),
(372,73,o),
(372,67,cs),
(372,61,o),
(376,57,o),
(382,57,cs)
);
},
{
closed = 1;
nodes = (
(297,-9,o),
(392,53,o),
(433,101,c),
(483,184,o),
(510,304,o),
(510,388,cs),
(510,519,o),
(459,601,o),
(327,601,cs),
(296,601,o),
(213,547,o),
(164,491,c),
(118,426,o),
(84,319,o),
(84,204,cs),
(84,73,o),
(135,-9,o),
(267,-9,cs)
);
},
{
closed = 1;
nodes = (
(153,20,o),
(116,100,o),
(116,205,cs),
(116,467,o),
(239,530,o),
(279,555,c),
(299,565,o),
(312,572,o),
(335,572,cs),
(441,572,o),
(478,492,o),
(478,387,cs),
(478,302,o),
(456,190,o),
(412,114,c),
(386,82,o),
(320,36,o),
(293,26,c),
(281,21,o),
(269,20,o),
(259,20,cs)
);
}
);
};
layerId = "16B79A64-180D-495F-8650-CA27198DF3EF";
shapes = (
{
closed = 1;
nodes = (
(265,-9,o),
(360,53,o),
(401,101,c),
(451,184,o),
(478,304,o),
(478,388,cs),
(478,519,o),
(427,601,o),
(295,601,cs),
(264,601,o),
(181,547,o),
(132,491,c),
(86,426,o),
(52,319,o),
(52,204,cs),
(52,73,o),
(103,-9,o),
(235,-9,cs)
);
},
{
closed = 1;
nodes = (
(129,20,o),
(84,86,o),
(84,205,cs),
(84,444,o),
(181,511,o),
(223,540,cs),
(246,556,o),
(274,572,o),
(301,572,cs),
(409,572,o),
(446,492,o),
(446,387,cs),
(446,302,o),
(424,190,o),
(380,114,c),
(352,83,o),
(277,20,o),
(232,20,cs)
);
}
);
width = 496;
},
{
anchors = (
{
name = bottom;
pos = (261,0);
},
{
name = center;
pos = (314,307);
},
{
name = ogonek;
pos = (326,0);
},
{
name = top;
pos = (360,613);
},
{
name = topright;
pos = (462,613);
}
);
layerId = "E259E77F-022A-45EF-A0F1-1168268390B3";
shapes = (
{
closed = 1;
nodes = (
(311,-13,o),
(455,48,o),
(531,104,c),
(565,188,o),
(602,329,o),
(602,423,cs),
(602,574,o),
(506,625,o),
(354,625,cs),
(319,625,o),
(171,557,o),
(97,508,c),
(63,427,o),
(25,280,o),
(25,189,cs),
(25,39,o),
(122,-13,o),
(274,-13,cs)
);
},
{
closed = 1;
nodes = (
(229,79,o),
(216,112,o),
(216,189,cs),
(216,263,o),
(258,502,o),
(300,520,cs),
(316,527,o),
(331,529,o),
(346,529,cs),
(394,529,o),
(411,494,o),
(411,417,cs),
(411,341,o),
(382,172,o),
(353,102,c),
(338,93,o),
(304,79,o),
(299,79,cs)
);
}
);
width = 597;
}
);
unicode = 79;
},
{
color = 4;
glyphname = OE;
kernLeft = O;
kernRight = E;
layers = (
{
layerId = "D9712079-C16A-42CB-8BA4-BD9ECFFACF10";
shapes = (
{
closed = 1;
nodes = (
(382,0,l),
(374,77,l),
(327,67,o),
(287,61,o),
(253,61,cs),
(177,61,o),
(138,93,o),
(138,188,cs),
(138,339,o),
(182,505,o),
(242,534,cs),
(258,542,o),
(282,545,o),
(309,545,cs),
(354,545,o),
(408,536,o),
(451,524,c),
(508,603,l),
(298,603,ls),
(268,603,o),
(155,533,o),
(115,487,c),
(78,427,o),
(44,297,o),
(44,202,cs),
(44,62,o),
(117,0,o),
(259,0,cs)
);
},
{
closed = 1;
nodes = (
(424,0,l),
(529,603,l),
(438,603,l),
(333,0,l)
);
},
{
closed = 1;
nodes = (
(738,560,l),
(746,603,l),
(438,603,l),
(460,534,l)
);
},
{
closed = 1;
nodes = (
(714,428,l),
(746,603,l),
(669,603,l),
(664,428,l)
);
},
{
closed = 1;
nodes = (
(614,290,l),
(622,337,l),
(464,343,l),
(454,284,l)
);
},
{
closed = 1;
nodes = (
(669,0,l),
(669,44,l),
(376,69,l),
(333,0,l)
);
},
{
closed = 1;
nodes = (
(669,0,l),
(700,179,l),
(650,180,l),
(591,0,l)
);
}
);
width = 728;
},
{
layerId = "16B79A64-180D-495F-8650-CA27198DF3EF";
shapes = (
{
closed = 1;
nodes = (
(374,0,l),
(365,33,l),
(325,27,o),
(291,24,o),
(260,24,cs),
(128,24,o),
(84,73,o),
(84,218,cs),
(84,433,o),
(182,501,o),
(224,530,cs),
(247,546,o),
(278,564,o),
(303,564,cs),
(364,564,o),
(404,562,o),
(449,557,c),
(465,591,l),
(296,591,ls),
(265,591,o),
(182,538,o),
(133,482,c),
(85,422,o),
(53,322,o),
(53,204,cs),
(53,73,o),
(104,0,o),
(236,0,cs)
);
},
{
closed = 1;
nodes = (
(370,0,l),
(473,591,l),
(445,591,l),
(342,0,l)
);
},
{
closed = 1;
nodes = (
(684,570,l),
(687,591,l),
(445,591,l),
(452,563,l)
);
},
{
closed = 1;
nodes = (
(687,465,l),
(708,591,l),
(676,591,l),
(668,465,l)
);
},
{
closed = 1;
nodes = (
(578,298,l),
(581,317,l),
(421,321,l),
(416,294,l)
);
},
{
closed = 1;
nodes = (
(611,0,l),
(614,19,l),
(365,28,l),
(342,0,l)
);
},
{
closed = 1;
nodes = (
(620,0,l),
(643,136,l),
(624,137,l),
(588,0,l)
);
}
);
width = 694;
},
{
layerId = "E259E77F-022A-45EF-A0F1-1168268390B3";
shapes = (
{
closed = 1;
nodes = (
(489,0,l),
(465,112,l),
(389,95,o),
(338,87,o),
(295,87,cs),
(239,87,o),
(216,109,o),
(216,189,cs),
(216,263,o),
(255,482,o),
(300,508,cs),
(311,515,o),
(338,518,o),
(368,518,cs),
(399,518,o),
(433,515,o),
(460,507,c),
(532,613,l),
(354,613,ls),
(319,613,o),
(171,545,o),
(97,496,c),
(63,415,o),
(25,280,o),
(25,202,cs),
(25,52,o),
(122,0,o),
(274,0,cs)
);
},
{
closed = 1;
nodes = (
(529,0,l),
(634,613,l),
(452,613,l),
(347,0,l)
);
},
{
closed = 1;
nodes = (
(805,532,l),
(819,613,l),
(452,613,l),
(527,506,l)
);
},
{
closed = 1;
nodes = (
(845,384,l),
(882,613,l),
(765,613,l),
(756,384,l)
);
},
{
closed = 1;
nodes = (
(704,269,l),
(720,362,l),
(560,368,l),
(544,263,l)
);
},
{
closed = 1;
nodes = (
(740,0,l),
(754,82,l),
(471,108,l),
(347,0,l)
);
},
{
closed = 1;
nodes = (
(784,0,l),
(819,235,l),
(730,235,l),
(666,0,l)
);
}
);
width = 852;
}
);
metricLeft = O;
metricRight = E;
unicode = 338;
},
{
color = 4;
glyphname = P;
kernLeft = H;
kernRight = P;
layers = (
{
background = {
shapes = (
{
closed = 1;
nodes = (
(185,215,l),
(300,215,ls),
(395,215,o),
(492,270,o),
(518,429,c),
(540,557,o),
(489,603,o),
(394,603,cs),
(142,603,l),
(135,565,l),
(219,536,l),
(234,538,o),
(372,552,o),
(391,552,cs),
(427,552,o),
(436,494,o),
(419,396,cs),
(398,277,o),
(371,272,o),
(321,272,cs),
(194,272,l)
);
},
{
closed = 1;
nodes = (
(293,603,l),
(202,603,l),
(97,0,l),
(188,0,l)
);
},
{
closed = 1;
nodes = (
(45,38,l),
(39,0,l),
(272,0,l),
(280,46,l),
(158,74,l)
);
}
);
};
layerId = "D9712079-C16A-42CB-8BA4-BD9ECFFACF10";
shapes = (
{
closed = 1;
nodes = (
(263,215,ls),
(407,215,o),
(486,340,o),
(486,483,cs),
(486,570,o),
(437,603,o),
(357,603,cs),
(105,603,l),
(98,565,l),
(182,536,l),
(197,538,o),
(335,552,o),
(354,552,cs),
(378,552,o),
(390,526,o),
(390,478,cs),
(390,427,o),
(383,272,o),
(294,272,cs),
(157,272,l),
(148,215,l)
);
},
{
closed = 1;
nodes = (
(235,0,l),
(243,46,l),
(121,74,l),
(8,38,l),
(2,0,l)
);
},
{
closed = 1;
nodes = (
(151,0,l),
(256,603,l),
(165,603,l),
(60,0,l)
);
}
);
width = 476;
},
{
layerId = "16B79A64-180D-495F-8650-CA27198DF3EF";
shapes = (
{
closed = 1;
nodes = (
(228,241,ls),
(360,241,o),
(426,345,o),
(426,477,cs),
(426,558,o),
(387,591,o),
(306,591,cs),
(112,591,l),
(109,576,l),
(188,563,l),
(242,565,o),
(305,567,o),
(324,567,cs),
(380,567,o),
(396,522,o),
(396,466,cs),
(396,360,o),
(340,267,o),
(250,267,cs),
(129,267,l),
(124,241,l)
);
},
{
closed = 1;
nodes = (
(184,0,l),
(187,18,l),
(93,28,l),
(15,15,l),
(12,0,l)
);
},
{
closed = 1;
nodes = (
(98,0,l),
(201,591,l),
(173,591,l),
(70,0,l)
);
}
);
width = 421;
},
{
background = {
shapes = (
{
closed = 1;
nodes = (
(212,203,l),
(391,203,ls),
(535,203,o),
(622,342,o),
(622,485,cs),
(622,572,o),
(553,613,o),
(473,613,cs),
(114,613,l),
(103,541,l),
(263,505,l),
(308,517,o),
(381,538,o),
(394,538,cs),
(420,538,o),
(438,524,o),
(438,474,cs),
(438,408,o),
(435,299,o),
(346,299,cs),
(228,299,l)
);
},
{
closed = 1;
nodes = (
(357,613,l),
(175,613,l),
(70,0,l),
(252,0,l)
);
},
{
closed = 1;
nodes = (
(23,72,l),
(12,0,l),
(351,0,l),
(364,80,l),
(194,108,l)
);
}
);
};
layerId = "E259E77F-022A-45EF-A0F1-1168268390B3";
shapes = (
{
closed = 1;
nodes = (
(344,203,ls),
(488,203,o),
(575,342,o),
(575,485,cs),
(575,572,o),
(506,613,o),
(426,613,cs),
(77,613,l),
(66,541,l),
(226,505,l),
(271,517,o),
(339,538,o),
(352,538,cs),
(378,538,o),
(391,524,o),
(391,474,cs),
(391,408,o),
(388,299,o),
(299,299,cs),
(191,299,l),
(175,203,l)
);
},
{
closed = 1;
nodes = (
(314,0,l),
(327,80,l),
(157,108,l),
(-14,72,l),
(-25,0,l)
);
},
{
closed = 1;
nodes = (
(215,0,l),
(320,613,l),
(138,613,l),
(33,0,l)
);
}
);
width = 541;
}
);
metricLeft = H;
unicode = 80;
},
{
color = 4;
glyphname = Thorn;
kernLeft = H;
kernRight = Thorn;
layers = (
{
layerId = "D9712079-C16A-42CB-8BA4-BD9ECFFACF10";
shapes = (
{
closed = 1;
nodes = (
(245,136,ls),
(376,136,o),
(465,245,o),
(465,373,cs),
(465,452,o),
(415,490,o),
(333,490,cs),
(196,490,l),
(185,427,l),
(200,429,o),
(312,439,o),
(331,439,cs),
(356,439,o),
(368,410,o),
(368,366,cs),
(368,270,o),
(350,193,o),
(267,193,cs),
(146,193,l),
(135,136,l)
);
},
{
closed = 1;
nodes = (
(236,0,l),
(244,46,l),
(122,74,l),
(9,38,l),
(3,0,l)
);
},
{
closed = 1;
nodes = (
(152,0,l),
(257,603,l),
(166,603,l),
(61,0,l)
);
},
{
closed = 1;
nodes = (
(310,557,l),
(318,603,l),
(105,603,l),
(99,565,l),
(203,529,l)
);
}
);
width = 452;
},
{
layerId = "16B79A64-180D-495F-8650-CA27198DF3EF";
shapes = (
{
closed = 1;
nodes = (
(217,146,ls),
(346,146,o),
(412,241,o),
(412,364,cs),
(412,443,o),
(372,466,o),
(293,466,cs),
(168,466,l),
(164,438,l),
(218,440,o),
(289,442,o),
(308,442,cs),
(364,442,o),
(382,407,o),
(382,351,cs),
(382,261,o),
(330,172,o),
(240,172,cs),
(115,172,l),
(110,146,l)
);
},
{
closed = 1;
nodes = (
(164,0,l),
(167,18,l),
(93,28,l),
(15,15,l),
(12,0,l)
);
},
{
closed = 1;
nodes = (
(98,0,l),
(201,591,l),
(173,591,l),
(70,0,l)
);
},
{
closed = 1;
nodes = (
(261,573,l),
(264,591,l),
(112,591,l),
(109,576,l),
(187,563,l)
);
}
);
width = 417;
},
{
layerId = "E259E77F-022A-45EF-A0F1-1168268390B3";
shapes = (
{
closed = 1;
nodes = (
(324,138,ls),
(468,138,o),
(555,237,o),
(555,380,cs),
(555,467,o),
(491,498,o),
(411,498,cs),
(256,498,l),
(226,402,l),
(261,412,o),
(309,423,o),
(326,423,cs),
(354,423,o),
(371,414,o),
(371,377,cs),
(371,309,o),
(366,234,o),
(279,234,cs),
(191,234,l),
(175,138,l)
);
},
{
closed = 1;
nodes = (
(304,0,l),
(317,80,l),
(157,108,l),
(-14,72,l),
(-25,0,l)
);
},
{
closed = 1;
nodes = (
(215,0,l),
(320,613,l),
(138,613,l),
(33,0,l)
);
},
{
closed = 1;
nodes = (
(363,541,l),
(376,613,l),
(77,613,l),
(66,541,l),
(226,505,l)
);
}
);
width = 534;
}
);
metricLeft = H;
unicode = 222;
},
{
color = 4;
glyphname = Q;
kernLeft = O;
kernRight = O;
layers = (
{
layerId = "D9712079-C16A-42CB-8BA4-BD9ECFFACF10";
shapes = (
{
closed = 1;
nodes = (
(289,-9,o),
(403,62,o),
(444,108,c),
(478,192,o),
(512,315,o),
(512,409,cs),
(512,550,o),
(439,611,o),
(297,611,cs),
(272,611,o),
(151,538,o),
(116,495,c),
(79,435,o),
(45,299,o),
(45,203,cs),
(45,56,o),
(111,-9,o),
(260,-9,cs)
);
},
{
closed = 1;
nodes = (
(409,-118,l),
(441,-62,l),
(250,12,l),
(176,12,l),
(364,-118,l)
);
},
{
closed = 1;
nodes = (
(165,51,o),
(139,91,o),
(139,196,cs),
(139,339,o),
(186,514,o),
(243,537,cs),
(263,545,o),
(281,548,o),
(308,548,cs),
(379,548,o),
(417,515,o),
(417,427,cs),
(417,340,o),
(384,177,o),
(352,94,c),
(346,86,o),
(277,51,o),
(262,51,cs)
);
}
);
width = 526;
},
{
layerId = "16B79A64-180D-495F-8650-CA27198DF3EF";
shapes = (
{
closed = 1;
nodes = (
(265,-9,o),
(360,53,o),
(401,101,c),
(451,184,o),
(478,304,o),
(478,388,cs),
(478,519,o),
(427,601,o),
(295,601,cs),
(264,601,o),
(181,547,o),
(132,491,c),
(86,426,o),
(52,319,o),
(52,204,cs),
(52,73,o),
(103,-9,o),
(235,-9,cs)
);
},
{
closed = 1;
nodes = (
(390,-102,l),
(404,-80,l),
(229,5,l),
(197,5,l),
(376,-102,l)
);
},
{
closed = 1;
nodes = (
(129,20,o),
(84,86,o),
(84,205,cs),
(84,444,o),
(181,511,o),
(223,540,cs),
(246,556,o),
(274,572,o),
(301,572,cs),
(409,572,o),
(446,492,o),
(446,387,cs),
(446,302,o),
(424,190,o),
(380,114,c),
(352,83,o),
(277,20,o),
(232,20,cs)
);
}
);
width = 496;
},
{
background = {
anchors = (
{
name = ogonek;
pos = (308,0);
},
{
name = top;
pos = (392,650);
}
);
shapes = (
{
closed = 1;
nodes = (
(344,-13,o),
(488,48,o),
(564,104,c),
(598,188,o),
(635,329,o),
(635,423,cs),
(635,574,o),
(539,625,o),
(387,625,cs),
(352,625,o),
(204,557,o),
(130,508,c),
(96,427,o),
(58,280,o),
(58,189,cs),
(58,39,o),
(155,-13,o),
(307,-13,cs)
);
},
{
closed = 1;
nodes = (
(262,79,o),
(249,112,o),
(249,189,cs),
(249,263,o),
(291,502,o),
(333,520,cs),
(349,527,o),
(364,529,o),
(379,529,cs),
(427,529,o),
(444,494,o),
(444,417,cs),
(444,341,o),
(415,172,o),
(386,102,c),
(371,93,o),
(337,79,o),
(332,79,cs)
);
}
);
};
layerId = "E259E77F-022A-45EF-A0F1-1168268390B3";
shapes = (
{
closed = 1;
nodes = (
(311,-13,o),
(455,48,o),
(531,104,c),
(565,188,o),
(602,329,o),
(602,423,cs),
(602,574,o),
(506,625,o),
(354,625,cs),
(319,625,o),
(171,557,o),
(97,508,c),
(63,427,o),
(25,280,o),
(25,189,cs),
(25,39,o),
(122,-13,o),
(274,-13,cs)
);
},
{
closed = 1;
nodes = (
(463,-167,l),
(532,-40,l),
(311,20,l),
(151,20,l),
(394,-167,l)
);
},
{
closed = 1;
nodes = (
(229,79,o),
(216,112,o),
(216,189,cs),
(216,263,o),
(258,502,o),
(300,520,cs),
(316,527,o),
(331,529,o),
(346,529,cs),
(394,529,o),
(411,494,o),
(411,417,cs),
(411,341,o),
(382,172,o),
(353,102,c),
(338,93,o),
(304,79,o),
(299,79,cs)
);
}
);
width = 597;
}
);
unicode = 81;
},
{
color = 4;
glyphname = R;
kernLeft = H;
kernRight = R;
layers = (
{
anchors = (
{
name = bottom;
pos = (259,0);
},
{
name = top;
pos = (307,603);
}
);
layerId = "D9712079-C16A-42CB-8BA4-BD9ECFFACF10";
shapes = (
{
closed = 1;
nodes = (
(261,260,ls),
(391,260,o),
(480,375,o),
(480,492,cs),
(480,575,o),
(429,603,o),
(347,603,cs),
(105,603,l),
(98,565,l),
(184,535,l),
(197,537,o),
(328,552,o),
(344,552,cs),
(370,552,o),
(383,533,o),
(383,489,cs),
(383,412,o),
(368,317,o),
(288,317,cs),
(175,317,l),
(165,260,l)
);
},
{
closed = 1;
nodes = (
(215,0,l),
(223,46,l),
(121,74,l),
(8,38,l),
(2,0,l)
);
},
{
closed = 1;
nodes = (
(151,0,l),
(256,603,l),
(165,603,l),
(60,0,l)
);
},
{
closed = 1;
nodes = (
(461,0,l),
(468,42,l),
(419,57,l),
(399,100,o),
(358,190,o),
(329,262,c),
(332,284,l),
(246,284,l),
(335,0,l)
);
}
);
width = 480;
},
{
anchors = (
{
name = bottom;
pos = (229,0);
},
{
name = top;
pos = (281,591);
}
);
hints = (
{
place = (1243.977,0);
type = Stem;
}
);
layerId = "16B79A64-180D-495F-8650-CA27198DF3EF";
shapes = (
{
closed = 1;
nodes = (
(253,276,ls),
(354,276,o),
(421,382,o),
(421,483,cs),
(421,564,o),
(384,591,o),
(303,591,cs),
(112,591,l),
(109,576,l),
(188,563,l),
(242,565,o),
(298,566,o),
(317,566,cs),
(373,566,o),
(391,529,o),
(391,473,cs),
(391,391,o),
(342,302,o),
(258,302,cs),
(133,302,l),
(129,276,l)
);
},
{
closed = 1;
nodes = (
(164,0,l),
(167,18,l),
(93,28,l),
(15,15,l),
(12,0,l)
);
},
{
closed = 1;
nodes = (
(98,0,l),
(201,591,l),
(173,591,l),
(70,0,l)
);
},
{
closed = 1;
nodes = (
(432,0,l),
(434,18,l),
(372,27,l),
(352,70,o),
(304,199,o),
(275,271,c),
(278,284,l),
(245,284,l),
(344,0,l)
);
}
);
width = 444;
},
{
anchors = (
{
name = bottom;
pos = (293,0);
},
{
name = top;
pos = (352,613);
}
);
layerId = "E259E77F-022A-45EF-A0F1-1168268390B3";
shapes = (
{
closed = 1;
nodes = (
(355,240,ls),
(491,240,o),
(578,370,o),
(578,497,cs),
(578,580,o),
(517,613,o),
(435,613,cs),
(77,613,l),
(66,541,l),
(226,505,l),
(274,517,o),
(339,538,o),
(355,538,cs),
(384,538,o),
(394,519,o),
(394,475,cs),
(394,403,o),
(378,337,o),
(302,337,cs),
(207,337,l),
(190,240,l)
);
},
{
closed = 1;
nodes = (
(274,0,l),
(287,80,l),
(157,108,l),
(-14,72,l),
(-25,0,l)
);
},
{
closed = 1;
nodes = (
(215,0,l),
(320,613,l),
(138,613,l),
(33,0,l)
);
},
{
closed = 1;
nodes = (
(566,0,l),
(576,72,l),
(519,100,l),
(498,149,o),
(481,190,o),
(458,259,c),
(461,281,l),
(288,281,l),
(345,0,l)
);
}
);
width = 567;
}
);
metricLeft = H;
unicode = 82;
},
{
color = 4;
glyphname = S;
kernLeft = S;
kernRight = S;
layers = (
{
anchors = (
{
name = bottom;
pos = (178,0);
},
{
name = top;
pos = (298,603);
}
);
background = {
shapes = (
{
closed = 1;
nodes = (
(131,1,l),
(142,184,l),
(90,184,l),
(49,1,l)
);
},
{
closed = 1;
nodes = (
(388,595,l),
(379,422,l),
(431,422,l),
(471,595,l)
);
},
{
closed = 1;
nodes = (
(471,595,l),
(415,601,o),
(331,611,o),
(312,611,cs),
(278,611,o),
(163,533,o),
(133,488,c),
(126,469,o),
(122,452,o),
(119,436,cs),
(109,376,o),
(131,325,o),
(216,273,cs),
(299,223,o),
(339,190,o),
(330,137,cs),
(324,101,o),
(286,55,o),
(276,55,cs),
(236,55,o),
(184,65,o),
(135,72,c),
(49,1,l),
(106,-4,o),
(185,-9,o),
(233,-9,cs),
(271,-9,o),
(377,62,o),
(412,114,c),
(417,126,o),
(422,146,o),
(425,163,cs),
(444,267,o),
(344,315,o),
(281,358,cs),
(228,395,o),
(202,418,o),
(210,469,cs),
(216,502,o),
(238,547,o),
(253,547,cs),
(283,547,o),
(349,531,o),
(385,524,c)
);
}
);
};
layerId = "D9712079-C16A-42CB-8BA4-BD9ECFFACF10";
shapes = (
{
closed = 1;
nodes = (
(232,-9,o),
(338,62,o),
(373,114,c),
(380,130,o),
(388,165,o),
(388,188,cs),
(388,275,o),
(305,315,o),
(242,358,cs),
(203,385,o),
(170,412,o),
(170,452,cs),
(170,509,o),
(196,542,o),
(214,542,cs),
(244,542,o),
(310,531,o),
(346,524,c),
(432,595,l),
(376,601,o),
(292,611,o),
(273,611,cs),
(239,611,o),
(124,533,o),
(94,488,c),
(85,468,o),
(78,436,o),
(78,410,cs),
(78,341,o),
(130,303,o),
(182,270,cs),
(237,235,o),
(292,205,o),
(292,151,cs),
(292,126,o),
(258,58,o),
(237,58,cs),
(197,58,o),
(145,65,o),
(96,72,c),
(10,1,l),
(67,-4,o),
(146,-9,o),
(194,-9,cs)
);
},
{
closed = 1;
nodes = (
(92,1,l),
(103,184,l),
(51,184,l),
(10,1,l)
);
},
{
closed = 1;
nodes = (
(392,422,l),
(432,595,l),
(349,595,l),
(340,422,l)
);
}
);
width = 423;
},
{
anchors = (
{
name = bottom;
pos = (157,0);
},
{
name = top;
pos = (258,591);
}
);
background = {
shapes = (
{
closed = 1;
nodes = (
(384,584,l),
(375,458,l),
(393,458,l),
(418,584,l)
);
},
{
closed = 1;
nodes = (
(418,585,l),
(376,593,o),
(294,601,o),
(253,601,cs),
(230,601,o),
(156,541,o),
(127,501,c),
(116,480,o),
(111,460,o),
(111,439,cs),
(111,387,o),
(163,348,o),
(220,305,cs),
(282,258,o),
(350,230,o),
(350,172,cs),
(350,88,o),
(264,15,o),
(239,15,cs),
(211,15,o),
(132,24,o),
(82,32,c),
(48,8,l),
(108,0,o),
(202,-8,o),
(239,-8,cs),
(284,-8,o),
(348,70,o),
(371,121,c),
(377,141,o),
(380,156,o),
(380,180,cs),
(380,236,o),
(302,281,o),
(237,329,cs),
(184,367,o),
(140,398,o),
(140,450,cs),
(140,510,o),
(236,576,o),
(260,576,cs),
(284,576,o),
(363,571,o),
(403,557,c)
);
},
{
closed = 1;
nodes = (
(82,8,l),
(94,144,l),
(76,144,l),
(48,8,l)
);
}
);
};
layerId = "16B79A64-180D-495F-8650-CA27198DF3EF";
shapes = (
{
closed = 1;
nodes = (
(246,-8,o),
(310,70,o),
(333,121,c),
(339,141,o),
(342,156,o),
(342,180,cs),
(342,236,o),
(264,281,o),
(199,329,cs),
(147,368,o),
(102,398,o),
(102,450,cs),
(102,510,o),
(198,576,o),
(222,576,cs),
(246,576,o),
(325,571,o),
(365,557,c),
(380,585,l),
(338,593,o),
(256,601,o),
(215,601,cs),
(192,601,o),
(118,541,o),
(89,501,c),
(78,480,o),
(73,460,o),
(73,439,cs),
(73,387,o),
(125,348,o),
(182,305,cs),
(244,258,o),
(312,230,o),
(312,172,cs),
(312,88,o),
(226,15,o),
(201,15,cs),
(173,15,o),
(94,24,o),
(44,32,c),
(10,8,l),
(70,0,o),
(164,-8,o),
(201,-8,cs)
);
},
{
closed = 1;
nodes = (
(44,8,l),
(56,144,l),
(38,144,l),
(10,8,l)
);
},
{
closed = 1;
nodes = (
(355,458,l),
(380,584,l),
(346,584,l),
(337,458,l)
);
}
);
width = 378;
},
{
anchors = (
{
name = bottom;
pos = (208,0);
},
{
name = top;
pos = (318,613);
}
);
background = {
shapes = (
{
closed = 1;
nodes = (
(302,-9,o),
(437,61,o),
(472,113,c),
(479,129,o),
(487,164,o),
(487,187,cs),
(487,274,o),
(402,328,o),
(339,383,cs),
(301,415,o),
(271,448,o),
(271,487,cs),
(271,519,o),
(279,532,o),
(297,532,cs),
(327,532,o),
(408,516,o),
(444,509,c),
(535,610,l),
(479,616,o),
(345,626,o),
(326,626,cs),
(292,626,o),
(140,549,o),
(110,504,c),
(103,484,o),
(94,450,o),
(94,426,cs),
(94,349,o),
(158,300,o),
(215,255,cs),
(261,218,o),
(303,184,o),
(303,138,cs),
(303,122,o),
(282,88,o),
(268,88,cs),
(228,88,o),
(157,98,o),
(108,105,c),
(22,1,l),
(79,-4,o),
(176,-9,o),
(264,-9,cs)
);
},
{
closed = 1;
nodes = (
(22,1,l),
(145,1,l),
(162,242,l),
(69,242,l)
);
},
{
closed = 1;
nodes = (
(490,391,l),
(535,610,l),
(412,610,l),
(397,391,l)
);
}
);
};
layerId = "E259E77F-022A-45EF-A0F1-1168268390B3";
shapes = (
{
closed = 1;
nodes = (
(270,-9,o),
(405,61,o),
(440,113,c),
(447,129,o),
(455,164,o),
(455,187,cs),
(455,274,o),
(369,327,o),
(307,383,cs),
(270,416,o),
(239,448,o),
(239,487,cs),
(239,519,o),
(247,528,o),
(265,528,cs),
(295,528,o),
(376,516,o),
(412,509,c),
(503,610,l),
(447,616,o),
(313,626,o),
(294,626,cs),
(260,626,o),
(108,549,o),
(78,504,c),
(71,484,o),
(62,450,o),
(62,426,cs),
(62,349,o),
(126,301,o),
(183,255,cs),
(229,218,o),
(271,184,o),
(271,138,cs),
(271,122,o),
(254,92,o),
(236,92,cs),
(196,92,o),
(125,98,o),
(76,105,c),
(-10,1,l),
(47,-4,o),
(144,-9,o),
(232,-9,cs)
);
},
{
closed = 1;
nodes = (
(113,1,l),
(130,242,l),
(37,242,l),
(-10,1,l)
);
},
{
closed = 1;
nodes = (
(458,391,l),
(503,610,l),
(380,610,l),
(365,391,l)
);
}
);
width = 470;
}
);
unicode = 83;
},
{
color = 4;
glyphname = Germandbls;
kernLeft = H;
kernRight = o;
layers = (
{
background = {
shapes = (
{
closed = 1;
nodes = (
(153,0,l),
(217,374,ls),
(238,497,o),
(269,528,o),
(294,541,c),
(334,551,o),
(437,544,o),
(498,507,c),
(541,605,o),
(431,611,o),
(365,611,c),
(347,611,o),
(242,566,o),
(174,507,c),
(152,473,o),
(137,430,o),
(122,343,cs),
(62,0,l)
);
},
{
closed = 1;
nodes = (
(105,0,l),
(115,72,l),
(10,38,l),
(4,0,l)
);
},
{
closed = 1;
nodes = (
(204,1,l),
(286,1,l),
(297,184,l),
(245,184,l)
);
},
{
closed = 1;
nodes = (
(408,-9,o),
(509,42,o),
(544,94,c),
(551,110,o),
(559,145,o),
(559,168,cs),
(559,294,o),
(380,334,o),
(380,423,cs),
(380,465,o),
(397,490,o),
(410,499,c),
(430,506,o),
(463,509,o),
(498,507,c),
(498,572,l),
(462,572,o),
(343,515,o),
(309,462,c),
(298,441,o),
(291,416,o),
(291,383,cs),
(291,268,o),
(466,233,o),
(466,131,cs),
(466,106,o),
(438,55,o),
(417,55,cs),
(379,55,o),
(328,64,o),
(290,72,c),
(204,1,l),
(261,-4,o),
(322,-9,o),
(370,-9,cs)
);
}
);
};
layerId = "D9712079-C16A-42CB-8BA4-BD9ECFFACF10";
shapes = (
{
closed = 1;
nodes = (
(154,0,l),
(249,540,l),
(494,554,l),
(585,568,l),
(570,603,l),
(105,603,l),
(98,565,l),
(157,545,l),
(71,58,l),
(5,38,l),
(-1,0,l)
);
},
{
closed = 1;
nodes = (
(282,1,l),
(298,184,l),
(246,184,l),
(200,1,l)
);
},
{
closed = 1;
nodes = (
(444,-9,o),
(557,129,o),
(557,237,cs),
(557,315,o),
(484,340,o),
(406,340,cs),
(381,340,o),
(354,339,o),
(327,336,c),
(317,289,l),
(431,289,ls),
(452,289,o),
(460,268,o),
(460,237,cs),
(460,185,o),
(426,69,o),
(381,60,cs),
(360,56,o),
(268,53,o),
(220,53,c),
(200,1,l),
(238,-2,o),
(315,-9,o),
(336,-9,cs)
);
},
{
closed = 1;
nodes = (
(382,333,l),
(378,347,l),
(585,568,l),
(500,587,l),
(290,341,l),
(316,288,l)
);
}
);
width = 557;
},
{
background = {
shapes = (
{
closed = 1;
nodes = (
(93,0,l),
(171,427,ls),
(183,492,o),
(246,546,o),
(329,572,c),
(361,572,o),
(404,563,o),
(437,528,c),
(462,565,o),
(391,599,o),
(332,599,c),
(309,599,o),
(228,561,o),
(176,503,c),
(152,470,o),
(143,441,o),
(135,398,cs),
(65,0,l)
);
},
{
closed = 1;
nodes = (
(83,0,l),
(88,28,l),
(10,18,l),
(7,0,l)
);
},
{
closed = 1;
nodes = (
(165,8,l),
(199,8,l),
(211,144,l),
(193,144,l)
);
},
{
closed = 1;
nodes = (
(391,-8,o),
(455,56,o),
(478,107,c),
(484,127,o),
(487,142,o),
(487,166,cs),
(487,272,o),
(269,324,o),
(269,420,cs),
(269,475,o),
(331,509,o),
(376,528,c),
(393,532,o),
(422,532,o),
(437,528,c),
(416,564,l),
(343,547,o),
(291,512,o),
(256,473,c),
(245,451,o),
(240,432,o),
(240,409,cs),
(240,309,o),
(457,257,o),
(457,160,cs),
(457,76,o),
(371,15,o),
(346,15,cs),
(318,15,o),
(249,24,o),
(199,32,c),
(165,8,l),
(225,0,o),
(309,-8,o),
(346,-8,cs)
);
}
);
};
layerId = "16B79A64-180D-495F-8650-CA27198DF3EF";
shapes = (
{
closed = 1;
nodes = (
(95,0,l),
(194,564,l),
(500,571,l),
(518,575,l),
(507,591,l),
(112,591,l),
(108,574,l),
(164,566,l),
(69,25,l),
(11,17,l),
(8,0,l)
);
},
{
closed = 1;
nodes = (
(198,8,l),
(210,144,l),
(192,144,l),
(164,8,l)
);
},
{
closed = 1;
nodes = (
(379,-9,o),
(490,137,o),
(490,236,cs),
(490,299,o),
(440,321,o),
(351,321,cs),
(330,321,o),
(307,320,o),
(282,318,c),
(277,298,l),
(379,298,ls),
(430,298,o),
(461,272,o),
(461,227,cs),
(461,158,o),
(394,60,o),
(331,24,cs),
(312,12,o),
(227,21,o),
(169,26,c),
(164,8,l),
(196,3,o),
(259,-9,o),
(285,-9,cs)
);
},
{
closed = 1;
nodes = (
(303,312,l),
(298,326,l),
(518,575,l),
(484,576,l),
(265,316,l),
(277,298,l)
);
}
);
width = 504;
},
{
background = {
shapes = (
{
closed = 1;
nodes = (
(210,0,l),
(274,369,ls),
(295,492,o),
(325,508,o),
(350,521,c),
(390,531,o),
(542,506,o),
(603,469,c),
(682,611,o),
(490,624,o),
(424,624,c),
(406,624,o),
(209,566,o),
(141,507,c),
(119,473,o),
(104,430,o),
(89,343,cs),
(28,0,l)
);
},
{
closed = 1;
nodes = (
(137,0,l),
(152,108,l),
(-19,72,l),
(-30,0,l)
);
},
{
closed = 1;
nodes = (
(244,1,l),
(367,1,l),
(381,202,l),
(288,202,l)
);
},
{
closed = 1;
nodes = (
(515,-9,o),
(648,61,o),
(683,113,c),
(690,129,o),
(698,164,o),
(698,187,cs),
(698,324,o),
(503,325,o),
(503,428,cs),
(503,446,o),
(508,464,o),
(521,474,c),
(540,479,o),
(573,478,o),
(603,469,c),
(578,574,l),
(525,574,o),
(374,490,o),
(344,445,c),
(336,425,o),
(328,395,o),
(328,367,cs),
(328,239,o),
(516,239,o),
(516,138,cs),
(516,122,o),
(495,88,o),
(481,88,cs),
(441,88,o),
(379,98,o),
(330,105,c),
(244,1,l),
(301,-4,o),
(389,-9,o),
(477,-9,cs)
);
}
);
};
layerId = "E259E77F-022A-45EF-A0F1-1168268390B3";
shapes = (
{
closed = 1;
nodes = (
(214,0,l),
(304,510,l),
(610,526,l),
(707,565,l),
(689,612,l),
(77,612,l),
(65,540,l),
(120,515,l),
(46,97,l),
(-18,72,l),
(-31,0,l)
);
},
{
closed = 1;
nodes = (
(377,1,l),
(391,202,l),
(298,202,l),
(254,1,l)
);
},
{
closed = 1;
nodes = (
(585,-15,o),
(676,116,o),
(676,225,cs),
(676,297,o),
(625,346,o),
(507,346,cs),
(473,346,o),
(433,342,o),
(388,334,c),
(372,259,l),
(441,259,ls),
(463,259,o),
(490,237,o),
(490,205,cs),
(490,168,o),
(464,110,o),
(422,96,cs),
(403,89,o),
(379,92,o),
(284,92,c),
(254,1,l),
(304,-6,o),
(377,-15,o),
(407,-15,cs)
);
},
{
closed = 1;
nodes = (
(492,342,l),
(487,356,l),
(707,565,l),
(590,602,l),
(325,323,l),
(372,259,l)
);
}
);
width = 680;
}
);
metricLeft = H;
unicode = 7838;
},
{
color = 4;
glyphname = T;
kernLeft = T;
kernRight = T;
layers = (
{
anchors = (
{
name = bottom;
pos = (199,0);
},
{
name = center;
pos = (252,304);
},
{
name = top;
pos = (302,603);
}
);
layerId = "D9712079-C16A-42CB-8BA4-BD9ECFFACF10";
shapes = (
{
closed = 1;
nodes = (
(242,0,l),
(347,603,l),
(256,603,l),
(151,0,l)
);
},
{
closed = 1;
nodes = (
(316,0,l),
(324,46,l),
(212,74,l),
(89,38,l),
(83,0,l)
);
},
{
closed = 1;
nodes = (
(110,415,l),
(157,603,l),
(78,603,l),
(59,415,l)
);
},
{
closed = 1;
nodes = (
(289,554,l),
(501,535,l),
(523,603,l),
(78,603,l),
(78,535,l)
);
},
{
closed = 1;
nodes = (
(479,415,l),
(523,603,l),
(443,603,l),
(427,415,l)
);
}
);
width = 460;
},
{
anchors = (
{
name = bottom;
pos = (172,0);
},
{
name = center;
pos = (226,308);
},
{
name = top;
pos = (306,591);
}
);
layerId = "16B79A64-180D-495F-8650-CA27198DF3EF";
shapes = (
{
closed = 1;
nodes = (
(185,0,l),
(288,591,l),
(260,591,l),
(157,0,l)
);
},
{
closed = 1;
nodes = (
(263,0,l),
(266,18,l),
(180,28,l),
(89,15,l),
(86,0,l)
);
},
{
closed = 1;
nodes = (
(94,452,l),
(125,591,l),
(94,591,l),
(75,452,l)
);
},
{
closed = 1;
nodes = (
(274,563,l),
(450,570,l),
(456,591,l),
(94,591,l),
(94,573,l)
);
},
{
closed = 1;
nodes = (
(432,452,l),
(456,591,l),
(424,591,l),
(413,452,l)
);
}
);
width = 407;
},
{
anchors = (
{
name = bottom;
pos = (261,0);
},
{
name = center;
pos = (300,283);
},
{
name = top;
pos = (358,613);
}
);
layerId = "E259E77F-022A-45EF-A0F1-1168268390B3";
shapes = (
{
closed = 1;
nodes = (
(343,0,l),
(448,613,l),
(266,613,l),
(161,0,l)
);
},
{
closed = 1;
nodes = (
(422,0,l),
(435,80,l),
(285,108,l),
(94,72,l),
(83,0,l)
);
},
{
closed = 1;
nodes = (
(149,372,l),
(197,613,l),
(81,613,l),
(56,372,l)
);
},
{
closed = 1;
nodes = (
(340,544,l),
(595,494,l),
(626,613,l),
(81,613,l),
(72,494,l)
);
},
{
closed = 1;
nodes = (
(583,372,l),
(626,613,l),
(510,613,l),
(490,372,l)
);
}
);
width = 573;
}
);
unicode = 84;
},
{
color = 4;
glyphname = U;
kernLeft = U;
kernRight = U;
layers = (
{
anchors = (
{
name = bottom;
pos = (287,0);
},
{
name = ogonek;
pos = (497,0);
},
{
name = top;
pos = (349,603);
},
{
name = topright;
pos = (522,595);
}
);
layerId = "D9712079-C16A-42CB-8BA4-BD9ECFFACF10";
shapes = (
{
closed = 1;
nodes = (
(210,-8,o),
(327,44,o),
(381,68,c),
(387,114,l),
(346,101,o),
(239,73,o),
(216,73,cs),
(195,73,o),
(174,81,o),
(174,135,cs),
(174,177,o),
(183,214,o),
(250,603,c),
(160,603,l),
(86,166,o),
(81,153,o),
(81,113,cs),
(81,32,o),
(120,-8,o),
(199,-8,cs)
);
},
{
closed = 1;
nodes = (
(497,0,l),
(503,38,l),
(447,58,l),
(539,603,l),
(450,603,l),
(360,72,l),
(370,0,l)
);
},
{
closed = 1;
nodes = (
(304,557,l),
(312,603,l),
(99,603,l),
(93,565,l),
(197,529,l)
);
},
{
closed = 1;
nodes = (
(594,565,l),
(600,603,l),
(387,603,l),
(379,557,l),
(481,529,l)
);
}
);
width = 573;
},
{
anchors = (
{
name = bottom;
pos = (241,0);
},
{
name = ogonek;
pos = (427,0);
},
{
name = top;
pos = (306,591);
},
{
name = topright;
pos = (504,590);
}
);
background = {
shapes = (
{
closed = 1;
nodes = (
(143,141,o),
(149,147,o),
(149,155,cs),
(149,163,o),
(143,169,o),
(135,169,cs),
(127,169,o),
(121,163,o),
(121,155,cs),
(121,147,o),
(127,141,o),
(135,141,c)
);
},
{
closed = 1;
nodes = (
(139,93,o),
(145,99,o),
(145,107,cs),
(145,115,o),
(139,121,o),
(131,121,cs),
(123,121,o),
(117,115,o),
(117,107,cs),
(117,99,o),
(123,93,o),
(131,93,c)
);
},
{
closed = 1;
nodes = (
(228,-8,o),
(234,-2,o),
(234,6,cs),
(234,14,o),
(228,20,o),
(220,20,cs),
(212,20,o),
(206,14,o),
(206,6,cs),
(206,-2,o),
(212,-8,o),
(220,-8,c)
);
},
{
closed = 1;
nodes = (
(158,22,o),
(164,28,o),
(164,36,cs),
(164,44,o),
(158,50,o),
(150,50,cs),
(142,50,o),
(136,44,o),
(136,36,cs),
(136,28,o),
(142,22,o),
(150,22,c)
);
},
{
closed = 1;
nodes = (
(375,51,o),
(379,55,o),
(379,61,cs),
(379,67,o),
(375,71,o),
(369,71,cs),
(363,71,o),
(359,67,o),
(359,61,cs),
(359,55,o),
(363,51,o),
(369,51,cs)
);
}
);
};
layerId = "16B79A64-180D-495F-8650-CA27198DF3EF";
shapes = (
{
closed = 1;
nodes = (
(193,-8,o),
(298,44,o),
(352,72,c),
(354,94,l),
(305,68,o),
(211,19,o),
(182,19,cs),
(124,19,o),
(100,47,o),
(100,105,cs),
(100,150,o),
(111,202,o),
(178,591,c),
(150,591,l),
(76,165,o),
(72,144,o),
(72,107,cs),
(72,32,o),
(107,-8,o),
(182,-8,cs)
);
},
{
closed = 1;
nodes = (
(427,0,l),
(430,18,l),
(367,27,l),
(464,591,l),
(436,591,l),
(346,72,l),
(342,0,l)
);
},
{
closed = 1;
nodes = (
(238,573,l),
(241,591,l),
(89,591,l),
(86,576,l),
(164,563,l)
);
},
{
closed = 1;
nodes = (
(519,576,l),
(522,591,l),
(370,591,l),
(367,573,l),
(441,563,l)
);
}
);
width = 511;
},
{
anchors = (
{
name = bottom;
pos = (303,0);
},
{
name = ogonek;
pos = (589,0);
},
{
name = top;
pos = (364,613);
},
{
name = topright;
pos = (633,593);
}
);
background = {
shapes = (
{
closed = 1;
nodes = (
(256,505,l),
(388,533,l),
(401,613,l),
(107,613,l),
(96,541,l)
);
},
{
closed = 1;
nodes = (
(714,541,l),
(725,613,l),
(431,613,l),
(418,533,l),
(543,505,l)
);
},
{
closed = 1;
nodes = (
(397,92,l),
(422,0,l),
(633,0,l),
(644,67,l),
(577,85,l),
(667,613,l),
(485,613,l)
);
},
{
closed = 1;
nodes = (
(453,173,l),
(412,160,o),
(342,142,o),
(319,142,cs),
(298,142,o),
(281,152,o),
(281,196,cs),
(281,228,o),
(299,313,o),
(350,613,c),
(168,613,l),
(94,176,o),
(88,153,o),
(88,113,cs),
(88,32,o),
(149,-12,o),
(248,-12,cs),
(265,-12,o),
(395,66,o),
(453,98,c)
);
}
);
};
layerId = "E259E77F-022A-45EF-A0F1-1168268390B3";
shapes = (
{
closed = 1;
nodes = (
(221,-12,o),
(350,74,o),
(409,113,c),
(409,188,l),
(368,171,o),
(298,142,o),
(275,142,cs),
(254,142,o),
(237,152,o),
(237,196,cs),
(237,228,o),
(255,313,o),
(306,613,c),
(124,613,l),
(50,176,o),
(44,153,o),
(44,113,cs),
(44,32,o),
(105,-12,o),
(204,-12,cs)
);
},
{
closed = 1;
nodes = (
(589,0,l),
(600,67,l),
(533,85,l),
(623,613,l),
(441,613,l),
(354,102,l),
(390,0,l)
);
},
{
closed = 1;
nodes = (
(344,533,l),
(357,613,l),
(63,613,l),
(52,541,l),
(212,505,l)
);
},
{
closed = 1;
nodes = (
(670,541,l),
(681,613,l),
(387,613,l),
(374,533,l),
(499,505,l)
);
}
);
width = 640;
}
);
unicode = 85;
},
{
glyphname = Uhorn;
kernLeft = U;
kernRight = U;
layers = (
{
anchors = (
{
name = bottom;
pos = (263,0);
},
{
name = ogonek;
pos = (446,-3);
},
{
name = top;
pos = (306,591);
}
);
background = {
shapes = (
{
closed = 1;
nodes = (
(238,-8,o),
(343,44,o),
(397,72,c),
(399,94,l),
(350,68,o),
(256,19,o),
(227,19,cs),
(169,19,o),
(145,47,o),
(145,105,cs),
(145,150,o),
(156,202,o),
(223,591,c),
(195,591,l),
(121,165,o),
(117,144,o),
(117,107,cs),
(117,32,o),
(152,-8,o),
(227,-8,cs)
);
},
{
closed = 1;
nodes = (
(472,0,l),
(475,18,l),
(412,27,l),
(509,591,l),
(481,591,l),
(391,72,l),
(387,0,l)
);
},
{
closed = 1;
nodes = (
(283,570,l),
(286,591,l),
(134,591,l),
(131,573,l),
(209,563,l)
);
},
{
closed = 1;
nodes = (
(491,591,l),
(415,591,l),
(412,570,l),
(486,563,l)
);
}
);
};
layerId = "16B79A64-180D-495F-8650-CA27198DF3EF";
shapes = (
{
closed = 1;
nodes = (
(193,-8,o),
(298,44,o),
(352,72,c),
(354,94,l),
(305,68,o),
(211,19,o),
(182,19,cs),
(124,19,o),
(100,47,o),
(100,105,cs),
(100,150,o),
(111,202,o),
(178,591,c),
(150,591,l),
(76,165,o),
(72,144,o),
(72,107,cs),
(72,32,o),
(107,-8,o),
(182,-8,cs)
);
},
{
closed = 1;
nodes = (
(427,0,l),
(430,18,l),
(367,27,l),
(464,591,l),
(436,591,l),
(346,72,l),
(342,0,l)
);
},
{
closed = 1;
nodes = (
(238,573,l),
(241,591,l),
(89,591,l),
(86,576,l),
(164,563,l)
);
},
{
closed = 1;
nodes = (
(464,591,l),
(370,591,l),
(367,573,l),
(441,563,l)
);
},
{
pos = (404,42);
ref = horncomb.case;
}
);
width = 511;
},
{
anchors = (
{
name = bottom;
pos = (305,0);
},
{
name = ogonek;
pos = (511,-22);
},
{
name = top;
pos = (349,603);
}
);
layerId = "D9712079-C16A-42CB-8BA4-BD9ECFFACF10";
shapes = (
{
closed = 1;
nodes = (
(210,-8,o),
(327,44,o),
(381,68,c),
(387,114,l),
(346,101,o),
(239,73,o),
(216,73,cs),
(195,73,o),
(174,81,o),
(174,135,cs),
(174,177,o),
(183,214,o),
(250,603,c),
(160,603,l),
(86,166,o),
(81,153,o),
(81,113,cs),
(81,32,o),
(120,-8,o),
(199,-8,cs)
);
},
{
closed = 1;
nodes = (
(497,0,l),
(503,38,l),
(447,58,l),
(539,603,l),
(450,603,l),
(360,72,l),
(370,0,l)
);
},
{
closed = 1;
nodes = (
(304,557,l),
(312,603,l),
(99,603,l),
(93,565,l),
(197,529,l)
);
},
{
closed = 1;
nodes = (
(539,603,l),
(387,603,l),
(379,557,l),
(481,529,l)
);
},
{
pos = (472,34);
ref = horncomb.case;
}
);
width = 573;
},
{
anchors = (
{
name = bottom;
pos = (335,0);
},
{
name = ogonek;
pos = (593,-15);
},
{
name = top;
pos = (364,613);
}
);
layerId = "E259E77F-022A-45EF-A0F1-1168268390B3";
shapes = (
{
closed = 1;
nodes = (
(221,-12,o),
(350,74,o),
(409,113,c),
(409,188,l),
(368,171,o),
(298,142,o),
(275,142,cs),
(254,142,o),
(237,152,o),
(237,196,cs),
(237,228,o),
(255,313,o),
(306,613,c),
(124,613,l),
(50,176,o),
(44,153,o),
(44,113,cs),
(44,32,o),
(105,-12,o),
(204,-12,cs)
);
},
{
closed = 1;
nodes = (
(589,0,l),
(600,67,l),
(533,85,l),
(623,613,l),
(441,613,l),
(354,102,l),
(390,0,l)
);
},
{
closed = 1;
nodes = (
(344,533,l),
(357,613,l),
(63,613,l),
(52,541,l),
(212,505,l)
);
},
{
closed = 1;
nodes = (
(623,613,l),
(387,613,l),
(374,533,l),
(499,505,l)
);
},
{
pos = (488,31);
ref = horncomb.case;
}
);
width = 640;
}
);
unicode = 431;
},
{
color = 4;
glyphname = V;
kernLeft = V;
kernRight = V;
layers = (
{
background = {
shapes = (
{
closed = 1;
nodes = (
(317,7,c),
(360,105,o),
(520,474,o),
(552,545,c),
(617,565,l),
(624,603,l),
(403,603,l),
(395,557,l),
(464,540,l),
(422,433,o),
(305,159,o),
(279,92,c),
(268,92,l),
(268,92,o),
(265,187,o),
(263,231,c),
(241,540,l),
(313,557,l),
(321,603,l),
(92,603,l),
(85,565,l),
(144,545,l),
(190,1,l),
(190,1,o),
(200,-7,o),
(204,-7,cs),
(206,-7,o),
(279,1,o)
);
}
);
};
layerId = "D9712079-C16A-42CB-8BA4-BD9ECFFACF10";
shapes = (
{
closed = 1;
nodes = (
(290,6,l),
(527,563,l),
(458,603,l),
(248,65,l),
(238,65,l),
(236,209,l),
(217,603,l),
(124,603,l),
(164,2,l),
(174,-8,l)
);
},
{
closed = 1;
nodes = (
(274,557,l),
(282,603,l),
(79,603,l),
(73,565,l),
(177,529,l)
);
},
{
closed = 1;
nodes = (
(527,563,l),
(525,603,l),
(373,603,l),
(365,557,l),
(467,529,l)
);
}
);
width = 505;
},
{
background = {
shapes = (
{
closed = 1;
nodes = (
(249,571,l),
(253,591,l),
(105,591,l),
(101,571,l),
(158,566,l),
(205,-2,l),
(205,-2,o),
(215,-10,o),
(218,-10,cs),
(223,-10,o),
(255,-5,o),
(255,-5,c),
(505,566,l),
(562,571,l),
(566,591,l),
(418,591,l),
(414,571,l),
(475,564,l),
(240,25,l),
(232,25,l),
(232,25,o),
(223,141,o),
(217,208,c),
(217,208,o),
(188,564,o),
(188,564,c)
);
}
);
};
layerId = "16B79A64-180D-495F-8650-CA27198DF3EF";
shapes = (
{
closed = 1;
nodes = (
(225,0,l),
(469,574,l),
(449,591,l),
(206,16,l),
(200,16,l),
(192,160,l),
(159,591,l),
(130,591,l),
(175,0,l),
(184,-9,l)
);
},
{
closed = 1;
nodes = (
(225,573,l),
(228,591,l),
(72,591,l),
(69,576,l),
(149,563,l)
);
},
{
closed = 1;
nodes = (
(469,574,l),
(466,591,l),
(384,591,l),
(381,573,l),
(450,563,l)
);
}
);
width = 450;
},
{
layerId = "E259E77F-022A-45EF-A0F1-1168268390B3";
shapes = (
{
closed = 1;
nodes = (
(356,0,l),
(612,548,l),
(481,613,l),
(311,141,l),
(300,141,l),
(299,281,l),
(283,613,l),
(104,613,l),
(155,10,l),
(174,-9,l)
);
},
{
closed = 1;
nodes = (
(341,533,l),
(354,613,l),
(67,613,l),
(56,541,l),
(216,505,l)
);
},
{
closed = 1;
nodes = (
(612,548,l),
(599,613,l),
(400,613,l),
(387,533,l),
(502,505,l)
);
}
);
width = 572;
}
);
unicode = 86;
},
{
color = 4;
glyphname = W;
kernLeft = W;
kernRight = W;
layers = (
{
anchors = (
{
name = top;
pos = (449,603);
}
);
layerId = "D9712079-C16A-42CB-8BA4-BD9ECFFACF10";
shapes = (
{
closed = 1;
nodes = (
(555,6,l),
(790,563,l),
(721,603,l),
(513,65,l),
(503,65,l),
(502,209,l),
(482,603,l),
(399,603,l),
(429,2,l),
(439,-8,l)
);
},
{
closed = 1;
nodes = (
(298,6,l),
(407,322,l),
(430,322,l),
(413,511,l),
(256,65,l),
(246,65,l),
(241,209,l),
(217,603,l),
(124,603,l),
(172,2,l),
(182,-8,l)
);
},
{
closed = 1;
nodes = (
(274,557,l),
(282,603,l),
(79,603,l),
(73,565,l),
(177,529,l)
);
},
{
closed = 1;
nodes = (
(544,557,l),
(552,603,l),
(345,603,l),
(339,565,l),
(443,529,l)
);
},
{
closed = 1;
nodes = (
(790,563,l),
(788,603,l),
(636,603,l),
(628,557,l),
(730,529,l)
);
}
);
width = 768;
},
{
anchors = (
{
name = top;
pos = (427,591);
}
);
background = {
shapes = (
{
closed = 1;
nodes = (
(435,454,l),
(251,12,l),
(245,12,l),
(231,160,l),
(184,591,l),
(155,591,l),
(223,0,l),
(232,-9,l),
(269,0,l),
(440,408,l)
);
},
{
closed = 1;
nodes = (
(174,563,l),
(249,570,l),
(252,591,l),
(97,591,l),
(94,573,l)
);
},
{
closed = 1;
nodes = (
(470,-9,l),
(507,0,l),
(748,591,l),
(721,591,l),
(489,12,l),
(483,12,l),
(472,160,l),
(433,591,l),
(401,591,l),
(422,366,l),
(426,366,l),
(461,0,l)
);
},
{
closed = 1;
nodes = (
(425,563,l),
(500,570,l),
(503,591,l),
(348,591,l),
(345,573,l)
);
},
{
closed = 1;
nodes = (
(802,591,l),
(651,591,l),
(648,570,l),
(722,563,l),
(799,573,l)
);
}
);
};
layerId = "16B79A64-180D-495F-8650-CA27198DF3EF";
shapes = (
{
closed = 1;
nodes = (
(489,0,l),
(733,574,l),
(713,591,l),
(470,16,l),
(464,16,l),
(458,160,l),
(434,591,l),
(405,591,l),
(439,0,l),
(448,-9,l)
);
},
{
closed = 1;
nodes = (
(222,0,l),
(409,457,l),
(423,457,l),
(417,534,l),
(203,16,l),
(197,16,l),
(190,160,l),
(159,591,l),
(130,591,l),
(173,0,l),
(182,-9,l)
);
},
{
closed = 1;
nodes = (
(225,573,l),
(228,591,l),
(72,591,l),
(69,576,l),
(149,563,l)
);
},
{
closed = 1;
nodes = (
(500,573,l),
(503,591,l),
(347,591,l),
(344,576,l),
(424,563,l)
);
},
{
closed = 1;
nodes = (
(733,574,l),
(730,591,l),
(648,591,l),
(645,573,l),
(714,563,l)
);
}
);
width = 714;
},
{
anchors = (
{
name = top;
pos = (532,613);
}
);
layerId = "E259E77F-022A-45EF-A0F1-1168268390B3";
shapes = (
{
closed = 1;
nodes = (
(662,0,l),
(923,548,l),
(792,613,l),
(617,141,l),
(606,141,l),
(608,281,l),
(600,613,l),
(428,613,l),
(461,10,l),
(480,-9,l)
);
},
{
closed = 1;
nodes = (
(349,0,l),
(440,207,l),
(472,207,l),
(443,505,l),
(304,141,l),
(293,141,l),
(299,281,l),
(283,613,l),
(104,613,l),
(148,10,l),
(167,-9,l)
);
},
{
closed = 1;
nodes = (
(337,533,l),
(350,613,l),
(67,613,l),
(56,541,l),
(216,505,l)
);
},
{
closed = 1;
nodes = (
(654,533,l),
(667,613,l),
(392,613,l),
(381,541,l),
(529,505,l)
);
},
{
closed = 1;
nodes = (
(923,548,l),
(910,613,l),
(709,613,l),
(696,533,l),
(813,505,l)
);
}
);
width = 883;
}
);
metricLeft = V;
metricRight = V;
unicode = 87;
},
{
color = 4;
glyphname = X;
kernLeft = X;
kernRight = X;
layers = (
{
layerId = "D9712079-C16A-42CB-8BA4-BD9ECFFACF10";
shapes = (
{
closed = 1;
nodes = (
(71,0,l),
(260,253,l),
(332,319,l),
(548,603,l),
(460,603,l),
(300,369,l),
(227,307,l),
(-14,0,l)
);
},
{
closed = 1;
nodes = (
(174,0,l),
(182,46,l),
(80,74,l),
(-33,38,l),
(-39,0,l)
);
},
{
closed = 1;
nodes = (
(495,0,l),
(501,38,l),
(380,74,l),
(273,46,l),
(265,0,l)
);
},
{
closed = 1;
nodes = (
(470,0,l),
(332,319,l),
(300,369,l),
(192,603,l),
(98,603,l),
(227,307,l),
(260,253,l),
(368,0,l)
);
},
{
closed = 1;
nodes = (
(292,557,l),
(300,603,l),
(80,603,l),
(74,565,l),
(178,529,l)
);
},
{
closed = 1;
nodes = (
(567,565,l),
(573,603,l),
(361,603,l),
(353,557,l),
(455,529,l)
);
}
);
width = 510;
},
{
background = {
shapes = (
{
closed = 1;
nodes = (
(328,363,o),
(334,369,o),
(334,377,cs),
(334,385,o),
(328,391,o),
(320,391,cs),
(312,391,o),
(306,385,o),
(306,377,cs),
(306,369,o),
(312,363,o),
(320,363,c)
);
},
{
closed = 1;
nodes = (
(476,563,o),
(482,569,o),
(482,577,cs),
(482,585,o),
(476,591,o),
(468,591,cs),
(460,591,o),
(454,585,o),
(454,577,cs),
(454,569,o),
(460,563,o),
(468,563,c)
);
},
{
closed = 1;
nodes = (
(245,363,o),
(251,369,o),
(251,377,cs),
(251,385,o),
(245,391,o),
(237,391,cs),
(229,391,o),
(223,385,o),
(223,377,cs),
(223,369,o),
(229,363,o),
(237,363,c)
);
},
{
closed = 1;
nodes = (
(163,563,o),
(169,569,o),
(169,577,cs),
(169,585,o),
(163,591,o),
(155,591,cs),
(147,591,o),
(141,585,o),
(141,577,cs),
(141,569,o),
(147,563,o),
(155,563,c)
);
},
{
closed = 1;
nodes = (
(306,231,o),
(312,237,o),
(312,245,cs),
(312,253,o),
(306,259,o),
(298,259,cs),
(290,259,o),
(284,253,o),
(284,245,cs),
(284,237,o),
(290,231,o),
(298,231,c)
);
},
{
closed = 1;
nodes = (
(401,0,o),
(407,6,o),
(407,14,cs),
(407,22,o),
(401,28,o),
(393,28,cs),
(385,28,o),
(379,22,o),
(379,14,cs),
(379,6,o),
(385,0,o),
(393,0,c)
);
},
{
closed = 1;
nodes = (
(48,0,o),
(54,6,o),
(54,14,cs),
(54,22,o),
(48,28,o),
(40,28,cs),
(32,28,o),
(26,22,o),
(26,14,cs),
(26,6,o),
(32,0,o),
(40,0,c)
);
},
{
closed = 1;
nodes = (
(213,220,o),
(219,226,o),
(219,234,cs),
(219,242,o),
(213,248,o),
(205,248,cs),
(197,248,o),
(191,242,o),
(191,234,cs),
(191,226,o),
(197,220,o),
(205,220,c)
);
},
{
pos = (851,0);
ref = H;
},
{
pos = (-54,0);
ref = H;
}
);
};
layerId = "16B79A64-180D-495F-8650-CA27198DF3EF";
shapes = (
{
closed = 1;
nodes = (
(25,0,l),
(232,291,l),
(250,305,l),
(452,591,l),
(422,591,l),
(237,323,l),
(221,315,l),
(-7,0,l)
);
},
{
closed = 1;
nodes = (
(100,0,l),
(103,18,l),
(29,28,l),
(-49,15,l),
(-52,0,l)
);
},
{
closed = 1;
nodes = (
(425,0,l),
(428,15,l),
(345,28,l),
(266,18,l),
(263,0,l)
);
},
{
closed = 1;
nodes = (
(374,0,l),
(250,313,l),
(244,323,l),
(144,591,l),
(113,591,l),
(220,305,l),
(227,296,l),
(342,0,l)
);
},
{
closed = 1;
nodes = (
(217,573,l),
(220,591,l),
(60,591,l),
(57,576,l),
(139,563,l)
);
},
{
closed = 1;
nodes = (
(492,576,l),
(495,591,l),
(343,591,l),
(340,573,l),
(414,563,l)
);
}
);
width = 429;
},
{
background = {
shapes = (
{
closed = 1;
nodes = (
(465,336,l),
(404,379,l),
(308,613,l),
(96,613,l),
(253,302,l),
(312,255,l),
(414,0,l),
(630,0,l)
);
},
{
closed = 1;
nodes = (
(461,319,l),
(710,613,l),
(532,613,l),
(389,382,l),
(246,325,l),
(-21,0,l),
(152,0,l),
(322,253,l)
);
},
{
closed = 1;
nodes = (
(240,505,l),
(382,533,l),
(395,613,l),
(96,613,l),
(85,541,l)
);
},
{
closed = 1;
nodes = (
(711,541,l),
(722,613,l),
(423,613,l),
(410,533,l),
(540,505,l)
);
},
{
closed = 1;
nodes = (
(-10,72,l),
(-21,0,l),
(268,0,l),
(281,80,l),
(161,108,l)
);
},
{
closed = 1;
nodes = (
(471,108,l),
(324,80,l),
(311,0,l),
(630,0,l),
(641,72,l)
);
}
);
};
layerId = "E259E77F-022A-45EF-A0F1-1168268390B3";
shapes = (
{
closed = 1;
nodes = (
(121,0,l),
(291,253,l),
(430,319,l),
(679,613,l),
(501,613,l),
(358,382,l),
(215,325,l),
(-52,0,l)
);
},
{
closed = 1;
nodes = (
(237,0,l),
(250,80,l),
(130,108,l),
(-41,72,l),
(-52,0,l)
);
},
{
closed = 1;
nodes = (
(599,0,l),
(610,72,l),
(440,108,l),
(293,80,l),
(280,0,l)
);
},
{
closed = 1;
nodes = (
(594,0,l),
(429,336,l),
(368,379,l),
(272,613,l),
(70,613,l),
(227,302,l),
(286,255,l),
(388,0,l)
);
},
{
closed = 1;
nodes = (
(351,533,l),
(364,613,l),
(65,613,l),
(54,541,l),
(209,505,l)
);
},
{
closed = 1;
nodes = (
(680,541,l),
(691,613,l),
(392,613,l),
(379,533,l),
(509,505,l)
);
}
);
width = 615;
}
);
unicode = 88;
},
{
color = 4;
glyphname = Y;
kernLeft = Y;
kernRight = Y;
layers = (
{
anchors = (
{
name = bottom;
pos = (215,0);
},
{
name = top;
pos = (293,603);
}
);
background = {
shapes = (
{
closed = 1;
nodes = (
(323,227,l),
(293,58,l),
(355,38,l),
(348,0,l),
(125,0,l),
(132,38,l),
(200,58,l),
(229,224,l),
(127,545,l),
(68,565,l),
(75,603,l),
(304,603,l),
(296,557,l),
(227,540,l),
(293,315,l),
(302,315,l),
(443,540,l),
(377,557,l),
(385,603,l),
(606,603,l),
(599,565,l),
(534,545,l)
);
}
);
};
layerId = "D9712079-C16A-42CB-8BA4-BD9ECFFACF10";
shapes = (
{
closed = 1;
nodes = (
(249,0,l),
(289,241,l),
(493,563,l),
(430,603,l),
(266,314,l),
(258,314,l),
(170,603,l),
(76,603,l),
(198,231,l),
(159,0,l)
);
},
{
closed = 1;
nodes = (
(320,0,l),
(328,46,l),
(216,74,l),
(93,38,l),
(87,0,l)
);
},
{
closed = 1;
nodes = (
(239,557,l),
(247,603,l),
(45,603,l),
(39,565,l),
(143,529,l)
);
},
{
closed = 1;
nodes = (
(493,563,l),
(491,603,l),
(338,603,l),
(330,557,l),
(449,534,l)
);
}
);
width = 462;
},
{
anchors = (
{
name = bottom;
pos = (183,0);
},
{
name = top;
pos = (266,591);
}
);
background = {
shapes = (
{
closed = 1;
nodes = (
(147,563,o),
(153,569,o),
(153,577,cs),
(153,585,o),
(147,591,o),
(139,591,cs),
(131,591,o),
(125,585,o),
(125,577,cs),
(125,569,o),
(131,563,o),
(139,563,c)
);
},
{
closed = 1;
nodes = (
(232,313,o),
(238,319,o),
(238,327,cs),
(238,335,o),
(232,341,o),
(224,341,cs),
(216,341,o),
(210,335,o),
(210,327,cs),
(210,319,o),
(216,313,o),
(224,313,c)
);
},
{
closed = 1;
nodes = (
(310,303,o),
(316,309,o),
(316,317,cs),
(316,325,o),
(310,331,o),
(302,331,cs),
(294,331,o),
(288,325,o),
(288,317,cs),
(288,309,o),
(294,303,o),
(302,303,c)
);
},
{
closed = 1;
nodes = (
(466,563,o),
(472,569,o),
(472,577,cs),
(472,585,o),
(466,591,o),
(458,591,cs),
(450,591,o),
(444,585,o),
(444,577,cs),
(444,569,o),
(450,563,o),
(458,563,c)
);
},
{
closed = 1;
nodes = (
(485,566,l),
(542,571,l),
(545,591,l),
(397,591,l),
(394,571,l),
(453,564,l),
(263,273,l),
(256,273,l),
(168,564,l),
(229,571,l),
(232,591,l),
(84,591,l),
(81,571,l),
(136,566,l),
(237,239,l),
(199,25,l),
(141,20,l),
(138,0,l),
(282,0,l),
(285,20,l),
(229,25,l),
(267,239,l)
);
}
);
};
layerId = "16B79A64-180D-495F-8650-CA27198DF3EF";
shapes = (
{
closed = 1;
nodes = (
(187,0,l),
(231,244,l),
(438,573,l),
(419,591,l),
(225,275,l),
(220,275,l),
(124,591,l),
(94,591,l),
(202,239,l),
(159,0,l)
);
},
{
closed = 1;
nodes = (
(265,0,l),
(268,18,l),
(182,28,l),
(91,15,l),
(88,0,l)
);
},
{
closed = 1;
nodes = (
(193,573,l),
(196,591,l),
(52,591,l),
(49,576,l),
(117,563,l)
);
},
{
closed = 1;
nodes = (
(438,573,l),
(437,591,l),
(342,591,l),
(339,573,l),
(413,563,l)
);
}
);
width = 411;
},
{
anchors = (
{
name = bottom;
pos = (264,0);
},
{
name = top;
pos = (360,613);
}
);
background = {
shapes = (
{
closed = 1;
nodes = (
(132,72,l),
(119,0,l),
(440,0,l),
(453,72,l),
(392,97,l),
(418,245,l),
(468,314,o),
(587,480,o),
(612,520,c),
(677,540,l),
(690,612,l),
(431,612,l),
(417,532,l),
(465,515,l),
(441,472,o),
(386,378,o),
(368,351,c),
(358,351,l),
(358,351,o),
(346,406,o),
(320,515,c),
(373,532,l),
(387,612,l),
(85,612,l),
(72,540,l),
(131,520,l),
(227,243,l),
(201,97,l)
);
}
);
};
layerId = "E259E77F-022A-45EF-A0F1-1168268390B3";
shapes = (
{
closed = 1;
nodes = (
(343,0,l),
(387,251,l),
(589,548,l),
(481,613,l),
(337,350,l),
(327,350,l),
(271,613,l),
(81,613,l),
(201,243,l),
(160,0,l)
);
},
{
closed = 1;
nodes = (
(421,0,l),
(434,80,l),
(284,108,l),
(93,72,l),
(82,0,l)
);
},
{
closed = 1;
nodes = (
(333,533,l),
(346,613,l),
(47,613,l),
(36,541,l),
(186,505,l)
);
},
{
closed = 1;
nodes = (
(589,548,l),
(575,613,l),
(388,613,l),
(375,533,l),
(511,505,l)
);
}
);
width = 551;
}
);
unicode = 89;
},
{
color = 4;
glyphname = Z;
kernLeft = Z;
kernRight = Z;
layers = (
{
anchors = (
{
name = bottom;
pos = (197,0);
},
{
name = top;
pos = (298,603);
}
);
layerId = "D9712079-C16A-42CB-8BA4-BD9ECFFACF10";
shapes = (
{
closed = 1;
nodes = (
(69,0,l),
(483,565,l),
(490,603,l),
(410,603,l),
(6,50,l),
(-2,0,l)
);
},
{
closed = 1;
nodes = (
(410,0,l),
(410,58,l),
(63,74,l),
(6,50,l),
(-2,0,l)
);
},
{
closed = 1;
nodes = (
(410,0,l),
(430,184,l),
(379,184,l),
(330,0,l)
);
},
{
closed = 1;
nodes = (
(138,428,l),
(180,603,l),
(103,603,l),
(85,428,l)
);
},
{
closed = 1;
nodes = (
(483,565,l),
(490,603,l),
(103,603,l),
(103,547,l),
(411,533,l)
);
}
);
width = 471;
},
{
anchors = (
{
name = bottom;
pos = (157,0);
},
{
name = top;
pos = (250,591);
}
);
background = {
shapes = (
{
closed = 1;
nodes = (
(462,571,l),
(466,591,l),
(129,591,l),
(132,570,l),
(427,563,l)
);
},
{
closed = 1;
nodes = (
(29,0,l),
(48,0,l),
(462,571,l),
(466,591,l),
(439,591,l),
(34,26,l)
);
},
{
closed = 1;
nodes = (
(34,26,l),
(29,0,l),
(379,0,l),
(375,23,l),
(64,31,l)
);
},
{
closed = 1;
nodes = (
(129,591,l),
(117,460,l),
(135,460,l),
(162,591,l)
);
},
{
closed = 1;
nodes = (
(379,0,l),
(395,137,l),
(377,137,l),
(346,0,l)
);
}
);
};
layerId = "16B79A64-180D-495F-8650-CA27198DF3EF";
shapes = (
{
closed = 1;
nodes = (
(4,0,l),
(421,571,l),
(425,591,l),
(403,591,l),
(-7,26,l),
(-12,0,l)
);
},
{
closed = 1;
nodes = (
(338,0,l),
(334,23,l),
(23,27,l),
(-7,26,l),
(-12,0,l)
);
},
{
closed = 1;
nodes = (
(338,0,l),
(354,137,l),
(336,137,l),
(305,0,l)
);
},
{
closed = 1;
nodes = (
(94,460,l),
(121,591,l),
(88,591,l),
(76,460,l)
);
},
{
closed = 1;
nodes = (
(421,571,l),
(425,591,l),
(88,591,l),
(91,570,l),
(386,565,l)
);
}
);
width = 392;
},
{
anchors = (
{
name = bottom;
pos = (219,0);
},
{
name = top;
pos = (313,613);
}
);
layerId = "E259E77F-022A-45EF-A0F1-1168268390B3";
shapes = (
{
closed = 1;
nodes = (
(146,0,l),
(552,545,l),
(567,613,l),
(397,613,l),
(-3,80,l),
(-15,0,l)
);
},
{
closed = 1;
nodes = (
(475,0,l),
(479,83,l),
(54,119,l),
(-3,80,l),
(-15,0,l)
);
},
{
closed = 1;
nodes = (
(478,0,l),
(508,243,l),
(420,243,l),
(360,0,l)
);
},
{
closed = 1;
nodes = (
(138,373,l),
(188,613,l),
(72,613,l),
(45,373,l)
);
},
{
closed = 1;
nodes = (
(552,545,l),
(567,613,l),
(72,613,l),
(64,532,l),
(480,498,l)
);
}
);
width = 520;
}
);
unicode = 90;
},
{
color = 4;
glyphname = M.alt;
kernLeft = H;
kernRight = N.alt;
layers = (
{
layerId = "16B79A64-180D-495F-8650-CA27198DF3EF";
shapes = (
{
closed = 1;
nodes = (
(163,0,l),
(166,21,l),
(102,27,l),
(188,520,l),
(243,540,o),
(325,572,o),
(367,572,cs),
(422,572,o),
(430,544,o),
(418,473,cs),
(341,26,l),
(281,18,l),
(278,0,l),
(430,0,l),
(433,21,l),
(369,27,l),
(455,520,l),
(516,539,o),
(595,572,o),
(639,572,cs),
(679,572,o),
(697,544,o),
(685,473,cs),
(608,27,l),
(543,21,l),
(540,0,l),
(692,0,l),
(695,18,l),
(635,25,l),
(712,465,ls),
(729,562,o),
(707,601,o),
(637,601,cs),
(602,601,o),
(491,556,o),
(455,544,c),
(449,582,o),
(417,601,o),
(365,601,cs),
(334,601,o),
(224,557,o),
(192,546,c),
(194,591,l),
(111,591,l),
(108,573,l),
(168,566,l),
(73,25,l),
(14,18,l),
(11,0,l)
);
}
);
width = 756;
},
{
layerId = "D9712079-C16A-42CB-8BA4-BD9ECFFACF10";
shapes = (
{
closed = 1;
nodes = (
(217,0,l),
(225,46,l),
(164,63,l),
(239,495,l),
(281,508,o),
(350,530,o),
(373,530,cs),
(399,530,o),
(416,513,o),
(402,434,cs),
(336,58,l),
(274,38,l),
(268,0,l),
(481,0,l),
(489,46,l),
(428,63,l),
(503,495,l),
(545,508,o),
(614,530,o),
(643,530,cs),
(663,530,o),
(681,514,o),
(667,435,cs),
(603,63,l),
(539,46,l),
(531,0,l),
(744,0,l),
(750,38,l),
(693,58,l),
(758,431,ls),
(783,574,o),
(729,611,o),
(642,611,cs),
(636,611,o),
(555,570,o),
(500,544,c),
(485,582,o),
(453,611,o),
(378,611,cs),
(374,611,o),
(303,572,o),
(248,544,c),
(237,603,l),
(105,603,l),
(99,565,l),
(157,545,l),
(72,58,l),
(10,38,l),
(4,0,l)
);
}
);
width = 813;
},
{
layerId = "E259E77F-022A-45EF-A0F1-1168268390B3";
shapes = (
{
closed = 1;
nodes = (
(269,0,l),
(282,80,l),
(231,92,l),
(292,451,l),
(323,460,o),
(364,470,o),
(385,470,cs),
(422,470,o),
(442,459,o),
(427,372,cs),
(379,92,l),
(325,80,l),
(312,0,l),
(601,0,l),
(612,72,l),
(559,85,l),
(622,451,l),
(653,460,o),
(686,470,o),
(707,470,cs),
(744,470,o),
(763,459,o),
(748,372,cs),
(701,92,l),
(648,80,l),
(634,0,l),
(928,0,l),
(939,72,l),
(882,85,l),
(939,419,ls),
(963,558,o),
(930,625,o),
(760,625,cs),
(752,625,o),
(650,572,o),
(612,551,c),
(593,601,o),
(544,625,o),
(454,625,cs),
(446,625,o),
(345,572,o),
(307,551,c),
(295,613,l),
(77,613,l),
(66,541,l),
(124,528,l),
(47,85,l),
(-14,72,l),
(-26,0,l)
);
}
);
width = 969;
}
);
metricLeft = H;
},
{
color = 4;
glyphname = N.alt;
kernLeft = H;
kernRight = N.alt;
layers = (
{
anchors = (
{
name = bottom;
pos = (233,0);
},
{
name = top;
pos = (327,591);
}
);
layerId = "16B79A64-180D-495F-8650-CA27198DF3EF";
shapes = (
{
closed = 1;
nodes = (
(163,0,l),
(166,21,l),
(102,27,l),
(188,520,l),
(249,540,o),
(339,572,o),
(386,572,cs),
(438,572,o),
(460,541,o),
(446,463,cs),
(370,27,l),
(305,21,l),
(302,0,l),
(454,0,l),
(457,18,l),
(397,25,l),
(472,455,ls),
(490,559,o),
(465,601,o),
(384,601,cs),
(349,601,o),
(227,556,o),
(193,546,c),
(193,591,l),
(111,591,l),
(108,573,l),
(168,566,l),
(73,25,l),
(14,18,l),
(11,0,l)
);
}
);
width = 518;
},
{
anchors = (
{
name = bottom;
pos = (262,0);
},
{
name = top;
pos = (357,603);
}
);
layerId = "D9712079-C16A-42CB-8BA4-BD9ECFFACF10";
shapes = (
{
closed = 1;
nodes = (
(216,0,l),
(224,46,l),
(163,63,l),
(238,495,l),
(282,506,o),
(380,530,o),
(406,530,cs),
(435,530,o),
(458,517,o),
(440,412,cs),
(379,63,l),
(315,46,l),
(307,0,l),
(521,0,l),
(526,38,l),
(469,58,l),
(535,433,ls),
(554,543,o),
(517,611,o),
(420,611,cs),
(408,611,o),
(302,567,o),
(247,544,c),
(236,603,l),
(105,603,l),
(99,565,l),
(156,545,l),
(71,58,l),
(9,38,l),
(3,0,l)
);
}
);
width = 590;
},
{
anchors = (
{
name = bottom;
pos = (290,0);
},
{
name = top;
pos = (384,613);
}
);
layerId = "E259E77F-022A-45EF-A0F1-1168268390B3";
shapes = (
{
closed = 1;
nodes = (
(274,0,l),
(287,80,l),
(230,92,l),
(292,451,l),
(325,460,o),
(362,470,o),
(386,470,cs),
(423,470,o),
(443,462,o),
(428,378,cs),
(378,92,l),
(320,80,l),
(307,0,l),
(605,0,l),
(618,72,l),
(560,85,l),
(615,407,ls),
(640,555,o),
(619,625,o),
(465,625,cs),
(456,625,o),
(350,572,o),
(308,551,c),
(296,613,l),
(77,613,l),
(66,541,l),
(123,528,l),
(48,85,l),
(-14,72,l),
(-25,0,l)
);
}
);
width = 646;
}
);
metricLeft = H;
metricRight = M.alt;
},
{
color = 4;
glyphname = Nhookleft.alt;
kernLeft = J;
kernRight = N.alt;
layers = (
{
layerId = "16B79A64-180D-495F-8650-CA27198DF3EF";
shapes = (
{
closed = 1;
nodes = (
(42,-129,o),
(86,-69,o),
(96,-13,cs),
(189,520,l),
(250,540,o),
(340,572,o),
(387,572,cs),
(439,572,o),
(461,541,o),
(447,463,cs),
(371,27,l),
(306,21,l),
(303,0,l),
(455,0,l),
(458,18,l),
(398,25,l),
(473,455,ls),
(491,559,o),
(466,601,o),
(385,601,cs),
(350,601,o),
(228,556,o),
(194,546,c),
(194,591,l),
(112,591,l),
(109,573,l),
(169,566,l),
(67,-9,ls),
(58,-59,o),
(37,-98,o),
(21,-101,cs),
(6,-104,o),
(-46,-103,o),
(-72,-103,c),
(-75,-120,l),
(-50,-124,o),
(6,-129,o),
(12,-129,cs)
);
}
);
width = 529;
},
{
layerId = "D9712079-C16A-42CB-8BA4-BD9ECFFACF10";
shapes = (
{
closed = 1;
nodes = (
(24,-153,o),
(137,-54,o),
(148,8,cs),
(234,495,l),
(278,506,o),
(376,530,o),
(402,530,cs),
(431,530,o),
(454,517,o),
(436,412,cs),
(375,63,l),
(311,46,l),
(303,0,l),
(517,0,l),
(522,38,l),
(465,58,l),
(531,433,ls),
(550,543,o),
(513,611,o),
(416,611,cs),
(404,611,o),
(298,567,o),
(243,544,c),
(232,603,l),
(101,603,l),
(95,565,l),
(152,545,l),
(65,40,ls),
(59,5,o),
(44,-73,o),
(14,-79,cs),
(-1,-82,o),
(-56,-82,o),
(-82,-82,c),
(-97,-129,l),
(-64,-138,o),
(-21,-153,o),
(-6,-153,cs)
);
}
);
width = 581;
},
{
layerId = "E259E77F-022A-45EF-A0F1-1168268390B3";
shapes = (
{
closed = 1;
nodes = (
(81,-184,o),
(197,-54,o),
(209,13,cs),
(285,451,l),
(318,460,o),
(355,470,o),
(379,470,cs),
(416,470,o),
(436,462,o),
(421,378,cs),
(371,92,l),
(313,80,l),
(300,0,l),
(598,0,l),
(611,72,l),
(553,85,l),
(608,407,ls),
(633,555,o),
(612,625,o),
(458,625,cs),
(449,625,o),
(343,572,o),
(301,551,c),
(289,613,l),
(70,613,l),
(59,541,l),
(116,528,l),
(35,49,ls),
(29,14,o),
(14,-65,o),
(-6,-70,cs),
(-21,-74,o),
(-98,-73,o),
(-124,-73,c),
(-142,-151,l),
(-101,-162,o),
(11,-184,o),
(46,-184,cs)
);
}
);
width = 641;
}
);
},
{
color = 4;
glyphname = Eng.alt;
kernLeft = H;
kernRight = J;
layers = (
{
layerId = "16B79A64-180D-495F-8650-CA27198DF3EF";
shapes = (
{
closed = 1;
nodes = (
(342,-129,o),
(379,-72,o),
(393,6,cs),
(472,455,ls),
(490,559,o),
(465,601,o),
(384,601,cs),
(349,601,o),
(227,556,o),
(193,546,c),
(193,591,l),
(111,591,l),
(108,573,l),
(168,566,l),
(73,25,l),
(14,18,l),
(11,0,l),
(163,0,l),
(166,21,l),
(102,27,l),
(188,520,l),
(249,540,o),
(339,572,o),
(386,572,cs),
(438,572,o),
(459,541,o),
(446,463,cs),
(361,-28,o),
(354,-94,o),
(318,-101,cs),
(303,-104,o),
(251,-103,o),
(225,-103,c),
(222,-120,l),
(247,-124,o),
(304,-129,o),
(310,-129,cs)
);
}
);
width = 521;
},
{
layerId = "D9712079-C16A-42CB-8BA4-BD9ECFFACF10";
shapes = (
{
closed = 1;
nodes = (
(346,-153,o),
(449,-55,o),
(460,7,cs),
(535,433,ls),
(554,543,o),
(517,611,o),
(420,611,cs),
(408,611,o),
(302,567,o),
(247,544,c),
(236,603,l),
(105,603,l),
(99,565,l),
(156,545,l),
(71,58,l),
(9,38,l),
(3,0,l),
(216,0,l),
(224,46,l),
(163,63,l),
(238,495,l),
(282,506,o),
(380,530,o),
(406,530,cs),
(435,530,o),
(458,517,o),
(440,412,cs),
(362,-34,o),
(360,-72,o),
(324,-79,cs),
(309,-82,o),
(252,-82,o),
(226,-82,c),
(211,-129,l),
(244,-138,o),
(301,-153,o),
(316,-153,cs)
);
}
);
width = 578;
},
{
layerId = "E259E77F-022A-45EF-A0F1-1168268390B3";
shapes = (
{
closed = 1;
nodes = (
(427,-184,o),
(537,-53,o),
(548,14,cs),
(615,407,ls),
(640,555,o),
(619,625,o),
(465,625,cs),
(456,625,o),
(350,572,o),
(308,551,c),
(296,613,l),
(77,613,l),
(66,541,l),
(123,528,l),
(48,85,l),
(-14,72,l),
(-25,0,l),
(274,0,l),
(287,80,l),
(230,92,l),
(292,451,l),
(325,460,o),
(362,470,o),
(386,470,cs),
(423,470,o),
(443,462,o),
(428,378,cs),
(359,-20,o),
(352,-65,o),
(332,-70,cs),
(317,-74,o),
(240,-73,o),
(214,-73,c),
(196,-151,l),
(237,-162,o),
(357,-184,o),
(392,-184,cs)
);
}
);
width = 636;
}
);
metricLeft = H;
},
{
color = 4;
glyphname = a;
kernLeft = o;
kernRight = a;
layers = (
{
anchors = (
{
name = bottom;
pos = (193,0);
},
{
name = ogonek;
pos = (371,22);
},
{
name = top;
pos = (255,448);
}
);
background = {
shapes = (
{
closed = 1;
nodes = (
(206,-9,o),
(266,100,o),
(306,170,c),
(320,170,l),
(337,268,l),
(283,186,o),
(204,65,o),
(193,65,cs),
(177,65,o),
(161,91,o),
(161,147,cs),
(161,282,o),
(205,394,o),
(242,404,cs),
(257,408,o),
(315,395,o),
(357,377,c),
(444,435,l),
(412,442,o),
(300,457,o),
(283,457,cs),
(261,457,o),
(143,386,o),
(119,358,c),
(94,315,o),
(69,226,o),
(69,141,cs),
(69,50,o),
(106,-9,o),
(199,-9,cs)
);
},
{
closed = 1;
nodes = (
(322,-9,o),
(418,22,o),
(418,22,c),
(423,52,l),
(378,63,l),
(444,435,l),
(357,435,l),
(318,207,l),
(288,22,l),
(288,15,o),
(311,-9,o),
(315,-9,cs)
);
}
);
};
layerId = "D9712079-C16A-42CB-8BA4-BD9ECFFACF10";
shapes = (
{
closed = 1;
nodes = (
(159,-9,o),
(217,96,o),
(257,166,c),
(271,166,l),
(290,268,l),
(236,186,o),
(157,65,o),
(146,65,cs),
(130,65,o),
(114,91,o),
(114,147,cs),
(114,282,o),
(158,389,o),
(195,399,cs),
(210,403,o),
(268,395,o),
(310,377,c),
(397,435,l),
(365,442,o),
(253,457,o),
(236,457,cs),
(214,457,o),
(96,386,o),
(72,358,c),
(47,315,o),
(22,226,o),
(22,141,cs),
(22,50,o),
(59,-9,o),
(152,-9,cs)
);
},
{
closed = 1;
nodes = (
(273,-9,o),
(330,9,o),
(371,22,c),
(376,52,l),
(331,63,l),
(397,435,l),
(310,435,l),
(271,207,l),
(241,22,l),
(241,15,o),
(264,-9,o),
(268,-9,cs)
);
}
);
width = 437;
},
{
anchors = (
{
name = bottom;
pos = (233,0);
},
{
name = ogonek;
pos = (456,15);
},
{
name = top;
pos = (285,462);
}
);
background = {
shapes = (
{
closed = 1;
nodes = (
(531,448,l),
(499,455,o),
(356,477,o),
(339,477,cs),
(309,477,o),
(163,414,o),
(117,380,c),
(93,334,o),
(58,217,o),
(58,141,cs),
(58,51,o),
(96,-8,o),
(211,-8,cs),
(223,-8,o),
(266,72,o),
(307,147,c),
(333,147,l),
(350,242,l),
(319,199,o),
(274,156,o),
(263,156,cs),
(241,156,o),
(233,165,o),
(233,198,cs),
(233,304,o),
(274,386,o),
(289,396,c),
(304,398,o),
(395,374,o),
(444,352,c)
);
},
{
closed = 1;
nodes = (
(299,40,ls),
(297,26,o),
(324,-9,o),
(333,-9,cs),
(362,-9,o),
(468,8,o),
(502,15,c),
(514,84,l),
(468,95,l),
(531,448,l),
(364,448,l)
);
}
);
};
layerId = "E259E77F-022A-45EF-A0F1-1168268390B3";
shapes = (
{
closed = 1;
nodes = (
(169,-8,o),
(217,76,o),
(261,152,c),
(287,152,l),
(304,236,l),
(272,203,o),
(225,156,o),
(219,156,cs),
(195,156,o),
(187,165,o),
(187,198,cs),
(187,304,o),
(226,392,o),
(243,396,cs),
(256,399,o),
(349,374,o),
(398,352,c),
(485,448,l),
(453,455,o),
(310,477,o),
(293,477,cs),
(263,477,o),
(118,414,o),
(72,380,c),
(43,332,o),
(12,217,o),
(12,141,cs),
(12,51,o),
(50,-8,o),
(165,-8,cs)
);
},
{
closed = 1;
nodes = (
(321,-9,o),
(422,8,o),
(456,15,c),
(468,84,l),
(422,95,l),
(485,448,l),
(318,448,l),
(274,173,l),
(258,40,ls),
(256,26,o),
(283,-9,o),
(292,-9,cs)
);
}
);
width = 504;
},
{
anchors = (
{
name = bottom;
pos = (192,0);
},
{
name = ogonek;
pos = (337,3);
},
{
name = top;
pos = (251,440);
}
);
background = {
shapes = (
{
closed = 1;
nodes = (
(205,-9,o),
(299,157,o),
(341,230,c),
(351,230,l),
(359,290,l),
(323,228,o),
(198,18,o),
(185,18,cs),
(123,18,o),
(116,78,o),
(116,143,cs),
(116,338,o),
(209,393,o),
(239,411,c),
(275,433,o),
(317,424,o),
(380,405,c),
(392,431,l),
(356,439,o),
(301,449,o),
(276,449,cs),
(252,449,o),
(188,408,o),
(150,367,c),
(115,317,o),
(86,238,o),
(86,136,cs),
(86,46,o),
(107,-9,o),
(195,-9,cs)
);
}
);
};
layerId = "16B79A64-180D-495F-8650-CA27198DF3EF";
shapes = (
{
closed = 1;
nodes = (
(157,-9,o),
(251,157,o),
(293,230,c),
(303,230,l),
(311,290,l),
(275,228,o),
(150,18,o),
(137,18,cs),
(75,18,o),
(68,78,o),
(68,143,cs),
(68,338,o),
(158,392,o),
(190,410,cs),
(232,434,o),
(267,423,o),
(332,405,c),
(360,428,l),
(326,435,o),
(257,449,o),
(228,449,cs),
(204,449,o),
(140,408,o),
(102,367,c),
(67,317,o),
(38,238,o),
(38,136,cs),
(38,47,o),
(60,-9,o),
(147,-9,cs)
);
},
{
closed = 1;
nodes = (
(284,-9,o),
(304,-4,o),
(337,3,c),
(339,18,l),
(289,22,l),
(360,428,l),
(331,428,l),
(302,254,l),
(262,8,l),
(261,5,o),
(275,-9,o),
(279,-9,cs)
);
}
);
width = 405;
}
);
metricLeft = o;
unicode = 97;
},
{
color = 4;
glyphname = ae;
kernLeft = o;
kernRight = e;
layers = (
{
anchors = (
{
name = top;
pos = (339,448);
}
);
layerId = "D9712079-C16A-42CB-8BA4-BD9ECFFACF10";
shapes = (
{
closed = 1;
nodes = (
(159,-9,o),
(237,124,o),
(276,195,c),
(290,268,l),
(236,186,o),
(157,65,o),
(146,65,cs),
(130,65,o),
(114,91,o),
(114,147,cs),
(114,282,o),
(158,394,o),
(195,404,cs),
(210,408,o),
(296,386,o),
(338,368,c),
(426,430,l),
(394,437,o),
(253,457,o),
(236,457,cs),
(214,457,o),
(96,386,o),
(72,358,c),
(47,315,o),
(22,226,o),
(22,141,cs),
(22,50,o),
(59,-9,o),
(152,-9,cs)
);
},
{
closed = 1;
nodes = (
(408,-9,o),
(511,30,o),
(553,54,c),
(541,94,l),
(505,82,o),
(448,64,o),
(426,64,cs),
(372,64,o),
(359,103,o),
(359,172,cs),
(359,283,o),
(405,392,o),
(435,404,cs),
(441,406,o),
(451,407,o),
(458,407,cs),
(484,407,o),
(502,398,o),
(502,365,cs),
(502,296,o),
(406,241,o),
(348,237,c),
(348,199,l),
(441,205,o),
(594,264,o),
(594,367,cs),
(594,435,o),
(544,457,o),
(479,457,cs),
(457,457,o),
(339,386,o),
(315,358,c),
(290,315,o),
(265,225,o),
(265,141,cs),
(265,60,o),
(309,-9,o),
(386,-9,cs)
);
}
);
width = 593;
},
{
anchors = (
{
name = top;
pos = (343,440);
}
);
background = {
shapes = (
{
closed = 1;
nodes = (
(421,-9,o),
(477,10,o),
(505,25,c),
(501,40,l),
(477,32,o),
(438,17,o),
(411,17,cs),
(341,17,o),
(302,60,o),
(302,148,cs),
(302,336,o),
(387,389,o),
(420,408,cs),
(438,419,o),
(454,424,o),
(472,424,cs),
(511,424,o),
(529,407,o),
(529,374,cs),
(529,304,o),
(445,218,o),
(299,216,c),
(297,197,l),
(447,200,o),
(558,284,o),
(558,378,cs),
(558,436,o),
(511,449,o),
(461,449,cs),
(437,449,o),
(373,408,o),
(335,367,c),
(299,319,o),
(272,238,o),
(272,142,cs),
(272,48,o),
(316,-9,o),
(413,-9,cs)
);
}
);
};
layerId = "16B79A64-180D-495F-8650-CA27198DF3EF";
shapes = (
{
closed = 1;
nodes = (
(158,-9,o),
(273,188,o),
(303,243,c),
(311,291,l),
(275,229,o),
(150,18,o),
(137,18,cs),
(75,18,o),
(68,78,o),
(68,143,cs),
(68,338,o),
(158,392,o),
(190,410,cs),
(232,434,o),
(273,428,o),
(374,396,c),
(405,418,l),
(367,427,o),
(256,449,o),
(228,449,cs),
(204,449,o),
(140,408,o),
(102,367,c),
(67,317,o),
(38,238,o),
(38,136,cs),
(38,47,o),
(60,-9,o),
(147,-9,cs)
);
},
{
closed = 1;
nodes = (
(421,-9,o),
(477,10,o),
(505,25,c),
(501,40,l),
(477,32,o),
(438,17,o),
(411,17,cs),
(339,17,o),
(302,58,o),
(302,148,cs),
(302,336,o),
(387,389,o),
(420,408,cs),
(437,418,o),
(456,424,o),
(472,424,cs),
(511,424,o),
(529,407,o),
(529,374,cs),
(529,304,o),
(445,218,o),
(299,216,c),
(297,197,l),
(447,200,o),
(558,284,o),
(558,378,cs),
(558,436,o),
(511,449,o),
(461,449,cs),
(435,449,o),
(373,408,o),
(335,367,c),
(299,319,o),
(272,238,o),
(272,142,cs),
(272,48,o),
(316,-9,o),
(413,-9,cs)
);
}
);
width = 564;
},
{
anchors = (
{
name = top;
pos = (421,462);
}
);
layerId = "E259E77F-022A-45EF-A0F1-1168268390B3";
shapes = (
{
closed = 1;
nodes = (
(174,-8,o),
(248,110,o),
(298,197,c),
(304,236,l),
(272,203,o),
(225,156,o),
(219,156,cs),
(195,156,o),
(187,165,o),
(187,198,cs),
(187,304,o),
(226,392,o),
(243,396,cs),
(256,399,o),
(349,374,o),
(398,352,c),
(485,448,l),
(453,455,o),
(310,477,o),
(293,477,cs),
(263,477,o),
(118,414,o),
(72,380,c),
(43,332,o),
(12,217,o),
(12,141,cs),
(12,51,o),
(50,-8,o),
(165,-8,cs)
);
},
{
closed = 1;
nodes = (
(479,-9,o),
(584,23,o),
(646,47,c),
(629,121,l),
(571,104,o),
(532,91,o),
(502,91,cs),
(464,91,o),
(449,110,o),
(449,168,cs),
(449,266,o),
(472,381,o),
(502,394,cs),
(505,395,o),
(511,396,o),
(515,396,cs),
(538,396,o),
(544,376,o),
(544,355,cs),
(544,288,o),
(499,251,o),
(441,247,c),
(441,191,l),
(574,191,o),
(702,260,o),
(702,381,cs),
(702,456,o),
(630,477,o),
(558,477,cs),
(527,477,o),
(378,414,o),
(330,380,c),
(304,334,o),
(271,216,o),
(271,146,cs),
(271,40,o),
(345,-9,o),
(457,-9,cs)
);
}
);
width = 688;
}
);
metricLeft = a;
metricRight = e;
unicode = 230;
},
{
color = 4;
glyphname = b;
kernLeft = l;
kernRight = o;
layers = (
{
background = {
shapes = (
{
closed = 1;
nodes = (
(246,-9,o),
(364,62,o),
(388,90,c),
(410,136,o),
(438,231,o),
(438,307,cs),
(438,398,o),
(401,457,o),
(308,457,cs),
(301,457,o),
(242,351,o),
(201,278,c),
(187,278,l),
(170,180,l),
(217,251,o),
(304,383,o),
(314,383,cs),
(330,383,o),
(346,357,o),
(346,301,cs),
(346,166,o),
(285,54,o),
(265,42,c),
(250,38,o),
(192,53,o),
(150,71,c),
(63,13,l),
(95,6,o),
(207,-9,o),
(224,-9,cs)
);
},
{
closed = 1;
nodes = (
(150,13,l),
(191,245,l),
(254,615,l),
(255,621,o),
(232,646,o),
(227,646,cs),
(222,646,o),
(152,625,o),
(122,615,c),
(117,585,l),
(162,574,l),
(63,13,l)
);
}
);
};
layerId = "D9712079-C16A-42CB-8BA4-BD9ECFFACF10";
shapes = (
{
closed = 1;
nodes = (
(220,-9,o),
(338,62,o),
(362,90,c),
(387,133,o),
(412,222,o),
(412,307,cs),
(412,398,o),
(375,457,o),
(282,457,cs),
(275,457,o),
(218,355,o),
(177,282,c),
(163,282,l),
(144,180,l),
(191,251,o),
(278,383,o),
(288,383,cs),
(304,383,o),
(320,357,o),
(320,301,cs),
(320,166,o),
(276,59,o),
(239,49,cs),
(224,45,o),
(166,53,o),
(124,71,c),
(37,13,l),
(69,6,o),
(181,-9,o),
(198,-9,cs)
);
},
{
closed = 1;
nodes = (
(124,13,l),
(165,245,l),
(228,615,l),
(229,621,o),
(206,646,o),
(201,646,cs),
(196,646,o),
(126,625,o),
(96,615,c),
(91,585,l),
(136,574,l),
(37,13,l)
);
}
);
width = 440;
},
{
background = {
shapes = (
{
closed = 1;
nodes = (
(238,-9,o),
(302,33,o),
(340,74,c),
(375,124,o),
(404,202,o),
(404,304,cs),
(404,394,o),
(383,449,o),
(294,449,cs),
(284,449,o),
(194,289,o),
(149,211,c),
(139,211,l),
(130,150,l),
(167,212,o),
(291,422,o),
(304,422,cs),
(367,422,o),
(374,362,o),
(374,297,cs),
(374,102,o),
(281,48,o),
(251,30,c),
(215,8,o),
(172,17,o),
(109,36,c),
(81,13,l),
(115,6,o),
(188,-9,o),
(214,-9,cs)
);
},
{
closed = 1;
nodes = (
(110,13,l),
(141,193,l),
(213,620,l),
(214,623,o),
(201,637,o),
(197,637,cs),
(192,637,o),
(164,632,o),
(131,625,c),
(129,610,l),
(184,606,l),
(81,13,l)
);
}
);
};
layerId = "16B79A64-180D-495F-8650-CA27198DF3EF";
shapes = (
{
closed = 1;
nodes = (
(218,-9,o),
(283,33,o),
(321,74,c),
(355,123,o),
(384,202,o),
(384,304,cs),
(384,394,o),
(363,449,o),
(274,449,cs),
(264,449,o),
(174,289,o),
(129,211,c),
(119,211,l),
(110,150,l),
(147,212,o),
(270,421,o),
(284,421,cs),
(345,421,o),
(354,360,o),
(354,297,cs),
(354,102,o),
(263,48,o),
(232,30,cs),
(195,8,o),
(152,17,o),
(89,36,c),
(61,13,l),
(95,6,o),
(168,-9,o),
(194,-9,cs)
);
},
{
closed = 1;
nodes = (
(90,13,l),
(121,193,l),
(193,620,l),
(194,623,o),
(181,637,o),
(177,637,cs),
(172,637,o),
(144,632,o),
(111,625,c),
(109,610,l),
(164,606,l),
(61,13,l)
);
}
);
width = 422;
},
{
background = {
shapes = (
{
closed = 1;
nodes = (
(254,-8,o),
(400,55,o),
(446,89,c),
(470,135,o),
(505,252,o),
(505,328,cs),
(505,418,o),
(467,477,o),
(352,477,cs),
(348,477,o),
(300,393,o),
(256,317,c),
(230,317,l),
(213,232,l),
(247,266,o),
(292,313,o),
(299,313,cs),
(323,313,o),
(330,304,o),
(330,271,cs),
(330,165,o),
(289,83,o),
(274,73,c),
(259,71,o),
(168,95,o),
(119,117,c),
(32,21,l),
(64,14,o),
(207,-8,o),
(224,-8,cs)
);
},
{
closed = 1;
nodes = (
(199,20,l),
(245,295,l),
(292,615,ls),
(294,626,o),
(269,665,o),
(260,665,cs),
(231,665,o),
(128,648,o),
(94,641,c),
(82,572,l),
(128,561,l),
(32,20,l)
);
}
);
};
layerId = "E259E77F-022A-45EF-A0F1-1168268390B3";
shapes = (
{
closed = 1;
nodes = (
(236,-8,o),
(381,55,o),
(427,89,c),
(456,137,o),
(487,252,o),
(487,328,cs),
(487,418,o),
(449,477,o),
(334,477,cs),
(330,477,o),
(282,393,o),
(238,317,c),
(212,317,l),
(195,232,l),
(229,266,o),
(274,313,o),
(281,313,cs),
(305,313,o),
(312,304,o),
(312,271,cs),
(312,165,o),
(273,77,o),
(256,73,cs),
(242,70,o),
(150,95,o),
(101,117,c),
(14,21,l),
(46,14,o),
(189,-8,o),
(206,-8,cs)
);
},
{
closed = 1;
nodes = (
(181,20,l),
(227,295,l),
(274,615,ls),
(276,626,o),
(251,665,o),
(242,665,cs),
(213,665,o),
(110,648,o),
(76,641,c),
(64,572,l),
(110,561,l),
(14,20,l)
);
}
);
width = 498;
}
);
metricLeft = l;
metricRight = o;
unicode = 98;
},
{
color = 4;
glyphname = c;
kernLeft = o;
kernRight = c;
layers = (
{
anchors = (
{
name = bottom;
pos = (204,0);
},
{
name = top;
pos = (238,448);
}
);
background = {
shapes = (
{
closed = 1;
nodes = (
(212,-9,o),
(270,6,o),
(318,21,c),
(326,64,l),
(230,64,ls),
(198,64,o),
(164,82,o),
(164,172,cs),
(164,278,o),
(215,382,o),
(241,406,c),
(261,406,o),
(318,389,o),
(361,366,c),
(391,442,l),
(355,446,o),
(305,457,o),
(283,457,cs),
(262,457,o),
(143,386,o),
(119,358,c),
(97,312,o),
(69,218,o),
(69,141,cs),
(69,60,o),
(110,-9,o),
(198,-9,cs)
);
},
{
closed = 1;
nodes = (
(361,297,l),
(391,442,l),
(305,442,l),
(324,297,l)
);
}
);
};
guides = (
{
pos = (420,406);
}
);
layerId = "D9712079-C16A-42CB-8BA4-BD9ECFFACF10";
shapes = (
{
closed = 1;
nodes = (
(181,-9,o),
(239,6,o),
(287,21,c),
(295,64,l),
(199,64,ls),
(167,64,o),
(133,82,o),
(133,172,cs),
(133,288,o),
(177,389,o),
(208,399,cs),
(211,400,o),
(215,401,o),
(220,401,cs),
(248,401,o),
(297,386,o),
(330,366,c),
(360,442,l),
(324,446,o),
(274,457,o),
(252,457,cs),
(231,457,o),
(112,386,o),
(88,358,c),
(63,315,o),
(38,225,o),
(38,141,cs),
(38,60,o),
(79,-9,o),
(167,-9,cs)
);
},
{
closed = 1;
nodes = (
(330,297,l),
(360,442,l),
(274,442,l),
(293,297,l)
);
}
);
width = 348;
},
{
anchors = (
{
name = bottom;
pos = (205,0);
},
{
name = top;
pos = (241,440);
}
);
background = {
shapes = (
{
closed = 1;
nodes = (
(231,-9,o),
(289,-2,o),
(313,4,c),
(316,19,l),
(221,17,ls),
(150,16,o),
(112,60,o),
(112,148,cs),
(112,338,o),
(204,401,o),
(257,421,c),
(274,426,o),
(318,420,o),
(358,408,c),
(372,437,l),
(346,445,o),
(297,450,o),
(271,450,cs),
(247,450,o),
(183,408,o),
(145,367,c),
(109,316,o),
(82,236,o),
(82,142,cs),
(82,48,o),
(126,-9,o),
(223,-9,cs)
);
},
{
closed = 1;
nodes = (
(343,314,l),
(372,437,l),
(339,437,l),
(326,314,l)
);
}
);
};
layerId = "16B79A64-180D-495F-8650-CA27198DF3EF";
shapes = (
{
closed = 1;
nodes = (
(200,-9,o),
(258,-2,o),
(282,4,c),
(285,19,l),
(190,17,ls),
(119,16,o),
(81,60,o),
(81,148,cs),
(81,336,o),
(167,388,o),
(199,408,cs),
(217,419,o),
(233,423,o),
(251,423,cs),
(278,423,o),
(304,415,o),
(327,408,c),
(341,437,l),
(315,442,o),
(266,449,o),
(240,449,cs),
(216,449,o),
(152,408,o),
(114,367,c),
(78,319,o),
(51,236,o),
(51,142,cs),
(51,48,o),
(95,-9,o),
(192,-9,cs)
);
},
{
closed = 1;
nodes = (
(312,314,l),
(341,437,l),
(308,437,l),
(295,314,l)
);
}
);
width = 350;
},
{
anchors = (
{
name = bottom;
pos = (211,0);
},
{
name = top;
pos = (250,462);
}
);
background = {
shapes = (
{
closed = 1;
nodes = (
(219,-9,o),
(303,7,o),
(361,21,c),
(374,91,l),
(273,91,ls),
(221,91,o),
(212,115,o),
(212,165,cs),
(212,265,o),
(240,374,o),
(265,394,c),
(283,394,o),
(336,367,o),
(388,331,c),
(445,468,l),
(409,472,o),
(342,477,o),
(320,477,cs),
(290,477,o),
(141,414,o),
(93,380,c),
(67,334,o),
(34,216,o),
(34,146,cs),
(34,48,o),
(102,-9,o),
(205,-9,cs)
);
},
{
closed = 1;
nodes = (
(405,286,l),
(445,468,l),
(316,463,l),
(333,286,l)
);
}
);
};
layerId = "E259E77F-022A-45EF-A0F1-1168268390B3";
shapes = (
{
closed = 1;
nodes = (
(198,-9,o),
(282,7,o),
(340,21,c),
(353,91,l),
(252,91,ls),
(200,91,o),
(191,115,o),
(191,165,cs),
(191,265,o),
(213,384,o),
(244,394,cs),
(247,395,o),
(250,396,o),
(253,396,cs),
(279,396,o),
(321,363,o),
(367,331,c),
(424,468,l),
(388,472,o),
(321,477,o),
(299,477,cs),
(269,477,o),
(120,414,o),
(72,380,c),
(46,334,o),
(13,216,o),
(13,146,cs),
(13,48,o),
(81,-9,o),
(184,-9,cs)
);
},
{
closed = 1;
nodes = (
(384,286,l),
(424,468,l),
(295,463,l),
(312,286,l)
);
}
);
width = 409;
}
);
unicode = 99;
},
{
color = 4;
glyphname = d;
kernLeft = o;
kernRight = l;
layers = (
{
anchors = (
{
name = bottom;
pos = (171,0);
},
{
name = center;
pos = (337,516);
},
{
name = top;
pos = (383,603);
},
{
name = topright;
pos = (453,448);
}
);
background = {
shapes = (
{
closed = 1;
nodes = (
(159,-9,o),
(219,100,o),
(259,170,c),
(273,170,l),
(290,268,l),
(241,195,o),
(156,65,o),
(146,65,cs),
(130,65,o),
(114,91,o),
(114,147,cs),
(114,282,o),
(175,394,o),
(195,406,c),
(210,410,o),
(268,395,o),
(310,377,c),
(346,444,l),
(302,450,o),
(247,457,o),
(236,457,cs),
(214,457,o),
(96,386,o),
(72,358,c),
(50,312,o),
(22,217,o),
(22,141,cs),
(22,50,o),
(59,-9,o),
(152,-9,cs)
);
},
{
closed = 1;
nodes = (
(273,-9,o),
(371,22,o),
(371,22,c),
(376,52,l),
(331,63,l),
(428,615,l),
(429,621,o),
(406,646,o),
(401,646,cs),
(396,646,o),
(324,625,o),
(294,615,c),
(289,585,l),
(334,574,l),
(272,211,l),
(239,22,l),
(239,15,o),
(260,-9,o),
(266,-9,cs)
);
}
);
};
layerId = "D9712079-C16A-42CB-8BA4-BD9ECFFACF10";
shapes = (
{
closed = 1;
nodes = (
(159,-9,o),
(217,96,o),
(257,166,c),
(271,166,l),
(290,268,l),
(236,186,o),
(157,65,o),
(146,65,cs),
(130,65,o),
(114,91,o),
(114,147,cs),
(114,282,o),
(158,389,o),
(195,399,cs),
(210,403,o),
(268,395,o),
(310,377,c),
(393,435,l),
(361,442,o),
(253,457,o),
(236,457,cs),
(214,457,o),
(96,386,o),
(72,358,c),
(47,315,o),
(22,226,o),
(22,141,cs),
(22,50,o),
(59,-9,o),
(152,-9,cs)
);
},
{
closed = 1;
nodes = (
(271,-9,o),
(329,9,o),
(371,22,c),
(376,52,l),
(331,63,l),
(428,615,l),
(429,621,o),
(406,646,o),
(401,646,cs),
(396,646,o),
(324,625,o),
(294,615,c),
(289,585,l),
(334,574,l),
(272,211,l),
(239,22,l),
(239,15,o),
(260,-9,o),
(266,-9,cs)
);
}
);
width = 434;
},
{
anchors = (
{
name = bottom;
pos = (208,0);
},
{
name = center;
pos = (375,520);
},
{
name = top;
pos = (433,613);
},
{
name = topright;
pos = (498,462);
}
);
background = {
shapes = (
{
closed = 1;
nodes = (
(169,-8,o),
(220,81,o),
(261,152,c),
(287,152,l),
(304,236,l),
(272,203,o),
(225,156,o),
(219,156,cs),
(195,156,o),
(187,165,o),
(187,198,cs),
(187,304,o),
(228,386,o),
(243,396,c),
(258,398,o),
(349,374,o),
(398,352,c),
(405,462,l),
(356,469,o),
(303,477,o),
(293,477,cs),
(263,477,o),
(117,414,o),
(71,380,c),
(47,334,o),
(12,217,o),
(12,141,cs),
(12,51,o),
(50,-8,o),
(165,-8,cs)
);
},
{
closed = 1;
nodes = (
(321,-9,o),
(417,8,o),
(451,15,c),
(463,84,l),
(422,95,l),
(514,615,ls),
(516,626,o),
(488,665,o),
(479,665,cs),
(450,665,o),
(343,648,o),
(309,641,c),
(297,572,l),
(338,561,l),
(275,176,l),
(258,40,ls),
(256,26,o),
(283,-9,o),
(292,-9,cs)
);
}
);
};
layerId = "E259E77F-022A-45EF-A0F1-1168268390B3";
shapes = (
{
closed = 1;
nodes = (
(169,-8,o),
(217,76,o),
(261,152,c),
(287,152,l),
(304,236,l),
(272,203,o),
(225,156,o),
(219,156,cs),
(195,156,o),
(187,165,o),
(187,198,cs),
(187,304,o),
(226,392,o),
(243,396,cs),
(256,399,o),
(349,374,o),
(398,352,c),
(482,448,l),
(450,455,o),
(310,477,o),
(293,477,c),
(263,477,o),
(118,414,o),
(72,380,c),
(43,332,o),
(12,217,o),
(12,141,cs),
(12,51,o),
(50,-8,o),
(165,-8,cs)
);
},
{
closed = 1;
nodes = (
(321,-9,o),
(417,8,o),
(451,15,c),
(463,84,l),
(422,95,l),
(514,615,ls),
(516,626,o),
(488,665,o),
(479,665,cs),
(450,665,o),
(343,648,o),
(309,641,c),
(297,572,l),
(338,561,l),
(275,176,l),
(258,40,ls),
(256,26,o),
(283,-9,o),
(292,-9,cs)
);
}
);
width = 493;
},
{
anchors = (
{
name = bottom;
pos = (169,0);
},
{
name = center;
pos = (333,525);
},
{
name = top;
pos = (374,591);
},
{
name = topright;
pos = (441,440);
}
);
background = {
shapes = (
{
closed = 1;
nodes = (
(157,-9,o),
(251,157,o),
(293,230,c),
(303,230,l),
(311,290,l),
(275,228,o),
(150,18,o),
(137,18,cs),
(75,18,o),
(68,78,o),
(68,143,cs),
(68,338,o),
(161,393,o),
(191,411,c),
(227,433,o),
(269,424,o),
(332,405,c),
(344,431,l),
(308,439,o),
(253,449,o),
(228,449,cs),
(204,449,o),
(140,408,o),
(102,367,c),
(67,317,o),
(38,238,o),
(38,136,cs),
(38,46,o),
(59,-9,o),
(147,-9,cs)
);
},
{
closed = 1;
nodes = (
(282,-9,o),
(309,-4,o),
(342,3,c),
(344,18,l),
(289,22,l),
(393,620,l),
(394,623,o),
(380,637,o),
(376,637,cs),
(371,637,o),
(342,632,o),
(309,625,c),
(307,610,l),
(362,606,l),
(301,253,l),
(260,8,l),
(259,5,o),
(273,-9,o),
(277,-9,cs)
);
}
);
};
layerId = "16B79A64-180D-495F-8650-CA27198DF3EF";
shapes = (
{
closed = 1;
nodes = (
(157,-9,o),
(251,157,o),
(293,230,c),
(303,230,l),
(311,290,l),
(275,228,o),
(150,18,o),
(137,18,cs),
(75,18,o),
(68,78,o),
(68,143,cs),
(68,338,o),
(158,392,o),
(190,410,cs),
(232,434,o),
(267,423,o),
(332,405,c),
(357,428,l),
(323,435,o),
(257,449,o),
(228,449,cs),
(204,449,o),
(140,408,o),
(102,367,c),
(67,317,o),
(38,238,o),
(38,136,cs),
(38,47,o),
(60,-9,o),
(147,-9,cs)
);
},
{
closed = 1;
nodes = (
(282,-9,o),
(309,-4,o),
(342,3,c),
(344,18,l),
(289,22,l),
(393,620,l),
(394,623,o),
(380,637,o),
(376,637,cs),
(371,637,o),
(342,632,o),
(309,625,c),
(307,610,l),
(362,606,l),
(301,253,l),
(260,8,l),
(259,5,o),
(273,-9,o),
(277,-9,cs)
);
}
);
width = 420;
}
);
metricLeft = o;
metricRight = l;
unicode = 100;
},
{
color = 4;
glyphname = eth;
kernLeft = o;
kernRight = O;
layers = (
{
layerId = "D9712079-C16A-42CB-8BA4-BD9ECFFACF10";
shapes = (
{
closed = 1;
nodes = (
(318,-9,o),
(387,212,o),
(387,395,cs),
(387,532,o),
(319,611,o),
(175,611,c),
(184,560,l),
(269,560,o),
(295,507,o),
(295,415,cs),
(295,293,o),
(285,40,o),
(121,40,cs),
(112,40,o),
(106,60,o),
(106,108,cs),
(106,192,o),
(132,322,o),
(209,322,cs),
(227,322,o),
(275,298,o),
(296,282,c),
(302,329,l),
(276,347,o),
(219,380,o),
(210,380,cs),
(94,380,o),
(22,282,o),
(22,153,cs),
(22,132,o),
(24,111,o),
(28,89,c),
(41,58,o),
(114,-9,o),
(136,-9,cs)
);
},
{
closed = 1;
nodes = (
(433,558,l),
(440,572,l),
(413,596,l),
(172,485,l),
(165,471,l),
(196,448,l)
);
}
);
width = 392;
},
{
layerId = "16B79A64-180D-495F-8650-CA27198DF3EF";
shapes = (
{
closed = 1;
nodes = (
(267,-9,o),
(334,230,o),
(334,398,cs),
(334,532,o),
(289,606,o),
(157,597,c),
(161,578,l),
(282,580,o),
(307,507,o),
(307,399,cs),
(307,301,o),
(267,15,o),
(122,15,cs),
(97,15,o),
(63,48,o),
(63,125,cs),
(63,230,o),
(100,335,o),
(200,335,cs),
(218,335,o),
(280,313,o),
(305,300,c),
(310,317,l),
(278,338,o),
(220,359,o),
(209,359,cs),
(101,359,o),
(37,269,o),
(37,147,cs),
(37,115,o),
(41,82,o),
(50,54,c),
(65,16,o),
(99,-9,o),
(113,-9,cs)
);
},
{
closed = 1;
nodes = (
(412,555,l),
(417,562,l),
(408,575,l),
(170,466,l),
(165,458,l),
(178,447,l)
);
}
);
width = 357;
},
{
layerId = "E259E77F-022A-45EF-A0F1-1168268390B3";
shapes = (
{
closed = 1;
nodes = (
(353,-9,o),
(483,129,o),
(483,371,cs),
(483,557,o),
(368,655,o),
(175,634,c),
(189,560,l),
(273,558,o),
(306,505,o),
(306,415,cs),
(306,236,o),
(288,72,o),
(216,72,cs),
(202,72,o),
(190,120,o),
(190,173,cs),
(190,235,o),
(206,302,o),
(254,302,cs),
(272,302,o),
(320,278,o),
(341,262,c),
(347,341,l),
(321,359,o),
(216,392,o),
(207,392,cs),
(94,392,o),
(15,288,o),
(15,171,cs),
(15,145,o),
(19,119,o),
(27,93,c),
(43,64,o),
(179,-9,o),
(199,-9,cs)
);
},
{
closed = 1;
nodes = (
(512,554,l),
(513,582,l),
(477,615,l),
(203,481,l),
(203,452,l),
(242,421,l)
);
}
);
width = 482;
}
);
metricLeft = o;
unicode = 240;
},
{
color = 4;
glyphname = e;
kernLeft = o;
kernRight = e;
layers = (
{
anchors = (
{
name = bottom;
pos = (176,0);
},
{
name = ogonek;
pos = (310,54);
},
{
name = top;
pos = (226,448);
}
);
background = {
shapes = (
{
closed = 1;
nodes = (
(206,-9,o),
(309,30,o),
(351,54,c),
(339,94,l),
(303,82,o),
(246,64,o),
(224,64,cs),
(172,64,o),
(157,103,o),
(157,170,cs),
(157,265,o),
(201,372,o),
(235,406,c),
(240,407,o),
(249,408,o),
(256,408,cs),
(282,408,o),
(300,398,o),
(300,365,cs),
(300,296,o),
(204,241,o),
(146,237,c),
(146,199,l),
(239,205,o),
(392,264,o),
(392,367,cs),
(392,435,o),
(342,457,o),
(277,457,cs),
(255,457,o),
(137,386,o),
(113,358,c),
(91,312,o),
(63,217,o),
(63,141,cs),
(63,60,o),
(107,-9,o),
(184,-9,cs)
);
}
);
};
layerId = "D9712079-C16A-42CB-8BA4-BD9ECFFACF10";
shapes = (
{
closed = 1;
nodes = (
(165,-9,o),
(268,30,o),
(310,54,c),
(298,94,l),
(262,82,o),
(205,64,o),
(183,64,cs),
(129,64,o),
(116,103,o),
(116,172,cs),
(116,283,o),
(161,389,o),
(192,399,cs),
(198,401,o),
(208,402,o),
(215,402,cs),
(239,402,o),
(259,392,o),
(259,361,cs),
(259,296,o),
(163,241,o),
(105,237,c),
(105,199,l),
(198,205,o),
(351,264,o),
(351,367,cs),
(351,435,o),
(301,457,o),
(236,457,cs),
(214,457,o),
(96,386,o),
(72,358,c),
(47,315,o),
(22,225,o),
(22,141,cs),
(22,60,o),
(66,-9,o),
(143,-9,cs)
);
}
);
width = 350;
},
{
anchors = (
{
name = bottom;
pos = (178,0);
},
{
name = ogonek;
pos = (272,25);
},
{
name = top;
pos = (222,440);
}
);
background = {
shapes = (
{
closed = 1;
nodes = (
(231,-9,o),
(287,10,o),
(315,25,c),
(311,40,l),
(287,32,o),
(248,17,o),
(221,17,cs),
(151,17,o),
(112,60,o),
(112,148,cs),
(112,336,o),
(197,389,o),
(230,408,cs),
(248,419,o),
(264,424,o),
(282,424,cs),
(321,424,o),
(339,407,o),
(339,374,cs),
(339,304,o),
(255,218,o),
(109,216,c),
(107,197,l),
(257,200,o),
(368,284,o),
(368,378,cs),
(368,436,o),
(321,449,o),
(271,449,cs),
(247,449,o),
(183,408,o),
(145,367,c),
(109,319,o),
(82,238,o),
(82,142,cs),
(82,48,o),
(126,-9,o),
(223,-9,cs)
);
}
);
};
layerId = "16B79A64-180D-495F-8650-CA27198DF3EF";
shapes = (
{
closed = 1;
nodes = (
(188,-9,o),
(244,10,o),
(272,25,c),
(268,40,l),
(244,32,o),
(205,17,o),
(178,17,cs),
(108,17,o),
(69,60,o),
(69,148,cs),
(69,336,o),
(154,387,o),
(187,407,cs),
(205,418,o),
(221,424,o),
(239,424,cs),
(278,424,o),
(296,407,o),
(296,374,cs),
(296,304,o),
(212,218,o),
(66,216,c),
(64,197,l),
(214,200,o),
(325,284,o),
(325,378,cs),
(325,436,o),
(278,449,o),
(228,449,cs),
(204,449,o),
(140,409,o),
(102,367,c),
(66,319,o),
(39,238,o),
(39,142,cs),
(39,48,o),
(83,-9,o),
(180,-9,cs)
);
}
);
width = 331;
},
{
anchors = (
{
name = bottom;
pos = (221,0);
},
{
name = ogonek;
pos = (387,47);
},
{
name = top;
pos = (259,462);
}
);
background = {
shapes = (
{
closed = 1;
nodes = (
(242,-9,o),
(347,23,o),
(409,47,c),
(392,121,l),
(334,104,o),
(295,91,o),
(265,91,cs),
(227,91,o),
(212,110,o),
(212,168,cs),
(212,266,o),
(240,374,o),
(265,394,c),
(268,395,o),
(274,396,o),
(278,396,cs),
(301,396,o),
(307,376,o),
(307,355,cs),
(307,288,o),
(262,251,o),
(204,247,c),
(204,191,l),
(337,191,o),
(465,260,o),
(465,381,cs),
(465,456,o),
(393,477,o),
(321,477,cs),
(290,477,o),
(141,414,o),
(93,380,c),
(67,334,o),
(34,216,o),
(34,146,cs),
(34,40,o),
(108,-9,o),
(220,-9,cs)
);
}
);
};
layerId = "E259E77F-022A-45EF-A0F1-1168268390B3";
shapes = (
{
closed = 1;
nodes = (
(220,-9,o),
(325,23,o),
(387,47,c),
(370,121,l),
(312,104,o),
(273,91,o),
(243,91,cs),
(205,91,o),
(190,110,o),
(190,168,cs),
(190,266,o),
(212,384,o),
(243,394,cs),
(246,395,o),
(252,396,o),
(256,396,cs),
(279,396,o),
(285,376,o),
(285,355,cs),
(285,288,o),
(240,251,o),
(182,247,c),
(182,191,l),
(315,191,o),
(443,260,o),
(443,381,cs),
(443,456,o),
(371,477,o),
(299,477,cs),
(268,477,o),
(119,414,o),
(71,380,c),
(45,334,o),
(12,216,o),
(12,146,cs),
(12,40,o),
(86,-9,o),
(198,-9,cs)
);
}
);
width = 429;
}
);
metricLeft = o;
unicode = 101;
},
{
color = 4;
glyphname = schwa;
kernLeft = o;
kernRight = o;
layers = (
{
layerId = "D9712079-C16A-42CB-8BA4-BD9ECFFACF10";
shapes = (
{
closed = 1;
nodes = (
(155,-9,o),
(273,62,o),
(297,90,c),
(322,133,o),
(347,223,o),
(347,307,cs),
(347,388,o),
(303,457,o),
(226,457,cs),
(204,457,o),
(101,418,o),
(59,394,c),
(71,354,l),
(110,367,o),
(164,384,o),
(186,384,cs),
(240,384,o),
(253,345,o),
(253,276,cs),
(253,165,o),
(207,56,o),
(177,44,cs),
(171,42,o),
(161,41,o),
(154,41,cs),
(128,41,o),
(110,50,o),
(110,83,cs),
(110,152,o),
(206,207,o),
(264,211,c),
(264,249,l),
(171,243,o),
(18,184,o),
(18,81,cs),
(18,13,o),
(68,-9,o),
(133,-9,cs)
);
}
);
width = 375;
},
{
layerId = "16B79A64-180D-495F-8650-CA27198DF3EF";
shapes = (
{
closed = 1;
nodes = (
(147,-9,o),
(211,32,o),
(249,73,c),
(285,121,o),
(312,202,o),
(312,298,cs),
(312,392,o),
(268,449,o),
(171,449,cs),
(163,449,o),
(107,430,o),
(79,415,c),
(83,400,l),
(107,408,o),
(146,423,o),
(173,423,cs),
(243,423,o),
(282,380,o),
(282,292,cs),
(282,104,o),
(196,52,o),
(164,32,cs),
(146,21,o),
(130,16,o),
(112,16,cs),
(73,16,o),
(55,33,o),
(55,66,cs),
(55,136,o),
(139,222,o),
(285,224,c),
(287,243,l),
(137,240,o),
(26,156,o),
(26,62,cs),
(26,4,o),
(73,-9,o),
(123,-9,cs)
);
}
);
width = 351;
},
{
layerId = "E259E77F-022A-45EF-A0F1-1168268390B3";
shapes = (
{
closed = 1;
nodes = (
(175,-9,o),
(324,54,o),
(372,88,c),
(398,134,o),
(431,252,o),
(431,322,cs),
(431,428,o),
(357,477,o),
(245,477,cs),
(223,477,o),
(123,445,o),
(56,421,c),
(73,347,l),
(122,361,o),
(170,377,o),
(200,377,cs),
(238,377,o),
(253,358,o),
(253,300,cs),
(253,202,o),
(230,87,o),
(200,74,cs),
(197,73,o),
(191,72,o),
(187,72,cs),
(164,72,o),
(158,92,o),
(158,113,cs),
(158,180,o),
(203,217,o),
(261,221,c),
(261,277,l),
(128,277,o),
(0,208,o),
(0,87,cs),
(0,12,o),
(72,-9,o),
(144,-9,cs)
);
}
);
width = 442;
}
);
metricLeft = o;
metricRight = o;
unicode = 601;
},
{
color = 4;
glyphname = f;
kernLeft = f;
kernRight = f;
layers = (
{
anchors = (
{
name = top;
pos = (265,640);
}
);
layerId = "D9712079-C16A-42CB-8BA4-BD9ECFFACF10";
shapes = (
{
closed = 1;
nodes = (
(73,-9,o),
(131,0,o),
(173,7,c),
(179,48,l),
(133,63,l),
(212,526,ls),
(217,554,o),
(231,582,o),
(240,582,cs),
(255,582,o),
(316,566,o),
(336,560,c),
(342,570,o),
(363,606,o),
(364,610,cs),
(366,617,o),
(355,634,o),
(347,640,c),
(322,643,o),
(273,646,o),
(264,646,cs),
(234,646,o),
(125,532,o),
(118,491,cs),
(39,24,l),
(37,17,o),
(60,-9,o),
(66,-9,cs)
);
},
{
closed = 1;
nodes = (
(291,448,l),
(113,453,l),
(64,434,l),
(58,395,l),
(281,394,l)
);
}
);
width = 276;
},
{
anchors = (
{
name = top;
pos = (247,611);
}
);
layerId = "16B79A64-180D-495F-8650-CA27198DF3EF";
shapes = (
{
closed = 1;
nodes = (
(82,-9,o),
(110,-4,o),
(143,3,c),
(145,18,l),
(90,22,l),
(180,547,ls),
(185,574,o),
(222,610,o),
(227,610,cs),
(242,610,o),
(308,599,o),
(328,593,c),
(333,599,o),
(339,609,o),
(339,612,cs),
(339,615,o),
(333,623,o),
(330,625,c),
(307,631,o),
(243,637,o),
(234,637,cs),
(212,637,o),
(155,570,o),
(150,542,cs),
(60,8,l),
(59,5,o),
(73,-9,o),
(77,-9,cs)
);
},
{
closed = 1;
nodes = (
(277,440,l),
(133,443,l),
(79,438,l),
(76,420,l),
(273,419,l)
);
}
);
width = 260;
},
{
anchors = (
{
name = top;
pos = (293,640);
}
);
layerId = "E259E77F-022A-45EF-A0F1-1168268390B3";
shapes = (
{
closed = 1;
nodes = (
(60,-9,o),
(165,0,o),
(242,7,c),
(255,80,l),
(194,95,l),
(269,520,ls),
(274,548,o),
(279,569,o),
(294,569,cs),
(303,569,o),
(366,536,o),
(398,520,c),
(415,544,o),
(444,590,o),
(444,604,cs),
(444,611,o),
(424,651,o),
(418,659,c),
(393,662,o),
(296,665,o),
(287,665,cs),
(244,665,o),
(107,548,o),
(100,507,cs),
(18,40,ls),
(16,26,o),
(44,-9,o),
(53,-9,cs)
);
},
{
closed = 1;
nodes = (
(365,462,l),
(94,467,l),
(24,448,l),
(12,376,l),
(349,375,l)
);
}
);
width = 318;
}
);
unicode = 102;
},
{
color = 4;
glyphname = g;
kernLeft = o;
kernRight = g;
layers = (
{
anchors = (
{
name = top;
pos = (247,448);
}
);
background = {
shapes = (
{
closed = 1;
nodes = (
(238,-181,o),
(353,-72,o),
(362,-21,cs),
(443,435,l),
(357,435,l),
(296,87,o),
(291,59,o),
(278,-6,cs),
(263,-77,o),
(247,-132,o),
(239,-132,cs),
(214,-132,o),
(134,-92,o),
(113,-80,c),
(114,-72,l),
(155,-27,o),
(241,71,o),
(300,146,c),
(317,146,l),
(333,238,l),
(177,69,l),
(33,-55,l),
(22,-124,l),
(68,-141,o),
(180,-181,o),
(208,-181,cs)
);
},
{
closed = 1;
nodes = (
(219,102,l),
(202,98,o),
(167,106,o),
(167,179,cs),
(167,284,o),
(215,382,o),
(240,406,c),
(257,408,o),
(316,395,o),
(360,375,c),
(443,435,l),
(409,442,o),
(299,457,o),
(282,457,cs),
(260,457,o),
(142,386,o),
(118,358,c),
(91,305,o),
(77,221,o),
(77,173,cs),
(77,95,o),
(117,53,o),
(165,47,c)
);
}
);
};
layerId = "D9712079-C16A-42CB-8BA4-BD9ECFFACF10";
shapes = (
{
closed = 1;
nodes = (
(188,-181,o),
(303,-72,o),
(312,-21,cs),
(393,435,l),
(307,435,l),
(246,87,o),
(241,59,o),
(228,-6,cs),
(214,-77,o),
(197,-132,o),
(189,-132,cs),
(164,-132,o),
(84,-92,o),
(63,-80,c),
(64,-72,l),
(105,-27,o),
(191,71,o),
(250,146,c),
(267,146,l),
(283,238,l),
(127,69,l),
(-17,-55,l),
(-28,-124,l),
(18,-141,o),
(130,-181,o),
(158,-181,cs)
);
},
{
closed = 1;
nodes = (
(169,102,l),
(152,98,o),
(117,106,o),
(117,179,cs),
(117,284,o),
(156,386,o),
(190,398,cs),
(207,404,o),
(266,395,o),
(310,375,c),
(393,435,l),
(359,442,o),
(249,457,o),
(232,457,cs),
(210,457,o),
(92,386,o),
(68,358,c),
(39,308,o),
(27,225,o),
(27,173,cs),
(27,95,o),
(67,53,o),
(115,47,c)
);
}
);
width = 424;
},
{
anchors = (
{
name = top;
pos = (242,440);
}
);
background = {
shapes = (
{
closed = 1;
nodes = (
(273,-175,o),
(324,-96,o),
(333,-45,cs),
(415,428,l),
(385,414,l),
(325,66,o),
(317,33,o),
(305,-32,cs),
(292,-103,o),
(261,-150,o),
(253,-150,cs),
(228,-150,o),
(92,-92,o),
(70,-78,c),
(71,-68,l),
(119,-18,o),
(280,154,o),
(350,238,c),
(360,238,l),
(367,279,l),
(171,67,l),
(48,-55,l),
(41,-92,l),
(87,-117,o),
(221,-175,o),
(243,-175,cs)
);
},
{
closed = 1;
nodes = (
(191,69,l),
(139,72,o),
(123,111,o),
(123,180,cs),
(123,256,o),
(155,366,o),
(244,411,cs),
(281,430,o),
(317,426,o),
(388,405,c),
(415,428,l),
(381,435,o),
(308,449,o),
(282,449,cs),
(258,449,o),
(193,408,o),
(155,367,c),
(119,319,o),
(92,240,o),
(92,173,cs),
(92,108,o),
(116,53,o),
(173,48,c)
);
}
);
};
layerId = "16B79A64-180D-495F-8650-CA27198DF3EF";
shapes = (
{
closed = 1;
nodes = (
(222,-175,o),
(273,-96,o),
(282,-45,cs),
(364,428,l),
(334,414,l),
(274,66,o),
(266,33,o),
(254,-32,cs),
(241,-103,o),
(210,-150,o),
(202,-150,cs),
(177,-150,o),
(41,-92,o),
(19,-78,c),
(20,-68,l),
(68,-18,o),
(229,154,o),
(299,238,c),
(309,238,l),
(316,279,l),
(120,67,l),
(-3,-55,l),
(-10,-92,l),
(36,-117,o),
(170,-175,o),
(192,-175,cs)
);
},
{
closed = 1;
nodes = (
(140,69,l),
(88,72,o),
(72,111,o),
(72,180,cs),
(72,256,o),
(104,364,o),
(193,410,cs),
(230,429,o),
(266,426,o),
(337,405,c),
(364,428,l),
(330,435,o),
(257,449,o),
(231,449,cs),
(205,449,o),
(141,409,o),
(104,367,c),
(68,319,o),
(41,240,o),
(41,173,cs),
(41,108,o),
(65,53,o),
(122,48,c)
);
}
);
width = 422;
},
{
anchors = (
{
name = top;
pos = (283,462);
}
);
background = {
shapes = (
{
closed = 1;
nodes = (
(266,-186,o),
(423,-76,o),
(433,-16,cs),
(514,448,l),
(354,448,l),
(329,299,o),
(305,149,o),
(280,0,cs),
(270,-70,o),
(263,-103,o),
(251,-103,cs),
(244,-103,o),
(196,-82,o),
(169,-64,c),
(171,-46,l),
(202,-2,o),
(245,57,o),
(284,110,c),
(305,110,l),
(343,233,l),
(162,39,l),
(27,-36,l),
(7,-149,l),
(62,-160,o),
(208,-186,o),
(232,-186,cs)
);
},
{
closed = 1;
nodes = (
(277,139,l),
(231,139,o),
(222,177,o),
(222,230,cs),
(222,310,o),
(255,384,o),
(272,396,cs),
(284,398,o),
(380,374,o),
(427,352,c),
(514,448,l),
(482,455,o),
(339,477,o),
(322,477,cs),
(292,477,o),
(146,414,o),
(100,380,c),
(68,306,o),
(48,232,o),
(48,170,cs),
(48,89,o),
(81,29,o),
(166,17,c)
);
}
);
};
layerId = "E259E77F-022A-45EF-A0F1-1168268390B3";
shapes = (
{
closed = 1;
nodes = (
(235,-186,o),
(392,-76,o),
(402,-16,cs),
(483,448,l),
(323,448,l),
(298,299,o),
(275,149,o),
(249,0,cs),
(237,-70,o),
(232,-103,o),
(220,-103,cs),
(213,-103,o),
(165,-82,o),
(138,-64,c),
(140,-46,l),
(171,-2,o),
(214,57,o),
(253,110,c),
(274,110,l),
(312,233,l),
(131,39,l),
(-4,-36,l),
(-24,-149,l),
(31,-160,o),
(177,-186,o),
(201,-186,cs)
);
},
{
closed = 1;
nodes = (
(246,139,l),
(200,139,o),
(191,177,o),
(191,230,cs),
(191,310,o),
(219,389,o),
(241,396,cs),
(251,399,o),
(349,374,o),
(396,352,c),
(483,448,l),
(451,455,o),
(308,477,o),
(291,477,cs),
(261,477,o),
(115,414,o),
(69,380,c),
(35,308,o),
(17,232,o),
(17,170,cs),
(17,89,o),
(50,29,o),
(135,17,c)
);
}
);
width = 501;
}
);
metricLeft = o;
unicode = 103;
},
{
color = 4;
glyphname = h;
kernLeft = l;
kernRight = n;
layers = (
{
anchors = (
{
name = bottom;
pos = (208,0);
},
{
name = center;
pos = (197,516);
},
{
name = top;
pos = (178,603);
}
);
background = {
shapes = (
{
closed = 1;
nodes = (
(265,22,l),
(265,15,o),
(286,-9,o),
(292,-9,cs),
(299,-9,o),
(399,22,o),
(399,22,c),
(404,52,l),
(359,63,l),
(401,288,l),
(405,312,o),
(407,333,o),
(407,351,cs),
(407,424,o),
(372,456,o),
(286,456,cs),
(272,456,o),
(187,306,o),
(158,253,c),
(145,184,l),
(184,242,o),
(283,382,o),
(297,382,cs),
(317,382,o),
(323,367,o),
(323,346,cs),
(323,338,o),
(322,328,o),
(320,318,cs)
);
},
{
closed = 1;
nodes = (
(230,615,l),
(231,621,o),
(208,646,o),
(203,646,cs),
(198,646,o),
(126,625,o),
(96,615,c),
(91,585,l),
(136,574,l),
(40,22,l),
(40,15,o),
(61,-9,o),
(67,-9,cs),
(74,-9,o),
(154,16,o),
(154,16,c),
(154,38,l),
(146,41,o),
(137,48,o),
(137,66,cs),
(137,69,o),
(137,73,o),
(138,78,cs)
);
}
);
};
layerId = "D9712079-C16A-42CB-8BA4-BD9ECFFACF10";
shapes = (
{
closed = 1;
nodes = (
(72,-9,o),
(120,5,o),
(154,16,c),
(154,38,l),
(146,41,o),
(137,48,o),
(137,66,cs),
(137,69,o),
(137,73,o),
(138,78,cs),
(166,243,l),
(228,615,l),
(229,621,o),
(208,646,o),
(203,646,cs),
(198,646,o),
(126,625,o),
(96,615,c),
(91,585,l),
(136,574,l),
(40,22,l),
(40,15,o),
(61,-9,o),
(67,-9,cs)
);
},
{
closed = 1;
nodes = (
(300,-9,o),
(378,14,o),
(399,22,c),
(404,52,l),
(359,63,l),
(401,288,l),
(405,312,o),
(407,333,o),
(407,351,cs),
(407,424,o),
(372,457,o),
(286,457,cs),
(279,457,o),
(220,354,o),
(178,282,c),
(164,282,l),
(145,184,l),
(198,259,o),
(283,382,o),
(297,382,cs),
(317,382,o),
(323,367,o),
(323,346,cs),
(323,338,o),
(322,328,o),
(320,318,cs),
(265,22,l),
(265,15,o),
(286,-9,o),
(292,-9,cs)
);
}
);
width = 460;
},
{
anchors = (
{
name = bottom;
pos = (210,0);
},
{
name = center;
pos = (190,525);
},
{
name = top;
pos = (167,591);
}
);
layerId = "16B79A64-180D-495F-8650-CA27198DF3EF";
shapes = (
{
closed = 1;
nodes = (
(80,-9,o),
(113,-2,o),
(126,2,c),
(127,15,l),
(101,19,o),
(94,20,o),
(94,32,cs),
(94,35,o),
(94,38,o),
(95,42,cs),
(120,187,l),
(192,620,l),
(193,623,o),
(180,637,o),
(176,637,cs),
(171,637,o),
(144,632,o),
(111,625,c),
(109,610,l),
(164,606,l),
(60,8,l),
(60,3,o),
(73,-9,o),
(77,-9,cs)
);
},
{
closed = 1;
nodes = (
(325,-9,o),
(362,-2,o),
(384,3,c),
(386,18,l),
(330,22,l),
(379,297,ls),
(383,321,o),
(386,342,o),
(386,362,cs),
(386,434,o),
(351,449,o),
(281,449,cs),
(271,449,o),
(185,301,o),
(128,207,c),
(119,207,l),
(110,150,l),
(174,251,o),
(282,423,o),
(290,423,cs),
(336,423,o),
(358,408,o),
(358,361,cs),
(358,345,o),
(357,329,o),
(354,310,cs),
(300,8,l),
(300,4,o),
(314,-9,o),
(318,-9,cs)
);
}
);
width = 452;
},
{
anchors = (
{
name = bottom;
pos = (228,0);
},
{
name = center;
pos = (221,520);
},
{
name = top;
pos = (178,623);
}
);
background = {
shapes = (
{
closed = 1;
nodes = (
(281,615,ls),
(283,626,o),
(255,665,o),
(246,665,cs),
(217,665,o),
(110,648,o),
(76,641,c),
(64,572,l),
(110,561,l),
(17,40,ls),
(15,26,o),
(43,-9,o),
(52,-9,cs),
(59,-9,o),
(206,6,o),
(206,6,c),
(212,65,l),
(204,69,o),
(195,76,o),
(195,94,cs),
(195,97,o),
(195,101,o),
(196,106,cs)
);
},
{
closed = 1;
nodes = (
(259,40,ls),
(256,26,o),
(285,-9,o),
(294,-9,cs),
(301,-9,o),
(463,12,o),
(463,12,c),
(474,80,l),
(434,91,l),
(475,308,ls),
(479,331,o),
(482,351,o),
(482,369,cs),
(482,446,o),
(437,476,o),
(333,476,cs),
(322,476,o),
(275,387,o),
(236,315,c),
(214,315,l),
(195,226,l),
(240,273,o),
(276,308,o),
(279,308,cs),
(295,308,o),
(300,300,o),
(300,281,cs),
(300,271,o),
(298,260,o),
(296,246,cs)
);
}
);
};
layerId = "E259E77F-022A-45EF-A0F1-1168268390B3";
shapes = (
{
closed = 1;
nodes = (
(57,-9,o),
(143,0,o),
(206,6,c),
(212,65,l),
(204,69,o),
(195,76,o),
(195,94,cs),
(195,97,o),
(195,101,o),
(196,106,cs),
(226,286,l),
(276,615,ls),
(278,626,o),
(250,665,o),
(241,665,cs),
(212,665,o),
(110,648,o),
(76,641,c),
(64,572,l),
(110,561,l),
(17,40,ls),
(15,26,o),
(43,-9,o),
(52,-9,cs)
);
},
{
closed = 1;
nodes = (
(300,-9,o),
(430,6,o),
(463,12,c),
(474,80,l),
(434,91,l),
(475,308,ls),
(479,331,o),
(482,351,o),
(482,369,cs),
(482,446,o),
(437,476,o),
(333,476,cs),
(329,476,o),
(275,379,o),
(236,310,c),
(214,310,l),
(195,226,l),
(242,273,o),
(276,308,o),
(279,308,cs),
(295,308,o),
(300,300,o),
(300,281,cs),
(300,271,o),
(298,260,o),
(296,246,cs),
(259,40,ls),
(256,26,o),
(285,-9,o),
(294,-9,cs)
);
}
);
width = 507;
}
);
metricLeft = l;
metricRight = n;
unicode = 104;
},
{
glyphname = i;
kernLeft = i;
kernRight = i;
layers = (
{
background = {
shapes = (
{
closed = 1;
nodes = (
(175,532,o),
(206,537,o),
(232,544,c),
(247,621,l),
(248,627,o),
(227,650,o),
(222,650,cs),
(217,650,o),
(183,646,o),
(155,638,c),
(144,561,l),
(144,555,o),
(163,532,o),
(169,532,cs)
);
}
);
};
layerId = "D9712079-C16A-42CB-8BA4-BD9ECFFACF10";
shapes = (
{
ref = idotless;
},
{
pos = (83,0);
ref = dotaccentcomb;
}
);
width = 244;
},
{
background = {
shapes = (
{
closed = 1;
nodes = (
(170,541,o),
(179,544,o),
(185,546,c),
(200,610,ls),
(201,614,o),
(192,624,o),
(188,624,cs),
(184,624,o),
(172,621,o),
(164,619,c),
(155,555,l),
(155,550,o),
(163,541,o),
(167,541,cs)
);
}
);
};
layerId = "16B79A64-180D-495F-8650-CA27198DF3EF";
shapes = (
{
ref = idotless;
},
{
pos = (86,0);
ref = dotaccentcomb;
}
);
width = 223;
},
{
background = {
shapes = (
{
closed = 1;
nodes = (
(85,-9,o),
(197,8,o),
(231,15,c),
(243,84,l),
(197,95,l),
(257,427,ls),
(259,438,o),
(231,477,o),
(222,477,cs),
(193,477,o),
(81,460,o),
(47,453,c),
(35,384,l),
(81,373,l),
(21,40,ls),
(18,26,o),
(47,-9,o),
(56,-9,cs)
);
},
{
closed = 1;
nodes = (
(155,523,o),
(268,537,o),
(268,537,c),
(290,623,l),
(292,633,o),
(264,670,o),
(256,670,cs),
(227,670,o),
(156,660,o),
(123,654,c),
(114,570,ls),
(113,556,o),
(140,523,o),
(148,523,cs)
);
}
);
};
layerId = "E259E77F-022A-45EF-A0F1-1168268390B3";
shapes = (
{
ref = idotless;
},
{
pos = (49,0);
ref = dotaccentcomb;
}
);
width = 272;
}
);
unicode = 105;
},
{
color = 4;
glyphname = idotless;
kernLeft = i;
kernRight = i;
layers = (
{
anchors = (
{
name = bottom;
pos = (119,0);
},
{
name = ogonek;
pos = (182,10);
},
{
name = top;
pos = (168,448);
}
);
layerId = "D9712079-C16A-42CB-8BA4-BD9ECFFACF10";
shapes = (
{
closed = 1;
nodes = (
(81,-9,o),
(158,13,o),
(182,22,c),
(187,52,l),
(142,63,l),
(206,426,ls),
(207,432,o),
(184,457,o),
(179,457,cs),
(174,457,o),
(102,436,o),
(72,426,c),
(67,396,l),
(112,385,l),
(48,22,l),
(48,15,o),
(69,-9,o),
(75,-9,cs)
);
}
);
width = 244;
},
{
anchors = (
{
name = bottom;
pos = (97,0);
},
{
name = ogonek;
pos = (164,10);
},
{
name = top;
pos = (146,440);
}
);
layerId = "16B79A64-180D-495F-8650-CA27198DF3EF";
shapes = (
{
closed = 1;
nodes = (
(88,-9,o),
(116,-4,o),
(149,3,c),
(151,18,l),
(96,22,l),
(168,432,l),
(169,435,o),
(155,449,o),
(151,449,cs),
(146,449,o),
(118,444,o),
(85,437,c),
(83,422,l),
(138,418,l),
(66,8,l),
(66,3,o),
(79,-9,o),
(83,-9,cs)
);
}
);
width = 223;
},
{
anchors = (
{
name = bottom;
pos = (108,0);
},
{
name = ogonek;
pos = (206,10);
},
{
name = top;
pos = (177,462);
}
);
layerId = "E259E77F-022A-45EF-A0F1-1168268390B3";
shapes = (
{
closed = 1;
nodes = (
(85,-9,o),
(197,8,o),
(231,15,c),
(243,84,l),
(197,95,l),
(257,427,ls),
(259,438,o),
(231,477,o),
(222,477,cs),
(193,477,o),
(81,460,o),
(47,453,c),
(35,384,l),
(81,373,l),
(21,40,ls),
(18,26,o),
(47,-9,o),
(56,-9,cs)
);
}
);
width = 272;
}
);
unicode = 305;
},
{
glyphname = j;
kernLeft = j;
kernRight = j;
layers = (
{
background = {
shapes = (
{
ref = jdotless;
}
);
};
layerId = "D9712079-C16A-42CB-8BA4-BD9ECFFACF10";
shapes = (
{
ref = jdotless;
},
{
pos = (77,0);
ref = dotaccentcomb;
}
);
width = 234;
},
{
background = {
shapes = (
{
closed = 1;
nodes = (
(170,541,o),
(179,544,o),
(185,546,c),
(200,610,ls),
(201,614,o),
(192,624,o),
(188,624,cs),
(184,624,o),
(172,621,o),
(164,619,c),
(155,555,l),
(155,550,o),
(163,541,o),
(167,541,cs)
);
}
);
};
layerId = "16B79A64-180D-495F-8650-CA27198DF3EF";
shapes = (
{
ref = jdotless;
},
{
pos = (93,0);
ref = dotaccentcomb;
}
);
width = 217;
},
{
background = {
shapes = (
{
closed = 1;
nodes = (
(154,523,o),
(267,537,o),
(267,537,c),
(289,623,l),
(291,633,o),
(263,670,o),
(255,670,cs),
(226,670,o),
(155,660,o),
(122,654,c),
(113,570,ls),
(112,556,o),
(139,523,o),
(147,523,cs)
);
},
{
ref = jdotless;
}
);
};
layerId = "E259E77F-022A-45EF-A0F1-1168268390B3";
shapes = (
{
ref = jdotless;
},
{
pos = (48,0);
ref = dotaccentcomb;
}
);
width = 270;
}
);
unicode = 106;
},
{
color = 4;
glyphname = jdotless;
kernLeft = j;
kernRight = j;
layers = (
{
anchors = (
{
name = bottom;
pos = (33,-250);
},
{
name = top;
pos = (162,448);
}
);
layerId = "D9712079-C16A-42CB-8BA4-BD9ECFFACF10";
shapes = (
{
closed = 1;
nodes = (
(9,-181,o),
(116,-84,o),
(127,-22,cs),
(206,426,l),
(207,432,o),
(184,457,o),
(179,457,cs),
(174,457,o),
(102,436,o),
(72,426,c),
(67,396,l),
(112,385,l),
(46,13,ls),
(40,-22,o),
(27,-89,o),
(2,-102,cs),
(-8,-107,o),
(-74,-108,o),
(-96,-108,c),
(-110,-146,l),
(-74,-162,o),
(-33,-181,o),
(-19,-181,cs)
);
}
);
width = 234;
},
{
anchors = (
{
name = bottom;
pos = (26,-250);
},
{
name = top;
pos = (153,440);
}
);
layerId = "16B79A64-180D-495F-8650-CA27198DF3EF";
shapes = (
{
closed = 1;
nodes = (
(26,-175,o),
(72,-120,o),
(83,-59,cs),
(168,432,l),
(169,435,o),
(155,449,o),
(151,449,cs),
(146,449,o),
(118,444,o),
(85,437,c),
(83,422,l),
(138,418,l),
(57,-45,ls),
(49,-92,o),
(25,-143,o),
(9,-147,cs),
(0,-149,o),
(-50,-149,o),
(-72,-149,c),
(-75,-164,l),
(-50,-169,o),
(-7,-175,o),
(-1,-175,cs)
);
}
);
width = 217;
},
{
anchors = (
{
name = bottom;
pos = (50,-250);
},
{
name = top;
pos = (176,462);
}
);
layerId = "E259E77F-022A-45EF-A0F1-1168268390B3";
shapes = (
{
closed = 1;
nodes = (
(24,-186,o),
(171,-76,o),
(181,-16,cs),
(257,427,ls),
(259,438,o),
(231,477,o),
(222,477,cs),
(193,477,o),
(81,460,o),
(47,453,c),
(35,384,l),
(81,373,l),
(24,35,ls),
(12,-35,o),
(7,-63,o),
(-5,-68,cs),
(-19,-74,o),
(-85,-74,o),
(-112,-73,c),
(-126,-150,l),
(-91,-166,o),
(-37,-186,o),
(-10,-186,cs)
);
}
);
width = 270;
}
);
unicode = 567;
},
{
color = 4;
glyphname = k;
kernLeft = l;
kernRight = k;
layers = (
{
anchors = (
{
name = bottom;
pos = (208,0);
}
);
background = {
shapes = (
{
closed = 1;
nodes = (
(264,615,l),
(265,621,o),
(242,646,o),
(237,646,cs),
(232,646,o),
(160,625,o),
(130,615,c),
(125,585,l),
(170,574,l),
(74,22,l),
(74,15,o),
(95,-9,o),
(101,-9,cs),
(108,-9,o),
(188,16,o),
(188,16,c),
(188,38,l),
(179,42,o),
(172,49,o),
(172,78,c)
);
},
{
closed = 1;
nodes = (
(236,175,l),
(248,140,o),
(305,-9,o),
(327,-9,cs),
(334,-9,o),
(433,22,o),
(433,22,c),
(438,52,l),
(379,66,l),
(363,92,o),
(314,173,o),
(304,194,c),
(358,217,o),
(447,269,o),
(447,362,cs),
(447,403,o),
(427,457,o),
(319,457,cs),
(306,457,o),
(219,304,o),
(190,252,c),
(175,180,l),
(212,234,o),
(317,382,o),
(330,382,cs),
(354,382,o),
(358,362,o),
(358,349,cs),
(358,290,o),
(294,233,o),
(243,219,c)
);
}
);
};
layerId = "D9712079-C16A-42CB-8BA4-BD9ECFFACF10";
shapes = (
{
closed = 1;
nodes = (
(298,-9,o),
(356,9,o),
(399,22,c),
(404,52,l),
(345,66,l),
(329,92,o),
(280,173,o),
(270,194,c),
(324,217,o),
(413,269,o),
(413,362,cs),
(413,403,o),
(393,457,o),
(286,457,cs),
(279,457,o),
(218,350,o),
(178,282,c),
(164,282,l),
(141,180,l),
(195,256,o),
(283,382,o),
(296,382,cs),
(320,382,o),
(324,362,o),
(324,349,cs),
(324,290,o),
(260,233,o),
(209,219,c),
(202,175,l),
(214,140,o),
(271,-9,o),
(293,-9,cs)
);
},
{
closed = 1;
nodes = (
(72,-9,o),
(120,5,o),
(154,16,c),
(154,38,l),
(146,41,o),
(137,48,o),
(137,66,cs),
(137,70,o),
(137,74,o),
(138,78,cs),
(167,250,l),
(228,615,l),
(229,621,o),
(208,646,o),
(203,646,cs),
(198,646,o),
(126,625,o),
(96,615,c),
(91,585,l),
(136,574,l),
(40,22,l),
(40,15,o),
(61,-9,o),
(67,-9,cs)
);
}
);
width = 430;
},
{
anchors = (
{
name = bottom;
pos = (207,0);
}
);
background = {
shapes = (
{
closed = 1;
nodes = (
(348,-9,o),
(386,-2,o),
(408,3,c),
(410,18,l),
(352,22,l),
(334,48,o),
(295,146,o),
(278,195,c),
(337,219,o),
(410,282,o),
(410,362,cs),
(410,433,o),
(374,449,o),
(305,449,cs),
(295,449,o),
(208,301,o),
(152,207,c),
(143,207,l),
(134,150,l),
(197,251,o),
(306,425,o),
(314,425,cs),
(360,425,o),
(382,407,o),
(382,359,cs),
(382,289,o),
(316,228,o),
(252,205,c),
(249,191,l),
(261,156,o),
(324,-9,o),
(341,-9,cs)
);
},
{
closed = 1;
nodes = (
(104,-9,o),
(137,-2,o),
(150,2,c),
(151,15,l),
(125,19,o),
(118,20,o),
(118,32,cs),
(118,35,o),
(118,38,o),
(119,42,cs),
(143,185,l),
(216,620,l),
(217,623,o),
(204,637,o),
(200,637,cs),
(195,637,o),
(168,632,o),
(135,625,c),
(133,610,l),
(188,606,l),
(84,8,l),
(84,3,o),
(97,-9,o),
(101,-9,cs)
);
}
);
};
layerId = "16B79A64-180D-495F-8650-CA27198DF3EF";
shapes = (
{
closed = 1;
nodes = (
(324,-9,o),
(362,-2,o),
(384,3,c),
(386,18,l),
(328,22,l),
(310,48,o),
(271,146,o),
(254,195,c),
(313,219,o),
(386,282,o),
(386,362,cs),
(386,432,o),
(350,449,o),
(282,449,cs),
(271,449,o),
(184,301,o),
(128,207,c),
(119,207,l),
(110,150,l),
(173,251,o),
(282,424,o),
(290,424,cs),
(335,424,o),
(358,406,o),
(358,359,cs),
(358,289,o),
(292,228,o),
(228,205,c),
(225,191,l),
(237,156,o),
(300,-9,o),
(317,-9,cs)
);
},
{
closed = 1;
nodes = (
(80,-9,o),
(113,-2,o),
(126,2,c),
(127,15,l),
(101,19,o),
(94,20,o),
(94,32,cs),
(94,35,o),
(94,38,o),
(95,42,cs),
(119,185,l),
(192,620,l),
(193,623,o),
(180,637,o),
(176,637,cs),
(171,637,o),
(144,632,o),
(111,625,c),
(109,610,l),
(164,606,l),
(60,8,l),
(60,3,o),
(73,-9,o),
(77,-9,cs)
);
}
);
width = 412;
},
{
anchors = (
{
name = bottom;
pos = (228,0);
}
);
background = {
shapes = (
{
closed = 1;
nodes = (
(305,615,ls),
(307,626,o),
(279,665,o),
(270,665,cs),
(241,665,o),
(134,648,o),
(100,641,c),
(88,572,l),
(134,561,l),
(41,40,ls),
(39,26,o),
(67,-9,o),
(76,-9,cs),
(83,-9,o),
(230,6,o),
(230,6,c),
(236,65,l),
(228,69,o),
(219,76,o),
(219,94,cs),
(219,97,o),
(219,101,o),
(220,106,cs)
);
},
{
closed = 1;
nodes = (
(249,160,l),
(271,75,o),
(311,-9,o),
(335,-9,cs),
(342,-9,o),
(485,22,o),
(485,22,c),
(493,80,l),
(453,93,l),
(438,115,o),
(416,168,o),
(405,198,c),
(458,233,o),
(505,275,o),
(505,365,cs),
(505,442,o),
(459,476,o),
(358,476,cs),
(347,476,o),
(300,387,o),
(261,315,c),
(239,315,l),
(219,226,l),
(264,273,o),
(309,319,o),
(312,319,cs),
(327,319,o),
(336,311,o),
(336,294,cs),
(336,267,o),
(319,228,o),
(257,212,c)
);
}
);
};
layerId = "E259E77F-022A-45EF-A0F1-1168268390B3";
shapes = (
{
closed = 1;
nodes = (
(316,-9,o),
(400,9,o),
(461,22,c),
(469,80,l),
(429,93,l),
(414,115,o),
(392,168,o),
(381,198,c),
(434,233,o),
(481,275,o),
(481,365,cs),
(481,442,o),
(435,476,o),
(334,476,cs),
(330,476,o),
(276,379,o),
(237,310,c),
(215,310,l),
(195,226,l),
(240,273,o),
(285,319,o),
(288,319,cs),
(303,319,o),
(312,311,o),
(312,294,cs),
(312,267,o),
(295,228,o),
(233,212,c),
(225,160,l),
(247,75,o),
(287,-9,o),
(311,-9,cs)
);
},
{
closed = 1;
nodes = (
(57,-9,o),
(143,0,o),
(206,6,c),
(212,65,l),
(204,69,o),
(195,76,o),
(195,94,cs),
(195,97,o),
(195,101,o),
(196,106,cs),
(226,283,l),
(276,615,ls),
(278,626,o),
(250,665,o),
(241,665,cs),
(212,665,o),
(110,648,o),
(76,641,c),
(64,572,l),
(110,561,l),
(17,40,ls),
(15,26,o),
(43,-9,o),
(52,-9,cs)
);
}
);
width = 483;
}
);
metricLeft = l;
unicode = 107;
},
{
color = 4;
glyphname = kgreenlandic;
kernLeft = n;
kernRight = k;
layers = (
{
layerId = "D9712079-C16A-42CB-8BA4-BD9ECFFACF10";
shapes = (
{
closed = 1;
nodes = (
(311,-9,o),
(369,9,o),
(412,22,c),
(417,52,l),
(358,66,l),
(325,119,o),
(292,171,o),
(259,224,c),
(457,410,l),
(459,421,o),
(453,457,o),
(447,457,cs),
(439,457,o),
(349,453,o),
(316,450,c),
(308,410,l),
(353,402,l),
(198,242,l),
(191,205,l),
(203,170,o),
(284,-9,o),
(306,-9,cs)
);
},
{
closed = 1;
nodes = (
(80,-9,o),
(128,5,o),
(162,16,c),
(162,38,l),
(154,41,o),
(145,50,o),
(145,68,cs),
(145,71,o),
(145,74,o),
(146,78,cs),
(204,426,l),
(205,432,o),
(184,457,o),
(179,457,cs),
(174,457,o),
(102,436,o),
(72,426,c),
(67,396,l),
(112,385,l),
(48,22,l),
(48,15,o),
(69,-9,o),
(75,-9,cs)
);
}
);
width = 448;
},
{
layerId = "16B79A64-180D-495F-8650-CA27198DF3EF";
shapes = (
{
closed = 1;
nodes = (
(312,-9,o),
(348,-2,o),
(374,3,c),
(376,18,l),
(318,22,l),
(296,48,o),
(220,179,o),
(200,228,c),
(418,426,l),
(420,437,o),
(411,449,o),
(405,449,cs),
(396,449,o),
(334,446,o),
(310,444,c),
(308,428,l),
(378,422,l),
(177,234,l),
(174,220,l),
(186,185,o),
(290,-9,o),
(307,-9,cs)
);
},
{
closed = 1;
nodes = (
(86,-9,o),
(119,-2,o),
(132,2,c),
(133,15,l),
(107,19,o),
(100,20,o),
(100,32,cs),
(100,35,o),
(100,38,o),
(101,42,cs),
(167,432,l),
(168,435,o),
(155,449,o),
(151,449,cs),
(146,449,o),
(118,444,o),
(85,437,c),
(83,422,l),
(138,418,l),
(66,8,l),
(66,3,o),
(79,-9,o),
(83,-9,cs)
);
}
);
width = 402;
},
{
layerId = "E259E77F-022A-45EF-A0F1-1168268390B3";
shapes = (
{
closed = 1;
nodes = (
(325,-9,o),
(409,9,o),
(470,22,c),
(478,80,l),
(438,93,l),
(417,128,o),
(386,196,o),
(373,231,c),
(522,409,l),
(525,432,o),
(507,477,o),
(491,477,cs),
(483,477,o),
(363,473,o),
(328,470,c),
(316,403,l),
(363,396,l),
(244,243,l),
(236,191,l),
(253,100,o),
(296,-9,o),
(320,-9,cs)
);
},
{
closed = 1;
nodes = (
(61,-9,o),
(147,0,o),
(210,6,c),
(216,65,l),
(208,69,o),
(199,76,o),
(199,94,cs),
(199,97,o),
(199,101,o),
(200,106,cs),
(252,427,ls),
(254,438,o),
(226,477,o),
(217,477,cs),
(188,477,o),
(81,460,o),
(47,453,c),
(35,384,l),
(81,373,l),
(21,40,ls),
(18,26,o),
(47,-9,o),
(56,-9,cs)
);
}
);
width = 502;
}
);
metricLeft = n;
unicode = 312;
},
{
color = 4;
glyphname = l;
kernLeft = l;
kernRight = l;
layers = (
{
anchors = (
{
name = bottom;
pos = (117,0);
},
{
name = center;
pos = (135,318);
},
{
name = top;
pos = (216,613);
},
{
name = topright;
pos = (237,448);
}
);
layerId = "D9712079-C16A-42CB-8BA4-BD9ECFFACF10";
shapes = (
{
closed = 1;
nodes = (
(71,-9,o),
(130,9,o),
(173,22,c),
(178,52,l),
(133,63,l),
(230,615,ls),
(231,621,o),
(208,646,o),
(203,646,cs),
(198,646,o),
(126,625,o),
(96,615,c),
(91,585,l),
(136,574,l),
(39,22,l),
(39,15,o),
(60,-9,o),
(66,-9,cs)
);
}
);
width = 236;
},
{
anchors = (
{
name = bottom;
pos = (103,0);
},
{
name = center;
pos = (132,338);
},
{
name = top;
pos = (174,591);
},
{
name = topright;
pos = (238,440);
}
);
layerId = "16B79A64-180D-495F-8650-CA27198DF3EF";
shapes = (
{
closed = 1;
nodes = (
(82,-9,o),
(110,-4,o),
(143,3,c),
(145,18,l),
(90,22,l),
(194,620,l),
(195,623,o),
(181,637,o),
(177,637,cs),
(172,637,o),
(144,632,o),
(111,625,c),
(109,610,l),
(164,606,l),
(60,8,l),
(60,3,o),
(73,-9,o),
(77,-9,cs)
);
}
);
width = 221;
},
{
anchors = (
{
name = bottom;
pos = (121,0);
},
{
name = center;
pos = (153,329);
},
{
name = top;
pos = (227,642);
},
{
name = topright;
pos = (282,462);
}
);
layerId = "E259E77F-022A-45EF-A0F1-1168268390B3";
shapes = (
{
closed = 1;
nodes = (
(82,-9,o),
(194,8,o),
(228,15,c),
(240,84,l),
(194,95,l),
(286,615,ls),
(288,626,o),
(260,665,o),
(251,665,cs),
(222,665,o),
(110,648,o),
(76,641,c),
(64,572,l),
(110,561,l),
(18,40,ls),
(16,26,o),
(44,-9,o),
(53,-9,cs)
);
}
);
width = 270;
}
);
unicode = 108;
},
{
glyphname = ldot;
kernLeft = l;
kernRight = l;
layers = (
{
background = {
shapes = (
{
closed = 1;
nodes = (
(244,301,l),
(262,362,l),
(254,373,l),
(225,370,l),
(219,301,l)
);
}
);
};
layerId = "16B79A64-180D-495F-8650-CA27198DF3EF";
shapes = (
{
ref = l;
},
{
pos = (199,0);
ref = periodcentered.loclCAT;
}
);
width = 221;
},
{
background = {
shapes = (
{
closed = 1;
nodes = (
(280,264,l),
(301,351,l),
(290,373,l),
(222,368,l),
(210,264,l)
);
}
);
};
layerId = "D9712079-C16A-42CB-8BA4-BD9ECFFACF10";
shapes = (
{
ref = l;
},
{
pos = (197,0);
ref = periodcentered.loclCAT;
}
);
width = 236;
},
{
background = {
shapes = (
{
closed = 1;
nodes = (
(374,263,l),
(405,367,l),
(384,397,l),
(270,390,l),
(258,263,l)
);
}
);
};
layerId = "E259E77F-022A-45EF-A0F1-1168268390B3";
shapes = (
{
ref = l;
},
{
pos = (242,0);
ref = periodcentered.loclCAT;
}
);
width = 270;
}
);
metricLeft = l;
unicode = 320;
},
{
color = 4;
glyphname = m;
kernLeft = n;
kernRight = n;
layers = (
{
background = {
shapes = (
{
closed = 1;
nodes = (
(346,285,l),
(299,22,l),
(299,15,o),
(320,-9,o),
(326,-9,cs),
(333,-9,o),
(413,16,o),
(413,16,c),
(413,38,l),
(404,42,o),
(397,49,o),
(397,78,cs),
(397,91,o),
(408,140,o),
(433,288,cs),
(437,312,o),
(439,333,o),
(439,352,cs),
(439,425,o),
(404,456,o),
(318,456,cs),
(305,456,o),
(224,315,o),
(195,262,c),
(182,191,l),
(221,248,o),
(315,382,o),
(329,382,cs),
(349,382,o),
(355,367,o),
(355,346,cs),
(355,338,o),
(354,328,o),
(352,318,cs)
);
},
{
closed = 1;
nodes = (
(409,192,l),
(446,245,o),
(541,382,o),
(555,382,cs),
(575,382,o),
(581,367,o),
(581,346,cs),
(581,338,o),
(580,328,o),
(578,318,cs),
(524,22,l),
(524,15,o),
(545,-9,o),
(551,-9,cs),
(558,-9,o),
(658,22,o),
(658,22,c),
(663,52,l),
(618,63,l),
(659,288,ls),
(663,312,o),
(665,333,o),
(665,351,cs),
(665,424,o),
(630,456,o),
(544,456,cs),
(531,456,o),
(451,317,o),
(422,263,c)
);
},
{
closed = 1;
nodes = (
(230,426,l),
(231,432,o),
(208,457,o),
(203,457,cs),
(198,457,o),
(126,436,o),
(96,426,c),
(91,396,l),
(136,385,l),
(71,22,l),
(71,15,o),
(92,-9,o),
(98,-9,cs),
(105,-9,o),
(185,16,o),
(185,16,c),
(185,38,l),
(177,41,o),
(168,48,o),
(168,66,cs),
(168,69,o),
(168,73,o),
(169,78,cs)
);
}
);
};
layerId = "D9712079-C16A-42CB-8BA4-BD9ECFFACF10";
shapes = (
{
closed = 1;
nodes = (
(532,-9,o),
(591,9,o),
(634,22,c),
(639,52,l),
(594,63,l),
(635,288,ls),
(639,312,o),
(641,333,o),
(641,351,cs),
(641,424,o),
(606,457,o),
(520,457,cs),
(513,457,o),
(449,345,o),
(413,282,c),
(403,282,l),
(385,192,l),
(422,245,o),
(517,382,o),
(531,382,cs),
(551,382,o),
(557,367,o),
(557,346,cs),
(557,338,o),
(556,328,o),
(554,318,cs),
(500,22,l),
(500,15,o),
(521,-9,o),
(527,-9,cs)
);
},
{
closed = 1;
nodes = (
(79,-9,o),
(127,5,o),
(161,16,c),
(161,38,l),
(153,41,o),
(144,48,o),
(144,66,cs),
(144,69,o),
(144,73,o),
(145,78,cs),
(174,245,l),
(204,426,l),
(205,432,o),
(183,457,o),
(178,457,cs),
(173,457,o),
(102,436,o),
(72,426,c),
(67,396,l),
(112,385,l),
(47,22,l),
(47,15,o),
(68,-9,o),
(74,-9,cs)
);
},
{
closed = 1;
nodes = (
(308,-9,o),
(369,9,o),
(389,16,c),
(389,38,l),
(380,42,o),
(373,49,o),
(373,78,cs),
(373,91,o),
(382,140,o),
(407,288,cs),
(411,312,o),
(413,333,o),
(413,352,cs),
(413,425,o),
(380,457,o),
(294,457,cs),
(287,457,o),
(223,345,o),
(187,282,c),
(176,282,l),
(158,191,l),
(198,248,o),
(291,382,o),
(305,382,cs),
(325,382,o),
(331,367,o),
(331,346,cs),
(331,338,o),
(330,328,o),
(328,318,cs),
(275,22,l),
(275,15,o),
(296,-9,o),
(302,-9,cs)
);
}
);
width = 695;
},
{
background = {
shapes = (
{
closed = 1;
nodes = (
(603,-9,o),
(640,-2,o),
(662,3,c),
(664,18,l),
(608,22,l),
(657,297,ls),
(661,321,o),
(664,342,o),
(664,362,cs),
(664,434,o),
(629,449,o),
(559,449,cs),
(549,449,o),
(461,297,o),
(406,207,c),
(397,207,l),
(388,150,l),
(452,251,o),
(560,424,o),
(568,424,cs),
(615,424,o),
(637,408,o),
(637,360,cs),
(637,344,o),
(635,329,o),
(632,310,cs),
(578,8,l),
(578,4,o),
(592,-9,o),
(596,-9,cs)
);
},
{
closed = 1;
nodes = (
(117,-9,o),
(150,-2,o),
(163,2,c),
(164,15,l),
(138,19,o),
(131,20,o),
(131,32,cs),
(131,35,o),
(131,38,o),
(132,42,cs),
(156,182,l),
(197,432,l),
(198,435,o),
(185,449,o),
(181,449,cs),
(176,449,o),
(149,444,o),
(116,437,c),
(114,422,l),
(169,418,l),
(97,8,l),
(97,3,o),
(110,-9,o),
(114,-9,cs)
);
},
{
closed = 1;
nodes = (
(358,-9,o),
(391,-2,o),
(404,2,c),
(405,15,l),
(379,19,o),
(372,20,o),
(372,32,cs),
(372,37,o),
(401,218,o),
(415,296,cs),
(419,320,o),
(422,342,o),
(422,362,cs),
(422,434,o),
(388,449,o),
(318,449,cs),
(308,449,o),
(220,298,o),
(165,207,c),
(156,207,l),
(147,150,l),
(211,251,o),
(319,424,o),
(327,424,cs),
(374,424,o),
(396,408,o),
(396,360,cs),
(396,344,o),
(394,328,o),
(391,309,cs),
(338,8,l),
(338,3,o),
(351,-9,o),
(355,-9,cs)
);
}
);
};
layerId = "16B79A64-180D-495F-8650-CA27198DF3EF";
shapes = (
{
closed = 1;
nodes = (
(572,-9,o),
(609,-2,o),
(631,3,c),
(633,18,l),
(577,22,l),
(626,297,ls),
(630,321,o),
(633,342,o),
(633,362,cs),
(633,434,o),
(598,449,o),
(528,449,cs),
(518,449,o),
(430,297,o),
(375,207,c),
(366,207,l),
(357,150,l),
(421,251,o),
(529,423,o),
(537,423,cs),
(583,423,o),
(605,408,o),
(605,361,cs),
(605,346,o),
(604,328,o),
(601,310,cs),
(547,8,l),
(547,4,o),
(561,-9,o),
(565,-9,cs)
);
},
{
closed = 1;
nodes = (
(86,-9,o),
(119,-2,o),
(132,2,c),
(133,15,l),
(107,19,o),
(100,20,o),
(100,32,cs),
(100,35,o),
(100,38,o),
(101,42,cs),
(125,182,l),
(166,432,l),
(167,435,o),
(154,449,o),
(150,449,cs),
(145,449,o),
(118,444,o),
(85,437,c),
(83,422,l),
(138,418,l),
(66,8,l),
(66,3,o),
(79,-9,o),
(83,-9,cs)
);
},
{
closed = 1;
nodes = (
(327,-9,o),
(360,-2,o),
(373,2,c),
(374,15,l),
(348,19,o),
(341,20,o),
(341,32,cs),
(341,37,o),
(371,218,o),
(384,296,cs),
(388,320,o),
(391,342,o),
(391,362,cs),
(391,434,o),
(357,449,o),
(287,449,cs),
(277,449,o),
(189,298,o),
(134,207,c),
(125,207,l),
(116,150,l),
(180,251,o),
(288,423,o),
(296,423,cs),
(342,423,o),
(364,408,o),
(364,361,cs),
(364,347,o),
(363,327,o),
(360,309,cs),
(307,8,l),
(307,3,o),
(320,-9,o),
(324,-9,cs)
);
}
);
width = 699;
},
{
background = {
shapes = (
{
closed = 1;
nodes = (
(271,427,ls),
(273,438,o),
(248,477,o),
(239,477,cs),
(210,477,o),
(101,460,o),
(67,453,c),
(55,384,l),
(101,373,l),
(41,40,ls),
(38,26,o),
(67,-9,o),
(76,-9,cs),
(83,-9,o),
(230,6,o),
(230,6,c),
(236,65,l),
(228,69,o),
(219,76,o),
(219,94,cs),
(219,97,o),
(219,101,o),
(220,106,cs)
);
},
{
closed = 1;
nodes = (
(516,40,ls),
(513,26,o),
(542,-9,o),
(551,-9,cs),
(558,-9,o),
(720,12,o),
(720,12,c),
(731,80,l),
(691,91,l),
(732,308,ls),
(736,331,o),
(739,351,o),
(739,369,cs),
(739,447,o),
(695,476,o),
(590,476,cs),
(583,476,o),
(535,384,o),
(498,315,c),
(476,315,l),
(457,226,l),
(497,273,o),
(533,308,o),
(536,308,cs),
(552,308,o),
(557,300,o),
(557,281,cs),
(557,271,o),
(555,259,o),
(553,246,cs)
);
},
{
closed = 1;
nodes = (
(259,273,o),
(295,308,o),
(298,308,cs),
(314,308,o),
(319,300,o),
(319,281,cs),
(319,271,o),
(317,259,o),
(315,246,cs),
(278,40,l),
(275,26,o),
(304,-9,o),
(313,-9,cs),
(320,-9,o),
(467,6,o),
(467,6,c),
(473,65,l),
(465,69,o),
(456,76,o),
(456,94,cs),
(456,103,o),
(459,133,o),
(491,308,cs),
(495,331,o),
(498,351,o),
(498,369,cs),
(498,447,o),
(457,476,o),
(352,476,cs),
(345,476,o),
(297,384,o),
(260,315,c),
(238,315,l),
(219,226,l)
);
}
);
};
layerId = "E259E77F-022A-45EF-A0F1-1168268390B3";
shapes = (
{
closed = 1;
nodes = (
(536,-9,o),
(630,3,o),
(700,12,c),
(711,80,l),
(671,91,l),
(712,308,ls),
(716,331,o),
(719,351,o),
(719,369,cs),
(719,447,o),
(675,476,o),
(570,476,cs),
(566,476,o),
(515,379,o),
(478,310,c),
(456,310,l),
(437,226,l),
(477,269,o),
(513,308,o),
(516,308,cs),
(532,308,o),
(537,300,o),
(537,281,cs),
(537,271,o),
(535,259,o),
(533,246,cs),
(496,40,ls),
(493,26,o),
(522,-9,o),
(531,-9,cs)
);
},
{
closed = 1;
nodes = (
(61,-9,o),
(147,0,o),
(210,6,c),
(216,65,l),
(208,69,o),
(199,76,o),
(199,94,cs),
(199,97,o),
(199,101,o),
(200,106,cs),
(229,289,l),
(246,427,ls),
(247,438,o),
(223,477,o),
(214,477,cs),
(185,477,o),
(81,460,o),
(47,453,c),
(35,384,l),
(81,373,l),
(21,40,ls),
(18,26,o),
(47,-9,o),
(56,-9,cs)
);
},
{
closed = 1;
nodes = (
(297,-9,o),
(421,3,o),
(447,6,c),
(453,65,l),
(445,69,o),
(436,76,o),
(436,94,cs),
(436,103,o),
(441,133,o),
(471,308,cs),
(475,331,o),
(478,351,o),
(478,369,cs),
(478,447,o),
(437,476,o),
(332,476,cs),
(328,476,o),
(277,379,o),
(240,310,c),
(218,310,l),
(199,226,l),
(239,269,o),
(275,308,o),
(278,308,cs),
(294,308,o),
(299,300,o),
(299,281,cs),
(299,271,o),
(297,259,o),
(295,246,cs),
(258,40,l),
(255,26,o),
(284,-9,o),
(293,-9,cs)
);
}
);
width = 744;
}
);
metricLeft = n;
metricRight = n;
unicode = 109;
},
{
color = 4;
glyphname = n;
kernLeft = n;
kernRight = n;
layers = (
{
anchors = (
{
name = bottom;
pos = (214,0);
},
{
name = top;
pos = (275,448);
},
{
name = topleft;
pos = (19,448);
}
);
background = {
shapes = (
{
closed = 1;
nodes = (
(232,426,l),
(233,432,o),
(210,457,o),
(205,457,cs),
(200,457,o),
(128,436,o),
(98,426,c),
(93,396,l),
(138,385,l),
(73,22,l),
(73,15,o),
(94,-9,o),
(100,-9,cs),
(107,-9,o),
(187,16,o),
(187,16,c),
(187,38,l),
(179,41,o),
(170,48,o),
(170,66,cs),
(170,69,o),
(170,73,o),
(171,78,cs)
);
},
{
closed = 1;
nodes = (
(299,22,l),
(299,15,o),
(320,-9,o),
(326,-9,cs),
(333,-9,o),
(433,22,o),
(433,22,c),
(438,52,l),
(393,63,l),
(435,288,l),
(439,312,o),
(441,333,o),
(441,351,cs),
(441,424,o),
(406,456,o),
(320,456,cs),
(306,456,o),
(221,306,o),
(192,253,c),
(179,184,l),
(218,242,o),
(317,382,o),
(331,382,cs),
(351,382,o),
(357,367,o),
(357,346,cs),
(357,338,o),
(356,328,o),
(354,318,cs)
);
}
);
};
layerId = "D9712079-C16A-42CB-8BA4-BD9ECFFACF10";
shapes = (
{
closed = 1;
nodes = (
(305,-9,o),
(364,9,o),
(407,22,c),
(412,52,l),
(367,63,l),
(409,288,ls),
(413,312,o),
(415,333,o),
(415,351,cs),
(415,424,o),
(380,457,o),
(294,457,cs),
(287,457,o),
(227,353,o),
(186,282,c),
(172,282,l),
(153,184,l),
(199,250,o),
(291,382,o),
(305,382,cs),
(332,382,o),
(334,352,o),
(328,318,cs),
(273,22,l),
(273,15,o),
(294,-9,o),
(300,-9,cs)
);
},
{
closed = 1;
nodes = (
(79,-9,o),
(127,5,o),
(161,16,c),
(161,38,l),
(145,44,o),
(142,61,o),
(145,78,cs),
(175,247,l),
(204,426,l),
(205,432,o),
(184,457,o),
(179,457,cs),
(174,457,o),
(102,436,o),
(72,426,c),
(67,396,l),
(112,385,l),
(47,22,l),
(47,15,o),
(68,-9,o),
(74,-9,cs)
);
}
);
width = 468;
},
{
anchors = (
{
name = bottom;
pos = (233,0);
},
{
name = top;
pos = (289,462);
},
{
name = topleft;
pos = (11,462);
}
);
background = {
shapes = (
{
closed = 1;
nodes = (
(271,427,ls),
(273,438,o),
(248,477,o),
(239,477,cs),
(210,477,o),
(101,460,o),
(67,453,c),
(55,384,l),
(101,373,l),
(41,40,ls),
(38,26,o),
(67,-9,o),
(76,-9,cs),
(83,-9,o),
(230,6,o),
(230,6,c),
(236,65,l),
(228,69,o),
(219,76,o),
(219,94,cs),
(219,97,o),
(219,101,o),
(220,106,cs)
);
},
{
closed = 1;
nodes = (
(283,40,ls),
(280,26,o),
(309,-9,o),
(318,-9,cs),
(325,-9,o),
(487,12,o),
(487,12,c),
(498,80,l),
(458,91,l),
(499,308,ls),
(503,331,o),
(506,351,o),
(506,369,cs),
(506,446,o),
(461,476,o),
(357,476,cs),
(346,476,o),
(299,387,o),
(260,315,c),
(238,315,l),
(219,226,l),
(264,273,o),
(300,308,o),
(303,308,cs),
(319,308,o),
(324,300,o),
(324,281,cs),
(324,271,o),
(322,260,o),
(320,246,cs)
);
}
);
};
layerId = "E259E77F-022A-45EF-A0F1-1168268390B3";
shapes = (
{
closed = 1;
nodes = (
(303,-9,o),
(397,3,o),
(467,12,c),
(478,80,l),
(438,91,l),
(479,308,ls),
(483,331,o),
(486,351,o),
(486,369,cs),
(486,446,o),
(441,476,o),
(337,476,cs),
(333,476,o),
(284,388,o),
(240,310,c),
(218,310,l),
(199,226,l),
(244,271,o),
(280,308,o),
(283,308,cs),
(310,308,o),
(306,282,o),
(300,246,cs),
(263,40,ls),
(260,26,o),
(289,-9,o),
(298,-9,cs)
);
},
{
closed = 1;
nodes = (
(61,-9,o),
(147,0,o),
(210,6,c),
(216,65,l),
(200,73,o),
(197,88,o),
(200,106,cs),
(229,288,l),
(246,427,ls),
(247,438,o),
(223,477,o),
(214,477,cs),
(185,477,o),
(81,460,o),
(47,453,c),
(35,384,l),
(81,373,l),
(21,40,ls),
(18,26,o),
(47,-9,o),
(56,-9,cs)
);
}
);
width = 511;
},
{
anchors = (
{
name = bottom;
pos = (215,0);
},
{
name = top;
pos = (266,440);
},
{
name = topleft;
pos = (23,440);
}
);
background = {
shapes = (
{
closed = 1;
nodes = (
(362,-9,o),
(399,-2,o),
(421,3,c),
(423,18,l),
(367,22,l),
(416,297,ls),
(420,321,o),
(423,342,o),
(423,362,cs),
(423,434,o),
(388,449,o),
(318,449,cs),
(308,449,o),
(222,301,o),
(165,207,c),
(156,207,l),
(147,150,l),
(211,251,o),
(319,424,o),
(327,424,cs),
(374,424,o),
(396,408,o),
(396,360,cs),
(396,344,o),
(394,329,o),
(391,310,cs),
(337,8,l),
(337,4,o),
(351,-9,o),
(355,-9,cs)
);
},
{
closed = 1;
nodes = (
(117,-9,o),
(150,-2,o),
(163,2,c),
(164,15,l),
(138,19,o),
(131,20,o),
(131,32,cs),
(131,35,o),
(131,38,o),
(132,42,cs),
(157,183,l),
(198,432,l),
(199,435,o),
(186,449,o),
(182,449,cs),
(177,449,o),
(149,444,o),
(116,437,c),
(114,422,l),
(169,418,l),
(97,8,l),
(97,3,o),
(110,-9,o),
(114,-9,cs)
);
}
);
};
guides = (
{
pos = (150,2);
}
);
layerId = "16B79A64-180D-495F-8650-CA27198DF3EF";
shapes = (
{
closed = 1;
nodes = (
(331,-9,o),
(368,-2,o),
(390,3,c),
(392,18,l),
(336,22,l),
(385,297,ls),
(389,321,o),
(392,342,o),
(392,362,cs),
(392,434,o),
(357,449,o),
(287,449,cs),
(277,449,o),
(191,301,o),
(134,207,c),
(125,207,l),
(116,150,l),
(180,251,o),
(288,423,o),
(296,423,cs),
(361,423,o),
(374,390,o),
(360,310,cs),
(306,8,l),
(306,4,o),
(320,-9,o),
(324,-9,cs)
);
},
{
closed = 1;
nodes = (
(86,-9,o),
(119,-2,o),
(132,2,c),
(133,15,l),
(110,19,o),
(97,18,o),
(101,42,cs),
(126,183,l),
(167,432,l),
(168,435,o),
(155,449,o),
(151,449,cs),
(146,449,o),
(118,444,o),
(85,437,c),
(83,422,l),
(138,418,l),
(66,8,l),
(66,3,o),
(79,-9,o),
(83,-9,cs)
);
}
);
width = 458;
}
);
unicode = 110;
},
{
color = 4;
glyphname = nhookleft;
kernLeft = j;
kernRight = n;
layers = (
{
layerId = "D9712079-C16A-42CB-8BA4-BD9ECFFACF10";
shapes = (
{
closed = 1;
nodes = (
(9,-181,o),
(117,-84,o),
(128,-22,c),
(173,233,l),
(205,426,ls),
(206,432,o),
(185,457,o),
(180,457,cs),
(175,457,o),
(103,436,o),
(73,426,c),
(68,396,l),
(113,385,l),
(46,13,ls),
(40,-22,o),
(27,-89,o),
(2,-102,c),
(-8,-108,o),
(-74,-108,o),
(-96,-108,c),
(-110,-146,l),
(-74,-162,o),
(-33,-181,o),
(-19,-181,cs)
);
},
{
closed = 1;
nodes = (
(306,-9,o),
(365,9,o),
(408,22,c),
(413,52,l),
(368,63,l),
(410,288,l),
(414,312,o),
(416,333,o),
(416,351,cs),
(416,424,o),
(381,457,o),
(295,457,cs),
(288,457,o),
(226,349,o),
(185,278,c),
(171,278,l),
(154,184,l),
(200,250,o),
(292,382,o),
(306,382,cs),
(326,382,o),
(332,367,o),
(332,346,cs),
(332,338,o),
(331,328,o),
(329,318,cs),
(274,22,l),
(274,15,o),
(295,-9,o),
(301,-9,cs)
);
}
);
width = 469;
},
{
layerId = "16B79A64-180D-495F-8650-CA27198DF3EF";
shapes = (
{
closed = 1;
nodes = (
(26,-175,o),
(72,-120,o),
(83,-59,cs),
(126,183,l),
(167,432,l),
(168,435,o),
(155,449,o),
(151,449,cs),
(146,449,o),
(118,444,o),
(85,437,c),
(83,422,l),
(138,418,l),
(57,-45,ls),
(49,-92,o),
(25,-144,o),
(9,-147,cs),
(0,-149,o),
(-50,-149,o),
(-72,-149,c),
(-75,-164,l),
(-50,-169,o),
(-7,-175,o),
(-1,-175,cs)
);
},
{
closed = 1;
nodes = (
(331,-9,o),
(368,-2,o),
(390,3,c),
(392,18,l),
(336,22,l),
(385,297,ls),
(389,321,o),
(392,342,o),
(392,362,cs),
(392,434,o),
(357,449,o),
(287,449,cs),
(277,449,o),
(191,301,o),
(134,207,c),
(125,207,l),
(116,150,l),
(180,251,o),
(288,424,o),
(296,424,cs),
(343,424,o),
(365,408,o),
(365,360,cs),
(365,344,o),
(363,329,o),
(360,310,cs),
(306,8,l),
(306,4,o),
(320,-9,o),
(324,-9,cs)
);
}
);
width = 458;
},
{
layerId = "E259E77F-022A-45EF-A0F1-1168268390B3";
shapes = (
{
closed = 1;
nodes = (
(24,-186,o),
(171,-76,o),
(181,-16,cs),
(232,288,l),
(249,427,ls),
(250,438,o),
(226,477,o),
(217,477,cs),
(188,477,o),
(84,460,o),
(50,453,c),
(38,384,l),
(84,373,l),
(24,35,ls),
(12,-35,o),
(7,-63,o),
(-5,-68,cs),
(-19,-74,o),
(-85,-74,o),
(-112,-73,c),
(-126,-150,l),
(-91,-166,o),
(-37,-186,o),
(-10,-186,cs)
);
},
{
closed = 1;
nodes = (
(306,-9,o),
(400,3,o),
(470,12,c),
(481,80,l),
(441,91,l),
(482,308,ls),
(486,331,o),
(489,351,o),
(489,369,cs),
(489,446,o),
(444,476,o),
(340,476,cs),
(336,476,o),
(287,388,o),
(243,310,c),
(221,310,l),
(202,226,l),
(247,271,o),
(283,308,o),
(286,308,cs),
(302,308,o),
(307,300,o),
(307,281,cs),
(307,271,o),
(305,260,o),
(303,246,cs),
(266,40,ls),
(263,26,o),
(292,-9,o),
(301,-9,cs)
);
}
);
width = 514;
}
);
metricLeft = j;
metricRight = n;
unicode = 626;
},
{
color = 4;
glyphname = eng;
kernLeft = n;
kernRight = j;
layers = (
{
layerId = "D9712079-C16A-42CB-8BA4-BD9ECFFACF10";
shapes = (
{
closed = 1;
nodes = (
(234,-181,o),
(338,-84,o),
(350,-22,cs),
(409,288,ls),
(413,312,o),
(415,333,o),
(415,351,cs),
(415,424,o),
(380,457,o),
(294,457,cs),
(287,457,o),
(225,349,o),
(184,278,c),
(170,278,l),
(153,184,l),
(199,250,o),
(291,382,o),
(305,382,cs),
(325,382,o),
(331,367,o),
(331,346,cs),
(331,338,o),
(330,328,o),
(328,318,cs),
(271,13,ls),
(264,-22,o),
(252,-89,o),
(227,-102,cs),
(217,-107,o),
(151,-108,o),
(129,-108,c),
(115,-146,l),
(151,-162,o),
(192,-181,o),
(206,-181,cs)
);
},
{
closed = 1;
nodes = (
(79,-9,o),
(127,5,o),
(161,16,c),
(161,38,l),
(153,41,o),
(144,48,o),
(144,66,cs),
(144,69,o),
(144,73,o),
(145,78,cs),
(174,249,l),
(204,426,l),
(205,432,o),
(184,457,o),
(179,457,cs),
(174,457,o),
(102,436,o),
(72,426,c),
(67,396,l),
(112,385,l),
(47,22,l),
(47,15,o),
(68,-9,o),
(74,-9,cs)
);
}
);
width = 462;
},
{
layerId = "16B79A64-180D-495F-8650-CA27198DF3EF";
shapes = (
{
closed = 1;
nodes = (
(265,-175,o),
(311,-120,o),
(322,-59,cs),
(385,297,ls),
(389,321,o),
(392,342,o),
(392,362,cs),
(392,434,o),
(357,449,o),
(287,449,cs),
(277,449,o),
(191,301,o),
(134,207,c),
(125,207,l),
(116,150,l),
(180,251,o),
(288,424,o),
(296,424,cs),
(343,424,o),
(365,408,o),
(365,360,cs),
(365,344,o),
(363,329,o),
(360,310,cs),
(296,-45,ls),
(288,-92,o),
(264,-143,o),
(248,-147,cs),
(239,-149,o),
(189,-149,o),
(167,-149,c),
(164,-164,l),
(189,-169,o),
(232,-175,o),
(238,-175,cs)
);
},
{
closed = 1;
nodes = (
(86,-9,o),
(119,-2,o),
(132,2,c),
(133,15,l),
(107,19,o),
(100,20,o),
(100,32,cs),
(100,35,o),
(100,38,o),
(101,42,cs),
(125,184,l),
(167,432,l),
(168,435,o),
(155,449,o),
(151,449,cs),
(146,449,o),
(118,444,o),
(85,437,c),
(83,422,l),
(138,418,l),
(66,8,l),
(66,3,o),
(79,-9,o),
(83,-9,cs)
);
}
);
width = 456;
},
{
layerId = "E259E77F-022A-45EF-A0F1-1168268390B3";
shapes = (
{
closed = 1;
nodes = (
(263,-186,o),
(410,-76,o),
(420,-16,cs),
(479,308,ls),
(483,331,o),
(486,351,o),
(486,369,cs),
(486,446,o),
(441,476,o),
(337,476,cs),
(333,476,o),
(284,388,o),
(240,310,c),
(218,310,l),
(199,226,l),
(232,260,o),
(281,308,o),
(283,308,cs),
(299,308,o),
(304,300,o),
(304,281,cs),
(304,271,o),
(302,260,o),
(300,246,c),
(263,40,ls),
(250,-30,o),
(246,-63,o),
(234,-68,cs),
(220,-74,o),
(154,-74,o),
(127,-73,c),
(113,-150,l),
(148,-166,o),
(202,-186,o),
(229,-186,cs)
);
},
{
closed = 1;
nodes = (
(61,-9,o),
(147,0,o),
(210,6,c),
(216,65,l),
(208,69,o),
(199,76,o),
(199,94,cs),
(199,97,o),
(199,101,o),
(200,106,cs),
(229,288,l),
(246,427,ls),
(247,438,o),
(223,477,o),
(214,477,cs),
(185,477,o),
(81,460,o),
(47,453,c),
(35,384,l),
(81,373,l),
(21,40,ls),
(18,26,o),
(47,-9,o),
(56,-9,cs)
);
}
);
width = 510;
}
);
metricLeft = n;
metricRight = j;
unicode = 331;
},
{
color = 4;
glyphname = o;
kernLeft = o;
kernRight = o;
layers = (
{
anchors = (
{
name = bottom;
pos = (205,0);
},
{
name = center;
pos = (211,231);
},
{
name = ogonek;
pos = (205,0);
},
{
name = top;
pos = (250,448);
},
{
name = topright;
pos = (314,448);
}
);
background = {
shapes = (
{
closed = 1;
nodes = (
(242,-9,o),
(360,62,o),
(384,90,c),
(406,136,o),
(434,231,o),
(434,307,cs),
(434,407,o),
(385,461,o),
(272,461,cs),
(248,461,o),
(134,386,o),
(108,358,c),
(86,312,o),
(58,211,o),
(58,141,cs),
(58,37,o),
(110,-9,o),
(220,-9,cs)
);
},
{
closed = 1;
nodes = (
(179,47,o),
(150,80,o),
(150,147,cs),
(150,288,o),
(214,398,o),
(230,408,c),
(237,409,o),
(243,409,o),
(249,409,cs),
(319,409,o),
(342,356,o),
(342,301,cs),
(342,208,o),
(312,122,o),
(294,73,c),
(283,66,o),
(252,50,o),
(239,48,c),
(234,47,o),
(229,47,o),
(224,47,cs)
);
}
);
};
layerId = "D9712079-C16A-42CB-8BA4-BD9ECFFACF10";
shapes = (
{
closed = 1;
nodes = (
(206,-9,o),
(324,62,o),
(348,90,c),
(370,136,o),
(398,231,o),
(398,307,cs),
(398,407,o),
(349,461,o),
(236,461,cs),
(212,461,o),
(98,386,o),
(72,358,c),
(47,315,o),
(22,222,o),
(22,149,cs),
(22,39,o),
(68,-9,o),
(184,-9,cs)
);
},
{
closed = 1;
nodes = (
(143,50,o),
(114,80,o),
(114,147,cs),
(114,288,o),
(162,390,o),
(192,399,cs),
(202,402,o),
(211,403,o),
(220,403,cs),
(272,403,o),
(306,367,o),
(306,301,cs),
(306,208,o),
(276,125,o),
(258,76,c),
(247,69,o),
(216,53,o),
(203,51,c),
(198,50,o),
(193,50,o),
(188,50,cs)
);
}
);
width = 424;
},
{
anchors = (
{
name = bottom;
pos = (208,0);
},
{
name = center;
pos = (244,231);
},
{
name = ogonek;
pos = (233,0);
},
{
name = top;
pos = (284,462);
},
{
name = topright;
pos = (382,462);
}
);
background = {
shapes = (
{
closed = 1;
nodes = (
(249,-9,o),
(385,51,o),
(443,97,c),
(469,143,o),
(502,246,o),
(502,322,cs),
(502,424,o),
(441,481,o),
(324,481,cs),
(288,481,o),
(176,429,o),
(97,380,c),
(71,334,o),
(38,216,o),
(38,146,cs),
(38,40,o),
(112,-9,o),
(224,-9,cs)
);
},
{
closed = 1;
nodes = (
(225,68,o),
(216,99,o),
(216,165,cs),
(216,272,o),
(244,378,o),
(269,398,c),
(275,400,o),
(280,400,o),
(284,400,cs),
(314,400,o),
(324,368,o),
(324,322,cs),
(324,248,o),
(302,125,o),
(285,82,c),
(281,79,o),
(265,73,o),
(259,71,c),
(256,70,o),
(250,68,o),
(247,68,cs)
);
}
);
};
layerId = "E259E77F-022A-45EF-A0F1-1168268390B3";
shapes = (
{
closed = 1;
nodes = (
(224,-9,o),
(360,51,o),
(418,97,c),
(444,143,o),
(477,246,o),
(477,322,cs),
(477,424,o),
(416,481,o),
(299,481,cs),
(263,481,o),
(151,429,o),
(72,380,c),
(43,332,o),
(13,216,o),
(13,146,cs),
(13,40,o),
(87,-9,o),
(199,-9,cs)
);
},
{
closed = 1;
nodes = (
(200,68,o),
(191,99,o),
(191,165,cs),
(191,272,o),
(218,387,o),
(244,397,cs),
(249,399,o),
(256,400,o),
(261,400,cs),
(288,400,o),
(299,368,o),
(299,322,cs),
(299,248,o),
(277,125,o),
(260,82,c),
(256,79,o),
(240,73,o),
(234,71,c),
(231,70,o),
(225,68,o),
(222,68,cs)
);
}
);
width = 488;
},
{
anchors = (
{
name = bottom;
pos = (167,0);
},
{
name = center;
pos = (207,224);
},
{
name = ogonek;
pos = (205,0);
},
{
name = top;
pos = (244,440);
},
{
name = topright;
pos = (290,440);
}
);
background = {
shapes = (
{
closed = 1;
nodes = (
(245,-9,o),
(330,40,o),
(360,75,c),
(393,125,o),
(420,206,o),
(420,301,cs),
(420,397,o),
(371,450,o),
(276,450,cs),
(252,450,o),
(188,408,o),
(150,367,c),
(114,319,o),
(87,238,o),
(87,144,cs),
(87,49,o),
(130,-9,o),
(228,-9,cs)
);
},
{
closed = 1;
nodes = (
(153,17,o),
(117,65,o),
(117,148,cs),
(117,336,o),
(202,389,o),
(235,408,cs),
(251,417,o),
(269,424,o),
(286,424,cs),
(358,424,o),
(390,373,o),
(390,297,cs),
(390,236,o),
(378,144,o),
(340,86,c),
(321,64,o),
(266,29,o),
(244,21,c),
(236,18,o),
(226,17,o),
(218,17,cs)
);
}
);
};
layerId = "16B79A64-180D-495F-8650-CA27198DF3EF";
shapes = (
{
closed = 1;
nodes = (
(197,-9,o),
(282,40,o),
(312,75,c),
(345,125,o),
(372,206,o),
(372,301,cs),
(372,397,o),
(323,450,o),
(228,450,cs),
(203,450,o),
(139,409,o),
(102,367,c),
(66,319,o),
(39,238,o),
(39,144,cs),
(39,49,o),
(82,-9,o),
(180,-9,cs)
);
},
{
closed = 1;
nodes = (
(105,17,o),
(69,65,o),
(69,148,cs),
(69,336,o),
(154,387,o),
(187,407,cs),
(203,417,o),
(221,424,o),
(238,424,cs),
(310,424,o),
(342,373,o),
(342,297,cs),
(342,236,o),
(330,144,o),
(292,86,c),
(273,64,o),
(218,29,o),
(196,21,c),
(188,18,o),
(178,17,o),
(170,17,cs)
);
}
);
width = 410;
}
);
unicode = 111;
},
{
color = 4;
glyphname = p;
kernLeft = n;
kernRight = o;
layers = (
{
background = {
shapes = (
{
closed = 1;
nodes = (
(228,-9,o),
(344,62,o),
(371,90,c),
(393,136,o),
(421,231,o),
(421,307,cs),
(421,398,o),
(384,457,o),
(291,457,cs),
(284,457,o),
(225,351,o),
(184,278,c),
(170,278,l),
(153,180,l),
(200,251,o),
(287,383,o),
(297,383,cs),
(313,383,o),
(329,357,o),
(329,301,cs),
(329,166,o),
(268,54,o),
(248,42,c),
(233,38,o),
(175,53,o),
(133,71,c),
(47,13,l),
(79,6,o),
(190,-9,o),
(207,-9,cs)
);
},
{
closed = 1;
nodes = (
(50,-181,o),
(122,-160,o),
(152,-150,c),
(157,-120,l),
(112,-109,l),
(173,241,l),
(204,426,l),
(204,433,o),
(185,457,o),
(179,457,cs),
(172,457,o),
(72,426,o),
(72,426,c),
(67,396,l),
(112,385,l),
(18,-150,ls),
(17,-156,o),
(40,-181,o),
(45,-181,cs)
);
}
);
};
layerId = "D9712079-C16A-42CB-8BA4-BD9ECFFACF10";
shapes = (
{
closed = 1;
nodes = (
(228,-9,o),
(347,62,o),
(371,90,c),
(396,133,o),
(421,222,o),
(421,307,cs),
(421,398,o),
(384,457,o),
(291,457,cs),
(284,457,o),
(227,355,o),
(186,282,c),
(172,282,l),
(153,180,l),
(200,251,o),
(287,383,o),
(297,383,cs),
(313,383,o),
(329,357,o),
(329,301,cs),
(329,166,o),
(285,59,o),
(248,49,cs),
(233,45,o),
(175,53,o),
(133,71,c),
(47,13,l),
(79,6,o),
(190,-9,o),
(207,-9,cs)
);
},
{
closed = 1;
nodes = (
(50,-181,o),
(122,-160,o),
(152,-150,c),
(157,-120,l),
(112,-109,l),
(173,241,l),
(204,426,l),
(204,433,o),
(185,457,o),
(179,457,cs),
(174,457,o),
(115,439,o),
(72,426,c),
(67,396,l),
(112,385,l),
(18,-150,ls),
(17,-156,o),
(40,-181,o),
(45,-181,cs)
);
}
);
width = 449;
},
{
background = {
shapes = (
{
closed = 1;
nodes = (
(224,-9,o),
(289,33,o),
(327,74,c),
(361,123,o),
(390,202,o),
(390,304,cs),
(390,394,o),
(369,449,o),
(280,449,cs),
(270,449,o),
(180,289,o),
(135,211,c),
(125,211,l),
(116,150,l),
(153,212,o),
(277,422,o),
(290,422,cs),
(353,422,o),
(360,362,o),
(360,297,cs),
(360,102,o),
(269,48,o),
(238,30,cs),
(201,8,o),
(158,17,o),
(95,36,c),
(68,13,l),
(102,6,o),
(174,-9,o),
(200,-9,cs)
);
},
{
closed = 1;
nodes = (
(59,-178,o),
(87,-173,o),
(120,-166,c),
(122,-151,l),
(67,-147,l),
(125,191,l),
(166,432,l),
(167,435,o),
(154,449,o),
(150,449,cs),
(145,449,o),
(118,444,o),
(85,437,c),
(83,422,l),
(138,418,l),
(37,-161,l),
(36,-164,o),
(50,-178,o),
(54,-178,cs)
);
}
);
};
layerId = "16B79A64-180D-495F-8650-CA27198DF3EF";
shapes = (
{
closed = 1;
nodes = (
(224,-9,o),
(289,33,o),
(327,74,c),
(361,123,o),
(390,202,o),
(390,304,cs),
(390,394,o),
(369,449,o),
(280,449,cs),
(270,449,o),
(180,289,o),
(135,211,c),
(125,211,l),
(116,150,l),
(153,212,o),
(277,421,o),
(290,421,cs),
(352,421,o),
(360,361,o),
(360,297,cs),
(360,102,o),
(269,48,o),
(238,30,cs),
(201,8,o),
(158,17,o),
(95,36,c),
(68,13,l),
(102,6,o),
(174,-9,o),
(200,-9,cs)
);
},
{
closed = 1;
nodes = (
(59,-178,o),
(87,-173,o),
(120,-166,c),
(122,-151,l),
(67,-147,l),
(125,191,l),
(166,432,l),
(167,435,o),
(154,449,o),
(150,449,cs),
(145,449,o),
(118,444,o),
(85,437,c),
(83,422,l),
(138,418,l),
(37,-161,l),
(36,-164,o),
(50,-178,o),
(54,-178,cs)
);
}
);
width = 428;
},
{
background = {
shapes = (
{
closed = 1;
nodes = (
(237,-8,o),
(383,55,o),
(429,89,c),
(453,135,o),
(488,252,o),
(488,328,cs),
(488,418,o),
(450,477,o),
(335,477,cs),
(331,477,o),
(283,393,o),
(239,317,c),
(213,317,l),
(196,232,l),
(230,266,o),
(275,313,o),
(282,313,cs),
(306,313,o),
(313,304,o),
(313,271,cs),
(313,165,o),
(272,83,o),
(257,73,c),
(242,71,o),
(151,95,o),
(102,117,c),
(15,21,l),
(47,14,o),
(190,-8,o),
(207,-8,cs)
);
},
{
closed = 1;
nodes = (
(50,-186,o),
(157,-169,o),
(191,-162,c),
(203,-93,l),
(162,-82,l),
(226,295,l),
(244,427,ls),
(246,438,o),
(218,477,o),
(209,477,cs),
(180,477,o),
(81,460,o),
(47,453,c),
(35,384,l),
(76,373,l),
(-14,-137,ls),
(-16,-151,o),
(12,-186,o),
(21,-186,cs)
);
}
);
};
layerId = "E259E77F-022A-45EF-A0F1-1168268390B3";
shapes = (
{
closed = 1;
nodes = (
(237,-8,o),
(382,55,o),
(428,89,c),
(457,137,o),
(488,252,o),
(488,328,cs),
(488,418,o),
(450,477,o),
(335,477,cs),
(331,477,o),
(283,393,o),
(239,317,c),
(213,317,l),
(196,232,l),
(230,266,o),
(275,313,o),
(282,313,cs),
(306,313,o),
(313,304,o),
(313,271,cs),
(313,165,o),
(274,77,o),
(257,73,cs),
(243,70,o),
(151,95,o),
(102,117,c),
(15,21,l),
(47,14,o),
(190,-8,o),
(207,-8,cs)
);
},
{
closed = 1;
nodes = (
(50,-186,o),
(157,-169,o),
(191,-162,c),
(203,-93,l),
(162,-82,l),
(226,295,l),
(244,427,ls),
(246,438,o),
(218,477,o),
(209,477,cs),
(180,477,o),
(81,460,o),
(47,453,c),
(35,384,l),
(76,373,l),
(-14,-137,ls),
(-16,-151,o),
(12,-186,o),
(21,-186,cs)
);
}
);
width = 499;
}
);
metricLeft = n;
metricRight = o;
unicode = 112;
},
{
color = 4;
glyphname = thorn;
kernLeft = l;
kernRight = o;
layers = (
{
layerId = "D9712079-C16A-42CB-8BA4-BD9ECFFACF10";
shapes = (
{
closed = 1;
nodes = (
(41,-181,o),
(131,-155,o),
(142,-150,c),
(147,-120,l),
(102,-109,l),
(228,613,l),
(229,620,o),
(209,646,o),
(203,646,cs),
(195,646,o),
(108,619,o),
(96,615,c),
(91,585,l),
(136,573,l),
(8,-148,ls),
(7,-155,o),
(28,-181,o),
(33,-181,cs)
);
},
{
closed = 1;
nodes = (
(218,-9,o),
(337,62,o),
(361,90,c),
(386,133,o),
(411,222,o),
(411,307,cs),
(411,398,o),
(374,457,o),
(281,457,cs),
(274,457,o),
(215,351,o),
(174,278,c),
(160,278,l),
(143,180,l),
(190,251,o),
(277,383,o),
(287,383,cs),
(303,383,o),
(319,357,o),
(319,301,cs),
(319,166,o),
(275,54,o),
(238,44,cs),
(223,40,o),
(165,53,o),
(123,71,c),
(37,13,l),
(69,6,o),
(180,-9,o),
(197,-9,cs)
);
}
);
width = 439;
},
{
layerId = "16B79A64-180D-495F-8650-CA27198DF3EF";
shapes = (
{
closed = 1;
nodes = (
(53,-178,o),
(81,-173,o),
(114,-166,c),
(116,-151,l),
(61,-147,l),
(193,620,l),
(194,623,o),
(181,637,o),
(177,637,cs),
(172,637,o),
(144,632,o),
(111,625,c),
(109,610,l),
(164,606,l),
(31,-161,l),
(30,-164,o),
(44,-178,o),
(48,-178,cs)
);
},
{
closed = 1;
nodes = (
(217,-9,o),
(282,33,o),
(320,74,c),
(354,123,o),
(383,202,o),
(383,304,cs),
(383,394,o),
(362,449,o),
(273,449,cs),
(263,449,o),
(173,289,o),
(128,211,c),
(118,211,l),
(109,150,l),
(146,212,o),
(270,422,o),
(283,422,cs),
(346,422,o),
(353,362,o),
(353,297,cs),
(353,102,o),
(262,48,o),
(231,30,cs),
(194,8,o),
(151,17,o),
(88,36,c),
(66,13,l),
(100,6,o),
(167,-9,o),
(193,-9,cs)
);
}
);
width = 421;
},
{
layerId = "E259E77F-022A-45EF-A0F1-1168268390B3";
shapes = (
{
closed = 1;
nodes = (
(51,-186,o),
(158,-169,o),
(192,-162,c),
(204,-93,l),
(163,-82,l),
(282,615,ls),
(284,626,o),
(256,665,o),
(247,665,cs),
(218,665,o),
(110,648,o),
(76,641,c),
(64,572,l),
(110,561,l),
(-13,-137,ls),
(-15,-151,o),
(13,-186,o),
(22,-186,cs)
);
},
{
closed = 1;
nodes = (
(238,-8,o),
(383,55,o),
(429,89,c),
(458,137,o),
(489,252,o),
(489,328,cs),
(489,418,o),
(451,477,o),
(336,477,cs),
(332,477,o),
(284,393,o),
(240,317,c),
(214,317,l),
(197,232,l),
(231,266,o),
(276,313,o),
(283,313,cs),
(307,313,o),
(314,304,o),
(314,271,cs),
(314,165,o),
(275,77,o),
(258,73,cs),
(244,70,o),
(152,95,o),
(103,117,c),
(16,21,l),
(48,14,o),
(191,-8,o),
(208,-8,cs)
);
}
);
width = 500;
}
);
metricLeft = l;
metricRight = o;
unicode = 254;
},
{
color = 4;
glyphname = q;
kernLeft = o;
kernRight = q;
layers = (
{
background = {
anchors = (
{
name = bottom;
pos = (174,0);
},
{
name = ogonek;
pos = (263,0);
},
{
name = top;
pos = (260,538);
}
);
shapes = (
{
closed = 1;
nodes = (
(159,-9,o),
(219,100,o),
(259,170,c),
(273,170,l),
(290,268,l),
(236,186,o),
(157,65,o),
(146,65,cs),
(130,65,o),
(114,91,o),
(114,147,cs),
(114,282,o),
(175,394,o),
(195,406,c),
(210,410,o),
(268,395,o),
(310,377,c),
(397,435,l),
(365,442,o),
(253,457,o),
(236,457,cs),
(214,457,o),
(96,386,o),
(72,358,c),
(50,312,o),
(22,217,o),
(22,141,cs),
(22,50,o),
(59,-9,o),
(152,-9,cs)
);
},
{
closed = 1;
nodes = (
(241,-181,o),
(341,-150,o),
(341,-150,c),
(346,-120,l),
(301,-109,l),
(397,435,l),
(312,435,l),
(270,205,l),
(207,-150,l),
(207,-157,o),
(228,-181,o),
(234,-181,cs)
);
}
);
};
layerId = "D9712079-C16A-42CB-8BA4-BD9ECFFACF10";
shapes = (
{
closed = 1;
nodes = (
(159,-9,o),
(217,96,o),
(257,166,c),
(271,166,l),
(290,268,l),
(236,186,o),
(157,65,o),
(146,65,cs),
(130,65,o),
(114,91,o),
(114,147,cs),
(114,282,o),
(158,389,o),
(195,399,cs),
(210,403,o),
(268,395,o),
(310,377,c),
(397,435,l),
(365,442,o),
(253,457,o),
(236,457,cs),
(214,457,o),
(96,386,o),
(72,358,c),
(47,315,o),
(22,226,o),
(22,141,cs),
(22,50,o),
(59,-9,o),
(152,-9,cs)
);
},
{
closed = 1;
nodes = (
(239,-181,o),
(298,-163,o),
(341,-150,c),
(346,-120,l),
(301,-109,l),
(397,435,l),
(312,435,l),
(270,205,l),
(207,-150,l),
(207,-157,o),
(228,-181,o),
(234,-181,cs)
);
}
);
width = 438;
},
{
background = {
shapes = (
{
closed = 1;
nodes = (
(157,-9,o),
(251,157,o),
(293,230,c),
(303,230,l),
(311,290,l),
(272,225,o),
(150,18,o),
(137,18,cs),
(75,18,o),
(68,78,o),
(68,143,cs),
(68,338,o),
(161,393,o),
(191,411,c),
(227,433,o),
(269,424,o),
(332,405,c),
(360,428,l),
(326,435,o),
(254,449,o),
(228,449,cs),
(204,449,o),
(140,408,o),
(102,367,c),
(67,317,o),
(38,238,o),
(38,136,cs),
(38,46,o),
(59,-9,o),
(147,-9,cs)
);
},
{
closed = 1;
nodes = (
(252,-178,o),
(279,-173,o),
(312,-166,c),
(314,-151,l),
(259,-147,l),
(359,428,l),
(330,428,l),
(299,246,l),
(231,-161,l),
(230,-164,o),
(243,-178,o),
(247,-178,cs)
);
}
);
};
layerId = "16B79A64-180D-495F-8650-CA27198DF3EF";
shapes = (
{
closed = 1;
nodes = (
(157,-9,o),
(251,157,o),
(293,230,c),
(303,230,l),
(311,290,l),
(272,225,o),
(150,18,o),
(137,18,cs),
(75,18,o),
(68,78,o),
(68,143,cs),
(68,338,o),
(158,392,o),
(190,410,cs),
(232,434,o),
(267,423,o),
(332,405,c),
(360,428,l),
(326,435,o),
(254,449,o),
(228,449,cs),
(204,449,o),
(140,408,o),
(102,367,c),
(67,317,o),
(38,238,o),
(38,136,cs),
(38,47,o),
(60,-9,o),
(147,-9,cs)
);
},
{
closed = 1;
nodes = (
(252,-178,o),
(279,-173,o),
(312,-166,c),
(314,-151,l),
(259,-147,l),
(359,428,l),
(330,428,l),
(299,246,l),
(231,-161,l),
(230,-164,o),
(243,-178,o),
(247,-178,cs)
);
}
);
width = 420;
},
{
background = {
shapes = (
{
closed = 1;
nodes = (
(169,-8,o),
(217,76,o),
(261,152,c),
(287,152,l),
(304,236,l),
(272,203,o),
(225,156,o),
(219,156,cs),
(195,156,o),
(187,165,o),
(187,198,cs),
(187,304,o),
(228,386,o),
(243,396,c),
(258,398,o),
(349,374,o),
(398,352,c),
(485,448,l),
(453,455,o),
(310,477,o),
(293,477,cs),
(263,477,o),
(117,414,o),
(71,380,c),
(47,334,o),
(12,217,o),
(12,141,cs),
(12,51,o),
(50,-8,o),
(165,-8,cs)
);
},
{
closed = 1;
nodes = (
(293,-185,o),
(391,-169,o),
(425,-162,c),
(437,-93,l),
(391,-82,l),
(485,448,l),
(318,448,l),
(274,178,l),
(229,-136,ls),
(227,-150,o),
(255,-185,o),
(264,-185,cs)
);
}
);
};
layerId = "E259E77F-022A-45EF-A0F1-1168268390B3";
shapes = (
{
closed = 1;
nodes = (
(169,-8,o),
(217,76,o),
(261,152,c),
(287,152,l),
(304,236,l),
(272,203,o),
(225,156,o),
(219,156,cs),
(195,156,o),
(187,165,o),
(187,198,cs),
(187,304,o),
(226,392,o),
(243,396,cs),
(256,399,o),
(349,374,o),
(398,352,c),
(485,448,l),
(453,455,o),
(310,477,o),
(293,477,cs),
(263,477,o),
(118,414,o),
(72,380,c),
(43,332,o),
(12,217,o),
(12,141,cs),
(12,51,o),
(50,-8,o),
(165,-8,cs)
);
},
{
closed = 1;
nodes = (
(293,-185,o),
(391,-169,o),
(425,-162,c),
(437,-93,l),
(391,-82,l),
(485,448,l),
(318,448,l),
(274,178,l),
(229,-136,ls),
(227,-150,o),
(255,-185,o),
(264,-185,cs)
);
}
);
width = 501;
}
);
metricLeft = o;
unicode = 113;
},
